<svg width="16" height="16" fill="none" xmlns="http://www.w3.org/2000/svg"><g clip-path="url(#a)" fill="#707078"><path d="M12.53 2.001h-1.5v-.5a.5.5 0 0 0-.5-.5H9.446a1.5 1.5 0 0 0-2.829 0H5.531a.5.5 0 0 0-.5.5v.5h-1.5a1.5 1.5 0 0 0-1.5 1.5v11A1.5 1.5 0 0 0 3.531 16h9a1.5 1.5 0 0 0 1.5-1.5V3.501a1.5 1.5 0 0 0-1.5-1.5Zm-6.5 0h1a.5.5 0 0 0 .5-.5.5.5 0 1 1 1 0 .5.5 0 0 0 .5.5h1v1h-4v-1Zm7 12.5a.5.5 0 0 1-.5.5H3.531a.5.5 0 0 1-.5-.5v-11a.5.5 0 0 1 .5-.5h1.5v.5a.5.5 0 0 0 .5.5h5a.5.5 0 0 0 .5-.5v-.5h1.5a.5.5 0 0 1 .5.5v11Z"/><path d="M11.03 6h-6a.5.5 0 0 0 0 1h6a.5.5 0 0 0 0-1ZM11.03 9h-6a.5.5 0 0 0 0 1h6a.5.5 0 0 0 0-1ZM11.03 12h-6a.5.5 0 1 0 0 1h6a.5.5 0 1 0 0-1Z"/></g><defs><clipPath id="a"><path fill="#fff" d="M0 0h16v16H0z"/></clipPath></defs></svg>