<svg width="12" height="12" fill="none" xmlns="http://www.w3.org/2000/svg"><path fill-rule="evenodd" clip-rule="evenodd" d="M6.009 6.579c.228 0 .434-.105.674-.33l4.7-4.475c-.2-.186-.577-.274-1.108-.274H1.571c-.452 0-.777.082-.96.252l4.73 4.498c.233.224.445.329.668.329ZM.143 9.649 3.98 5.998.137 2.356c-.091.153-.137.41-.137.778v5.732c0 .367.046.63.143.784Zm11.726-.01c.085-.154.131-.411.131-.773V3.134c0-.356-.046-.614-.131-.767l-3.833 3.63L11.87 9.64Zm-1.44.861c.463 0 .783-.088.966-.252l-3.913-3.73-.354.34c-.371.34-.725.505-1.12.505-.394 0-.748-.165-1.119-.505l-.354-.34-3.901 3.719c.206.175.571.263 1.09.263h8.705Z" fill="#707078"/></svg>