<svg xmlns="http://www.w3.org/2000/svg" width="17" height="17" viewBox="0 0 17 17">
<path fill="#707078" d="M 8.960938 7.082031 C 8.378906 5.433594 6.808594 4.25 4.957031 4.25 C 2.613281 4.25 0.707031 6.15625 0.707031 8.5 C 0.707031 10.84375 2.613281 12.75 4.957031 12.75 C 6.808594 12.75 8.378906 11.566406 8.960938 9.917969 L 12.042969 9.917969 L 12.042969 12.75 L 14.875 12.75 L 14.875 9.917969 L 16.292969 9.917969 L 16.292969 7.082031 Z M 4.957031 9.917969 C 4.179688 9.917969 3.542969 9.277344 3.542969 8.5 C 3.542969 7.722656 4.179688 7.082031 4.957031 7.082031 C 5.738281 7.082031 6.375 7.722656 6.375 8.5 C 6.375 9.277344 5.738281 9.917969 4.957031 9.917969 Z M 4.957031 9.917969 "/>
</svg>
