<svg width="16" height="16" viewBox="0 0 16 16" fill="none" xmlns="http://www.w3.org/2000/svg">
<path fill-rule="evenodd" clip-rule="evenodd" d="M11.2545 10.312L15.8045 14.862C16.0652 15.1227 16.0652 15.544 15.8045 15.8047C15.6745 15.9347 15.5039 16 15.3332 16C15.1625 16 14.9918 15.9347 14.8618 15.8047L10.3119 11.2547C9.22324 12.136 7.83991 12.6667 6.33327 12.6667C2.84131 12.6667 0 9.82531 0 6.33331C0 2.84131 2.84128 0 6.33324 0C9.8252 0 12.6665 2.84134 12.6665 6.33334C12.6665 7.84 12.1359 9.22334 11.2545 10.312ZM1.33333 6.33331C1.33333 9.09066 3.57596 11.3333 6.33327 11.3333C9.09056 11.3333 11.3332 9.09066 11.3332 6.33331C11.3332 3.57597 9.09059 1.33331 6.33327 1.33331C3.57596 1.33331 1.33333 3.57597 1.33333 6.33331Z" fill="#707078"/>
</svg>
