<svg width="16" height="16" fill="none" xmlns="http://www.w3.org/2000/svg"><path d="M8 16A8 8 0 1 0 8 0a8 8 0 0 0 0 16ZM8 1c.657 0 1.407.59 2.022 1.908.217.466.406 1.002.559 1.592H5.419c.153-.59.342-1.126.56-1.592C6.592 1.59 7.342 1 8 1ZM5.072 2.485A10.502 10.502 0 0 0 4.389 4.5H1.936a7.022 7.022 0 0 1 3.778-3.118c-.241.33-.456.704-.642 1.103ZM4.192 5.5A15.97 15.97 0 0 0 4 8c0 .87.067 1.712.193 2.5H1.46A6.984 6.984 0 0 1 1 8c0-.88.163-1.724.46-2.5h2.733Zm.197 6c.176.743.407 1.422.683 2.015.186.399.401.773.642 1.103A7.022 7.022 0 0 1 1.936 11.5H4.39Zm1.03 0h5.162a9.248 9.248 0 0 1-.56 1.592C9.408 14.41 8.658 15 8 15c-.657 0-1.407-.59-2.022-1.908A9.254 9.254 0 0 1 5.42 11.5Zm5.375-1H5.206A14.87 14.87 0 0 1 5 8c0-.883.073-1.725.206-2.5h5.588c.133.775.206 1.617.206 2.5s-.073 1.725-.206 2.5Zm.817 1h2.452a7.022 7.022 0 0 1-3.777 3.118c.241-.33.456-.704.642-1.103.276-.593.507-1.272.683-2.015Zm2.93-1h-2.734C11.933 9.712 12 8.87 12 8c0-.87-.067-1.712-.193-2.5h2.733c.297.776.46 1.62.46 2.5 0 .88-.163 1.724-.46 2.5Zm-4.255-9.118A7.021 7.021 0 0 1 14.063 4.5h-2.452a10.504 10.504 0 0 0-.683-2.015 6.635 6.635 0 0 0-.642-1.103Z" fill="#707078"/></svg>