<svg width="16" height="16" fill="none" xmlns="http://www.w3.org/2000/svg"><path fill-rule="evenodd" clip-rule="evenodd" d="M8 16a7.68 7.68 0 0 0 3.095-.63 8.195 8.195 0 0 0 4.28-4.28A7.692 7.692 0 0 0 16 8a7.693 7.693 0 0 0-.626-3.09 8.163 8.163 0 0 0-1.732-2.552A8.15 8.15 0 0 0 11.086.626 7.722 7.722 0 0 0 7.992 0a7.681 7.681 0 0 0-3.078.626 8.15 8.15 0 0 0-2.556 1.732A8.163 8.163 0 0 0 .626 4.909 7.693 7.693 0 0 0 0 8c0 1.097.21 2.128.63 3.09a8.207 8.207 0 0 0 4.284 4.28A7.66 7.66 0 0 0 8 16Zm-.008-6.7a2.528 2.528 0 0 1-1.366-.399 2.82 2.82 0 0 1-.968-1.053A3.109 3.109 0 0 1 5.3 6.346c0-.533.118-1.018.354-1.457.236-.44.56-.79.972-1.054a2.483 2.483 0 0 1 1.366-.395c.5 0 .952.132 1.358.395.406.264.73.615.971 1.054.241.439.362.924.362 1.457 0 .56-.12 1.063-.358 1.51a2.804 2.804 0 0 1-.967 1.062c-.406.26-.861.388-1.366.382Zm0 5.44a6.949 6.949 0 0 1-3.403-.914 5.965 5.965 0 0 1-1.38-1.077c.292-.444.679-.824 1.161-1.14a5.745 5.745 0 0 1 1.646-.724 7.49 7.49 0 0 1 1.976-.251c.697 0 1.352.082 1.967.247a5.664 5.664 0 0 1 1.646.72c.483.315.87.698 1.16 1.148a5.805 5.805 0 0 1-1.37 1.078 6.95 6.95 0 0 1-3.403.914Z" fill="#707078"/></svg>