<svg width="16" height="16" fill="none" xmlns="http://www.w3.org/2000/svg"><path fill-rule="evenodd" clip-rule="evenodd" d="M8.006 0c1.08 0 2.114.212 3.1.636a8.063 8.063 0 0 1 2.55 1.707 8.08 8.08 0 0 1 1.708 2.55c.424.987.636 2.025.636 3.113a7.83 7.83 0 0 1-1.071 4.01 7.922 7.922 0 0 1-2.912 2.912A7.832 7.832 0 0 1 8.007 16a7.866 7.866 0 0 1-4.017-1.072 7.905 7.905 0 0 1-2.92-2.911A7.834 7.834 0 0 1 0 8.007c0-1.09.212-2.127.636-3.113a8.056 8.056 0 0 1 1.707-2.55A8.059 8.059 0 0 1 4.893.635 7.797 7.797 0 0 1 8.007 0s-1.089 0 0 0Zm.322 1.258c-.134.108-.297.201-.489.281a3 3 0 0 1-.462.161 18.365 18.365 0 0 1-1.11.187c-.135.028-.338.025-.61-.006-.273-.032-.476-.02-.61.034-.187.062-.42.18-.695.354-.277.175-.429.328-.456.462-.026.099.002.199.087.302.085.102.123.185.114.247-.027.303-.15.708-.368 1.212-.22.504-.35.86-.395 1.064-.072.295-.047.708.073 1.239.12.531.154.922.1 1.172 0 .08.076.276.228.589.152.312.223.58.214.803.108 0 .21.025.309.074.098.049.2.115.307.2a1.6 1.6 0 0 0 .269.18c.213.108.695.295 1.445.564.197.071.433.212.71.42.277.211.543.383.797.517.254.133.51.183.77.147.07.16.004.406-.201.736-.205.33-.295.585-.268.764.375.633.763.99 1.165 1.07a.719.719 0 0 1-.04.208c-.027.085-.042.15-.047.194a.56.56 0 0 0 .06.228c.91.018 1.897-.482 2.96-1.5.267-.258.477-.469.629-.629.152-.16.305-.38.461-.656.156-.277.248-.553.275-.83a.939.939 0 0 0-.495-.127c-.206-.005-.367-.038-.482-.101-.126-.062-.344-.129-.657-.2-.312-.072-.544-.157-.696-.255l-.529.006c-.272.005-.48.012-.623.02-.142.01-.316.039-.522.088a1.55 1.55 0 0 0-.522.22c-.446.313-.74.367-.884.162-.035-.018-.051-.132-.046-.342l.006-.341c-.053-.116-.172-.192-.355-.228-.183-.036-.292-.067-.328-.094.018-.196.01-.38-.026-.549a.588.588 0 0 0-.221-.374c-.112-.08-.284.008-.516.267-.205.223-.393.206-.562-.054a.814.814 0 0 1-.107-.776.482.482 0 0 1 .294-.294c.054.008.17.015.348.02.179.004.329.022.449.053a.407.407 0 0 1 .261.18c.107.17.25.338.428.503.18.165.33.288.456.368l.188.107c0-.026.042-.203.127-.528.084-.326.109-.583.073-.77-.036-.206.029-.404.194-.597.165-.191.266-.332.301-.421.045-.125.09-.282.134-.469.045-.187.083-.325.115-.415.03-.09.1-.19.207-.3a1.31 1.31 0 0 1 .455-.29c-.054-.16-.009-.324.134-.494.071 0 .177.007.314.02.14.013.249.02.329.02a.77.77 0 0 0 .274-.06.675.675 0 0 0 .274-.208 1.743 1.743 0 0 0-.408-.569 2.986 2.986 0 0 0-.509-.402 11.322 11.322 0 0 0-.656-.355c-.28-.142-.475-.245-.582-.307.098-.366.102-.563.013-.59.277.116.538.181.783.194.246.014.422-.002.53-.046l.147-.054c.054-.32-.023-.56-.228-.716-.205-.156-.491-.284-.857-.381-.366-.099-.616-.201-.75-.309-.17.027-.335.027-.495 0 0 0 .16.027 0 0ZM8.14 2.691c0 .16.036.35.107.57.072.218.146.414.221.588.076.174.119.28.128.315a5.555 5.555 0 0 0-.415-.067l-.482-.067a2.47 2.47 0 0 1-.428-.107 1.673 1.673 0 0 1-.403-.188c.027-.107.099-.24.215-.401.116-.161.188-.273.214-.335.09.09.172.134.248.134a.242.242 0 0 0 .187-.08 4.35 4.35 0 0 1 .194-.195c.08s-.075.152-.132.214-.167Z" fill="#707078"/></svg>