<svg xmlns="http://www.w3.org/2000/svg" width="24" height="24" viewBox="0 0 24 24">
    <g fill="none" fill-rule="evenodd">
        <g>
            <path fill="#FF6A58" d="M12 .114C5.44.114.114 5.44.114 12 .114 18.56 5.44 23.886 12 23.886c6.56 0 11.886-5.325 11.886-11.886C23.886 5.44 18.56.114 12 .114z"/>
            <path fill="#FFF" fill-rule="nonzero" d="M15.257 7.546L12 10.802 8.743 7.546c-.33-.33-.866-.33-1.197 0l-.034.036c-.296.333-.285.843.034 1.161L10.802 12l-3.256 3.257c-.33.33-.33.866 0 1.197l.036.034c.333.296.843.285 1.161-.034L12 13.197l3.257 3.257c.33.33.866.33 1.197 0l.034-.036c.296-.333.285-.843-.034-1.161L13.197 12l3.257-3.257c.33-.33.33-.866 0-1.197-.33-.33-.867-.33-1.197 0z"/>
        </g>
    </g>
</svg>
