<svg xmlns="http://www.w3.org/2000/svg" width="24" height="24" viewBox="0 0 24 24">
    <g fill="none" fill-rule="evenodd">
        <g>
            <g transform="translate(-296 -198) translate(296 198)">
                <ellipse cx="11.937" cy="11.899" fill="#1D9D58" rx="11.937" ry="11.899"/>
                <path fill="#FFF" fill-rule="nonzero" d="M7.174 10.986c.252-.24.636-.256.905-.053l.085.075 2.894 3.03c.267.28.257.723-.022.99-.252.24-.636.256-.905.053l-.085-.076-2.895-3.03c-.267-.279-.257-.722.023-.99z"/>
                <path fill="#FFF" fill-rule="nonzero" d="M16.111 7.744c.268-.28.711-.288.99-.02.25.24.283.624.092.901l-.072.089-6.038 6.283c-.268.278-.711.287-.99.02-.251-.242-.283-.625-.092-.902l.072-.088 6.038-6.283z"/>
            </g>
        </g>
    </g>
</svg>
