<svg xmlns="http://www.w3.org/2000/svg" width="24" height="25" fill="none"><path fill="#fff" d="M12 3.473c2.94 0 3.287.013 4.443.065 1.074.047 1.654.227 2.041.378.511.197.88.438 1.263.82.387.387.623.752.821 1.264.15.386.33.97.378 2.04.052 1.16.064 1.509.064 4.444 0 2.939-.012 3.287-.064 4.443-.047 1.074-.228 1.654-.378 2.04-.198.512-.438.881-.82 1.264a3.4 3.4 0 0 1-1.264.82c-.387.151-.971.331-2.041.379-1.16.051-1.508.064-4.443.064-2.94 0-3.287-.013-4.443-.064-1.074-.048-1.654-.228-2.041-.378a3.4 3.4 0 0 1-1.263-.821 3.4 3.4 0 0 1-.821-1.263c-.15-.387-.33-.971-.378-2.041-.052-1.16-.065-1.509-.065-4.443 0-2.94.013-3.288.065-4.443.047-1.075.228-1.655.378-2.041.198-.512.438-.881.82-1.264a3.4 3.4 0 0 1 1.264-.82c.387-.15.971-.331 2.041-.378 1.156-.052 1.504-.065 4.443-.065m0-1.98c-2.986 0-3.36.012-4.533.064-1.169.051-1.972.24-2.669.511a5.4 5.4 0 0 0-1.95 1.272 5.4 5.4 0 0 0-1.272 1.946c-.27.7-.46 1.5-.512 2.669C1.013 9.132 1 9.505 1 12.492s.013 3.36.064 4.533c.052 1.17.241 1.973.512 2.669.283.726.657 1.34 1.272 1.95.61.61 1.224.989 1.946 1.268.7.27 1.5.46 2.669.511 1.173.052 1.546.065 4.533.065s3.36-.013 4.533-.065c1.169-.051 1.972-.24 2.668-.51a5.4 5.4 0 0 0 1.947-1.268c.61-.61.988-1.225 1.267-1.947.271-.7.46-1.5.512-2.668.051-1.173.064-1.547.064-4.534s-.013-3.36-.064-4.533c-.052-1.168-.241-1.972-.512-2.668a5.15 5.15 0 0 0-1.259-1.955 5.4 5.4 0 0 0-1.946-1.268c-.7-.27-1.5-.46-2.668-.511-1.178-.056-1.552-.069-4.538-.069"/><path fill="#fff" d="M12 6.842c-3.12 0-5.65 2.53-5.65 5.65s2.53 5.65 5.65 5.65 5.65-2.53 5.65-5.65-2.53-5.65-5.65-5.65m0 9.315a3.666 3.666 0 1 1 .001-7.331A3.666 3.666 0 0 1 12 16.157M19.193 6.618a1.32 1.32 0 1 1-2.639 0 1.32 1.32 0 0 1 2.639 0"/></svg>