<svg xmlns="http://www.w3.org/2000/svg" width="24" height="25" fill="none"><g clip-path="url(#a)"><path fill="#fff" d="M21.376 1.492H2.624A1.624 1.624 0 0 0 1 3.116v18.752a1.624 1.624 0 0 0 1.624 1.624h18.752A1.624 1.624 0 0 0 23 21.868V3.116a1.624 1.624 0 0 0-1.624-1.624M7.557 20.233H4.25V9.727h3.307zM5.901 8.271a1.899 1.899 0 1 1 1.91-1.898A1.87 1.87 0 0 1 5.9 8.271M19.75 20.243h-3.306v-5.74c0-1.693-.72-2.216-1.649-2.216-.98 0-1.943.74-1.943 2.258v5.698H9.543V9.735h3.181v1.456h.043c.32-.647 1.438-1.751 3.144-1.751 1.846 0 3.84 1.095 3.84 4.303z"/></g><defs><clipPath id="a"><path fill="#fff" d="M0 .492h24v24H0z"/></clipPath></defs></svg>