<svg xmlns="http://www.w3.org/2000/svg" width="44" height="24" fill="none"><path fill="#47474F" d="M28.438 14.635v-.717h-1.413c.096-.22.389-.463.777-.827.495-.463.63-.683.63-1.268 0-.612-.265-1.092-1.232-1.092q-1.284 0-1.283 1.175v.127h.878c0-.298 0-.717.36-.717.27 0 .332.204.332.512 0 .293-.012.453-.692 1.048-.332.293-.9.838-.9 1.76zm2.063 0c.04-.866.467-2.228 1.08-3.137v-.69h-2.537v.784h1.632c-.574.733-1.097 2.144-1.153 3.043zm2.986.077c1.188 0 1.306-.871 1.312-1.99 0-1.257-.118-1.99-1.312-1.99-1.187 0-1.305.87-1.31 1.99 0 1.256.117 1.99 1.31 1.99m0-.585c-.31 0-.362-.277-.365-1.285v-.115c0-1.113.045-1.411.366-1.411s.366.297.366 1.411c0 1.103-.046 1.4-.367 1.4m3.16.585c1.189 0 1.306-.871 1.312-1.99 0-1.257-.118-1.99-1.311-1.99-1.188 0-1.306.87-1.311 1.99 0 1.256.118 1.99 1.31 1.99m0-.585c-.309 0-.361-.277-.364-1.285v-.115c0-1.113.044-1.411.365-1.411.31 0 .363.277.366 1.299v.112c0 1.103-.045 1.4-.366 1.4m3.752.507v-3.903h-.663c-.045.249-.215.612-.93.612h-.117v.585h.765v2.706zM13.713 4.03a5 5 0 0 0-.97-.01c-.12-.011-.262 0-.403.01a8.53 8.53 0 0 0-6.532 3.878c.11-.011.24.032.349-.011q.404-.567.883-1.075c.284-.272.545-.533.85-.728l.873.51c-.338.424-.687.848-.938 1.304.076.032.218.021.327 0 .273-.402.567-.804.916-1.162l1.407.489.044.043-.273.63c.12.022.196.011.316 0l.284-.575c.633.14 1.298.217 1.974.239.087.076.022.239.054.336h.295c.033-.108-.011-.228.033-.325.632-.033 1.297-.098 1.908-.25l.054.01.295.565c.098 0 .229.022.306-.021l-.273-.63.022-.022c.501-.13.97-.326 1.45-.521.338.358.654.782.938 1.194.12 0 .24.011.328-.021a4.2 4.2 0 0 0-.47-.685 5 5 0 0 0-.48-.586V6.56l.764-.446.11-.043a8 8 0 0 1 1.722 1.814c.13 0 .24.043.349-.011-1.463-2.216-3.873-3.639-6.479-3.845l-.01.022zm1.123.49v.02c-.948.696-2.486.761-3.489.12-.054-.043-.163-.065-.174-.14 1.156-.272 2.518-.294 3.663 0m2.999 1.324-.022.044-.753.424h-.054a9.5 9.5 0 0 0-1.941-1.5c.022-.075.13-.13.207-.184.916.24 1.778.651 2.563 1.216m-6.87-1.032a11 11 0 0 0-1.951 1.532 3.6 3.6 0 0 1-.829-.456v-.022c.687-.51 1.45-.89 2.257-1.151.033-.033.055-.065.099-.065v.021c.087.022.152-.076.229-.01.065.054.14.097.195.151m5.725 1.64-.022.033c-.425.185-.861.359-1.33.456a18 18 0 0 0-1.124-1.705c.153-.087.338-.152.502-.24a7.7 7.7 0 0 1 1.974 1.456m-4.907-1.238-.033.087c-.414.52-.742 1.086-1.068 1.64l-.044.01a9 9 0 0 1-1.298-.445l.022-.065a8.6 8.6 0 0 1 1.93-1.423c.164.065.327.12.49.196m1.058.206c.032.565.01 1.217.01 1.814-.305.044-.577-.01-.883-.032-.294-.044-.665-.076-.96-.174a9.7 9.7 0 0 1 1.135-1.705zm1.024-.087c.425.543.84 1.098 1.123 1.695a7.7 7.7 0 0 1-1.799.217 33 33 0 0 1 0-1.814zM9.013 9.255c-.709.521-.927 1.455-.742 2.28.142.783.884 1.358 1.592 1.63.971.347 1.985.597 2.967.934.098.044.229.141.207.26 0 .099-.099.153-.175.196-1.024.282-2.137.065-2.878-.717-.088-.108-.142-.239-.23-.347l-1.471.01c-.022.88-.033 1.89 0 2.76l1.636-.011.021-.522c.186.087.371.196.556.294 1.134.477 2.595.586 3.718 0 .818-.456 1.254-1.336 1.134-2.281-.12-.923-.992-1.76-1.875-1.988l-2.638-.771-.197-.098c-.087-.075-.141-.174-.12-.293.208-.359.688-.25 1.047-.24.764.11 1.549.37 1.996 1.076.48 0 1.036.011 1.56-.01.02-.891-.012-1.673-.023-2.575a26 26 0 0 0-1.58.011c-.023.13.02.315-.034.445l-.501-.271c-1.2-.511-2.88-.566-3.97.228m13.215.119c-1.417-.913-3.576-.978-5.037-.152-.796.412-1.32 1.227-1.483 2.064-.294 1.379-.218 3.02.829 4.051 1.221 1.087 2.998 1.325 4.58.88a2 2 0 0 0 .476-.164l.047-.02c.517-.216.967-.56 1.308-1 .807-1.194.861-2.986.37-4.333-.196-.522-.599-.989-1.09-1.325zm-1.603 1.564c.164.25.153.575.186.868-.011.62.043 1.358-.066 1.988-.055.26-.229.532-.502.63-.436.196-1.024.141-1.428-.086-.338-.24-.381-.641-.425-1.021-.033-.75-.088-1.543.12-2.227.163-.424.61-.532 1.014-.565.425 0 .84.065 1.101.413M3.703 8.722l-.676.01c-.01.577-.01 1.25 0 1.836.37.011.72 0 1.08.033v3.692l-.011.152-1.08.022a25 25 0 0 0 0 1.792h4.809v-1.792c-.36-.022-.764.01-1.112-.033l.01-3.812.022-.033 1.08-.01c.01-.62.022-1.282-.011-1.847l-4.11-.011zm6.914 8.342c-.11 0-.23-.022-.306.01l.273.641-.033.033c-.49.14-.97.315-1.44.51l-.043-.021a9 9 0 0 1-.84-1.075c-.054-.185-.273-.076-.392-.098.262.477.61.901.96 1.336-.295.174-.59.37-.895.51a7.9 7.9 0 0 1-1.722-1.835c-.131-.021-.218-.01-.349 0a8.6 8.6 0 0 0 3.282 2.965s0-.01.01-.01c.012 0 .034.021.012.032a8.9 8.9 0 0 0 2.747.858c3.348.446 6.542-.999 8.396-3.844a2 2 0 0 0-.349 0 8.5 8.5 0 0 1-1.668 1.803c-.021.032-.087.021-.109-.011-.273-.174-.567-.315-.828-.489.348-.424.687-.847.948-1.314h-.338c-.273.402-.556.825-.916 1.184-.48-.196-.916-.37-1.407-.5l-.054-.044c.076-.217.218-.423.261-.64h-.294l-.295.586a14 14 0 0 0-2.006-.26c-.033-.099.01-.24-.033-.327h-.284c-.021.13.033.228-.032.337q-.991.044-1.963.24l-.295-.577zm2.29 2.498c-.23.054-.48.054-.698.109a9.7 9.7 0 0 1-1.134-1.705l.054-.044c.567-.108 1.156-.195 1.767-.195zm2.148-1.618.01.032a11 11 0 0 1-1.1 1.684c-.186.022-.361-.055-.546-.066l-.186-.021a21 21 0 0 1 0-1.846c.622.01 1.243.076 1.822.217m-4.308.097c.317.598.71 1.162 1.101 1.727-.152.087-.337.142-.49.229a7.4 7.4 0 0 1-1.985-1.455v-.033a7.2 7.2 0 0 1 1.33-.478zm5.997.456c-.348.402-.796.75-1.21 1.043-.251.152-.502.315-.764.445l-.469-.206.033-.076q.586-.787 1.047-1.65l.033-.023c.468.11.916.261 1.33.467m1.167.62c-.61.488-1.32.814-2.039 1.085l-.513.164c-.087-.044-.163-.11-.24-.174l.022-.033a9.8 9.8 0 0 0 1.93-1.51c.295.12.578.282.84.467m-6.913 1.075a.9.9 0 0 1-.218.174 7.7 7.7 0 0 1-2.552-1.217v-.033c.262-.163.524-.336.807-.456.621.619 1.265 1.086 1.963 1.532m3.904.25c.032.065-.055.043-.077.065-1.156.25-2.443.26-3.598-.022-.022-.054.054-.065.087-.097 1.014-.663 2.595-.663 3.588.054"/></svg>