<svg xmlns="http://www.w3.org/2000/svg" width="33" height="24" fill="none"><path fill="#47474F" d="M0 14.055h3.03v-3.012H0zm6.08 0h3.03v-3.012H6.08zM6.08 8.012h3.03V5H6.08zm-3.03 3.031h3.03V8.031H3.05zM2.148 19.022v-.751c-.913.114-1.217.351-1.217.689 0 .295.203.424.485.424.274 0 .482-.133.732-.362M.169 19.02c0-.716.598-1.09 1.98-1.236-.012-.36-.157-.659-.612-.659-.334 0-.65.15-.945.33L.3 16.931c.37-.231.847-.439 1.381-.439.841 0 1.255.515 1.255 1.446v1.979H2.29l-.06-.37h-.022c-.302.255-.647.452-1.045.452-.589 0-.995-.398-.995-.98M3.55 19.534l.368-.498c.299.231.588.373.929.373.367 0 .54-.171.54-.4 0-.28-.365-.406-.723-.542-.442-.165-.946-.416-.946-.974 0-.58.471-1 1.225-1 .469 0 .844.19 1.118.4l-.361.482c-.236-.171-.473-.291-.737-.291-.339 0-.499.16-.499.37 0 .264.34.365.704.498.455.17.965.387.965 1.01 0 .575-.458 1.038-1.307 1.038a2.1 2.1 0 0 1-1.275-.466M6.504 19.534l.367-.498c.299.231.588.373.929.373.367 0 .54-.171.54-.4 0-.28-.365-.406-.723-.542-.442-.165-.946-.416-.946-.974 0-.58.472-1 1.225-1 .469 0 .844.19 1.118.4l-.361.482c-.236-.171-.473-.291-.737-.291-.339 0-.499.16-.499.37 0 .264.34.365.704.498.455.17.965.387.965 1.01 0 .575-.458 1.038-1.307 1.038a2.1 2.1 0 0 1-1.275-.466M11.959 18.249c0-.67-.296-1.117-.79-1.117-.492 0-.789.447-.789 1.117s.297 1.11.79 1.11.789-.44.789-1.11m-2.39 0c0-1.114.762-1.756 1.6-1.756.84 0 1.601.642 1.601 1.756 0 1.108-.762 1.75-1.6 1.75s-1.6-.642-1.6-1.75m3.762 0c0-1.114.792-1.756 1.688-1.756.427 0 .74.163.983.376l-.383.509c-.179-.155-.348-.246-.56-.246-.542 0-.917.447-.917 1.117s.37 1.11.893 1.11c.263 0 .504-.127.696-.288l.32.518a1.67 1.67 0 0 1-1.098.41c-.918 0-1.622-.642-1.622-1.75M16.718 19.918h.789v-3.343h-.79zm-.09-4.372c0-.265.207-.444.487-.444s.488.18.488.444c0 .258-.208.443-.488.443s-.488-.185-.488-.443M20.31 19.022v-.751c-.912.114-1.216.351-1.216.689 0 .295.203.424.485.424.274 0 .482-.133.732-.362m-1.977-.002c0-.716.597-1.09 1.978-1.236-.01-.36-.156-.659-.61-.659-.335 0-.65.15-.946.33l-.29-.523c.37-.232.846-.439 1.38-.439.842 0 1.256.515 1.256 1.446v1.979h-.647l-.06-.37h-.022c-.301.255-.647.452-1.044.452-.59 0-.995-.397-.995-.98m3.723-.229V17.2h-.48v-.59l.521-.035.093-.912h.655v.912h.858v.624h-.858v1.591c0 .393.154.587.477.587.115 0 .252-.038.35-.076l.134.577a2.2 2.2 0 0 1-.687.123c-.776 0-1.063-.488-1.063-1.209M24.411 19.918h.79v-3.343h-.79zm-.09-4.372c0-.265.208-.444.487-.444.28 0 .488.18.488.444 0 .258-.208.443-.488.443s-.487-.185-.487-.443M28.374 18.249c0-.67-.296-1.117-.79-1.117-.492 0-.789.447-.789 1.117s.296 1.11.79 1.11c.493 0 .789-.44.789-1.11m-2.39 0c0-1.114.762-1.757 1.6-1.757s1.601.643 1.601 1.757c0 1.108-.762 1.75-1.6 1.75s-1.6-.642-1.6-1.75m3.984-1.674h.647l.06.452h.022c.301-.292.644-.534 1.104-.534.721 0 1.036.485 1.036 1.329v2.096h-.79v-1.995c0-.55-.158-.757-.523-.757-.296 0-.49.144-.767.416v2.336h-.79zm-15.51-7.221c1.102 0 1.623-.488 1.623-1.405 0-.922-.593-1.253-1.678-1.253h-.923v2.658zm-2.982-4.238h3.046c1.951 0 3.524.693 3.524 2.833 0 2.07-1.59 2.986-3.47 2.986h-1.095v2.988h-2.005zM21.56 12.32c1.503 0 2.52-.732 2.52-2.838 0-2.107-1.017-2.763-2.52-2.763h-.38v5.601zm-2.385-7.205h2.506c2.708 0 4.452 1.339 4.452 4.366s-1.744 4.442-4.34 4.442h-2.618zM27.405 5.116H33v1.67h-3.59v2.042h3.067v1.67h-3.068v3.426h-2.004z"/></svg>