<svg xmlns="http://www.w3.org/2000/svg" width="45" height="24" fill="none"><path fill="#47474F" d="M17.165 11.35a4 4 0 0 1-.519-.227 1.5 1.5 0 0 1-.39-.294 1.2 1.2 0 0 1-.251-.409 1.6 1.6 0 0 1-.086-.572 1.6 1.6 0 0 1 .15-.715c.094-.202.238-.38.42-.52.191-.146.413-.254.65-.318q.421-.112.859-.108.409-.003.812.07.405.081.794.21a2.7 2.7 0 0 1-.271.907l-.26-.095a2 2 0 0 0-.28-.08 3 3 0 0 0-.336-.05 4 4 0 0 0-.425-.02q-.148 0-.294.023a.9.9 0 0 0-.267.088.5.5 0 0 0-.196.186c-.054.1-.08.21-.074.322a.53.53 0 0 0 .06.266.6.6 0 0 0 .16.183q.105.075.229.123c.085.034.17.07.254.099l.51.183q.324.12.587.245.254.12.448.315.189.2.28.454c.075.212.11.435.105.659.003.253-.05.505-.158.738-.103.22-.258.416-.454.572a2.2 2.2 0 0 1-.735.373 3.4 3.4 0 0 1-1.008.132 7 7 0 0 1-.501-.016 4 4 0 0 1-.816-.143 5 5 0 0 1-.408-.135 3 3 0 0 1 .094-.48q.068-.252.161-.505.328.126.672.203.333.07.673.07.535 0 .84-.187.306-.186.307-.567a.64.64 0 0 0-.075-.319.7.7 0 0 0-.186-.214 1.2 1.2 0 0 0-.26-.147 8 8 0 0 0-.298-.115zM20.725 8.284h3.468q.05.24.05.484.001.252-.05.5h-2.224v1.24h1.768q.05.244.05.492 0 .252-.05.5h-1.768v1.51h2.286q.051.24.051.484 0 .253-.05.5h-3.53zM29.275 12.915a3 3 0 0 1 .29.929 4.3 4.3 0 0 1-.798.198 6 6 0 0 1-.76.048 3.4 3.4 0 0 1-1.27-.219 2.5 2.5 0 0 1-.914-.611 2.6 2.6 0 0 1-.556-.933 3.6 3.6 0 0 1-.188-1.176c-.002-.401.067-.8.202-1.18a2.7 2.7 0 0 1 .565-.942c.25-.267.56-.478.91-.619.388-.154.806-.23 1.228-.223q.378 0 .752.048.384.06.743.2a1.7 1.7 0 0 1-.101.464q-.086.228-.188.457a4 4 0 0 0-.527-.135 3 3 0 0 0-.544-.04q-.815 0-1.253.496t-.438 1.474q0 1.938 1.76 1.938.277.003.552-.04.273-.048.535-.134M30.457 8.284q.156-.024.313-.032a7 7 0 0 1 .614 0q.153.01.314.032v2.962q-.003.416.038.83.025.297.153.572a.73.73 0 0 0 .323.334c.167.078.353.114.54.107.185.008.37-.03.535-.107a.74.74 0 0 0 .319-.334q.125-.275.15-.572.04-.414.038-.83V8.284a4 4 0 0 1 .622-.04c.098 0 .205 0 .31.008q.16.008.319.032v3.211q.005.534-.102 1.059a2 2 0 0 1-.365.821 1.7 1.7 0 0 1-.705.529q-.442.186-1.12.186-.68 0-1.121-.186a1.7 1.7 0 0 1-.706-.529 2 2 0 0 1-.366-.821 5 5 0 0 1-.102-1.06zM36.252 8.284q.374-.04.701-.07.328-.027.727-.028.466 0 .922.08c.29.047.568.141.822.279.242.134.446.322.59.548q.225.345.225.878.004.285-.085.558-.077.227-.217.425-.122.173-.285.314-.135.116-.289.21l-.144.087 1.487 2.414-.357.032a4.204 4.204 0 0 1-1.02-.032l-1.598-2.646.204-.095q.12-.056.29-.14a1.8 1.8 0 0 0 .328-.22q.163-.136.267-.318a.84.84 0 0 0 .106-.442q0-.5-.306-.735a1.26 1.26 0 0 0-.79-.233q-.171-.001-.34.023v4.822q-.153.016-.306.027a4 4 0 0 1-.298.012c-.098 0-.2 0-.307-.008q-.161-.01-.331-.031zM41.386 8.284h3.467q.051.24.051.484 0 .252-.05.5h-2.227v1.24h1.767q.05.244.051.492 0 .252-.051.5h-1.767v1.51h2.285q.052.24.051.484.001.253-.05.5h-3.527zM16.352 16.93a2 2 0 0 1-.237-.104.7.7 0 0 1-.178-.134.6.6 0 0 1-.115-.187.8.8 0 0 1-.04-.261.75.75 0 0 1 .068-.328.65.65 0 0 1 .191-.237.9.9 0 0 1 .3-.146q.192-.05.391-.049.189 0 .374.033.185.036.364.094a1.2 1.2 0 0 1-.125.414l-.119-.043a1 1 0 0 0-.128-.037 1.6 1.6 0 0 0-.481-.021.4.4 0 0 0-.123.04.24.24 0 0 0-.09.085.3.3 0 0 0-.035.147.24.24 0 0 0 .101.205.5.5 0 0 0 .106.058q.055.024.116.046l.233.084q.148.055.268.112a.7.7 0 0 1 .204.144q.089.091.131.21a.9.9 0 0 1 .046.3q0 .174-.074.337a.7.7 0 0 1-.209.261 1 1 0 0 1-.336.171 1.6 1.6 0 0 1-.46.062q-.128.002-.23-.007a2 2 0 0 1-.373-.066 2 2 0 0 1-.186-.062 1.4 1.4 0 0 1 .043-.22 3 3 0 0 1 .074-.23q.15.059.307.093.155.03.311.026a.74.74 0 0 0 .385-.085.28.28 0 0 0 .14-.26.3.3 0 0 0-.033-.145.3.3 0 0 0-.085-.098.5.5 0 0 0-.12-.07l-.135-.053zM18.393 16.93a2 2 0 0 1-.233-.104.7.7 0 0 1-.179-.134.5.5 0 0 1-.114-.187.7.7 0 0 1-.041-.261.75.75 0 0 1 .068-.328.66.66 0 0 1 .192-.237.9.9 0 0 1 .3-.146q.192-.05.392-.049.189 0 .374.033.184.036.363.094a1.2 1.2 0 0 1-.124.414l-.12-.043a1 1 0 0 0-.128-.037 1.6 1.6 0 0 0-.481-.021.4.4 0 0 0-.123.04.24.24 0 0 0-.09.085.3.3 0 0 0-.034.147.25.25 0 0 0 .027.122.3.3 0 0 0 .075.083.5.5 0 0 0 .104.058c.04.016.075.031.117.046l.234.084q.146.055.268.112a.7.7 0 0 1 .204.144.6.6 0 0 1 .13.21.8.8 0 0 1 .047.3q0 .174-.075.337a.7.7 0 0 1-.208.261q-.15.116-.336.171-.226.066-.46.062-.128.002-.23-.007a2 2 0 0 1-.373-.066 2 2 0 0 1-.187-.062q.015-.11.043-.22.032-.114.075-.23.15.058.307.093.151.03.307.03a.73.73 0 0 0 .384-.085.28.28 0 0 0 .14-.26.29.29 0 0 0-.118-.243.5.5 0 0 0-.119-.07l-.136-.052zM20.022 15.528a1.8 1.8 0 0 1 .559 0v2.154h.971a1 1 0 0 1 .016.118v.221a1 1 0 0 1-.016.119h-1.53zM22.79 15.528h1.586a1.05 1.05 0 0 1 0 .45H23.36v.566h.808a1.15 1.15 0 0 1 0 .455h-.808v.69h1.046a1.04 1.04 0 0 1 0 .45H22.79zM24.856 15.528a1.3 1.3 0 0 1 .47 0l1.08 1.664v-1.664q.134-.021.269-.022.117 0 .233.022v2.611a1.4 1.4 0 0 1-.224.022q-.12-.001-.237-.022l-1.088-1.66v1.66a1.5 1.5 0 0 1-.502 0zM29.298 17.645a1.4 1.4 0 0 1 .133.426 2 2 0 0 1-.712.113 1.6 1.6 0 0 1-.58-.1 1.15 1.15 0 0 1-.671-.706 1.6 1.6 0 0 1-.086-.538 1.6 1.6 0 0 1 .09-.54 1.165 1.165 0 0 1 .675-.714c.176-.07.368-.104.56-.1q.173-.001.344.02.177.029.34.092a.8.8 0 0 1-.046.21q-.04.105-.085.21a1.438 1.438 0 0 0-.49-.08q-.374 0-.573.227-.2.226-.2.673 0 .886.804.886a1.5 1.5 0 0 0 .497-.079M29.881 15.528q.174-.019.32-.032c.097-.009.212-.012.333-.012q.213 0 .422.036.199.034.374.13c.11.06.203.147.27.25a.7.7 0 0 1 .102.401.8.8 0 0 1-.038.257.8.8 0 0 1-.23.337 1 1 0 0 1-.132.096l-.066.04.68 1.105-.163.014a2 2 0 0 1-.466-.014l-.727-1.213.093-.044q.055-.026.132-.066a1 1 0 0 0 .15-.1q.074-.062.121-.145a.46.46 0 0 0-.088-.538.58.58 0 0 0-.362-.106q-.078 0-.155.01v2.205l-.14.013a2 2 0 0 1-.137.005q-.066.001-.14-.004t-.149-.014zM32.789 17.206l-.872-1.676q.163-.021.327-.022.15 0 .299.022l.552 1.187.544-1.187a2 2 0 0 1 .593 0l-.87 1.676v.937q-.075.01-.15.015h-.277c-.048 0-.096-.008-.15-.015zM34.541 15.517q.18-.015.362-.024t.37-.01q.197.001.393.037.195.035.362.136a.8.8 0 0 1 .263.28.93.93 0 0 1 .1.461.9.9 0 0 1-.1.46.8.8 0 0 1-.261.279 1 1 0 0 1-.356.14 2 2 0 0 1-.387.036h-.095q-.045.001-.083-.005v.838a2 2 0 0 1-.145.014c-.046 0-.091.004-.135.004q-.064.001-.136-.005-.075-.004-.15-.013zm.568 1.344a1 1 0 0 0 .087.007h.1a.8.8 0 0 0 .19-.023.5.5 0 0 0 .165-.079.4.4 0 0 0 .114-.143.5.5 0 0 0 .043-.22.54.54 0 0 0-.043-.227.4.4 0 0 0-.28-.228.8.8 0 0 0-.19-.024h-.08l-.106.009zM37.351 15.978h-.695a1.1 1.1 0 0 1 0-.45h1.962q.024.11.023.221 0 .116-.023.23h-.695v2.163q-.07.008-.14.013a2 2 0 0 1-.137.006q-.065.001-.142-.005c-.05-.004-.101-.006-.153-.014zM39.01 15.528a1.9 1.9 0 0 1 .572 0v2.611a1.9 1.9 0 0 1-.572 0zM41.265 18.183a1.3 1.3 0 0 1-.544-.102 1 1 0 0 1-.373-.28 1.2 1.2 0 0 1-.22-.424 1.946 1.946 0 0 1 0-1.075 1.2 1.2 0 0 1 .22-.43 1 1 0 0 1 .373-.284c.348-.136.74-.136 1.088 0a1 1 0 0 1 .373.283 1.2 1.2 0 0 1 .22.43 1.95 1.95 0 0 1 0 1.076 1.2 1.2 0 0 1-.22.425c-.099.12-.227.215-.373.28-.171.07-.357.105-.544.101m0-.443q.603 0 .602-.9 0-.451-.15-.677a.5.5 0 0 0-.452-.225q-.61 0-.61.901 0 .9.61.9M42.948 15.528a1.3 1.3 0 0 1 .47 0l1.08 1.664v-1.664q.134-.021.269-.022.117 0 .233.022v2.611a1.4 1.4 0 0 1-.224.022q-.12-.001-.237-.022l-1.089-1.66v1.66a1.5 1.5 0 0 1-.5 0zM6.607 4q2.11 0 3.624 1.406 1.514 1.407 1.514 3.367v2.045h.367q.459 0 .78.299.321.297.321.724v6.136a.95.95 0 0 1-.32.725 1.1 1.1 0 0 1-.78.298H1.1q-.459 0-.78-.298A.95.95 0 0 1 0 17.977v-6.136q0-.427.321-.724.321-.3.78-.299h.367V8.773q0-1.961 1.514-3.367T6.607 4m2.146 9.073a.63.63 0 0 0-.832.085l-1.862 2.157-.736-1.021a.6.6 0 0 0-.375-.234.63.63 0 0 0-.446.082.524.524 0 0 0-.164.76l1.184 1.645a.6.6 0 0 0 .468.244h.025a.62.62 0 0 0 .461-.205l2.37-2.742a.52.52 0 0 0-.093-.771M6.607 6.046q-1.216 0-2.076.798-.86.8-.86 1.929v2.045h5.872V8.773q0-1.13-.86-1.928-.861-.8-2.076-.8"/></svg>