<svg xmlns="http://www.w3.org/2000/svg" width="158" height="180" fill="none"><g clip-path="url(#a)" opacity=".3"><path fill="#FDE4DF" d="M93 142c0-12.703 10.297-23 23-23h51v46h-51c-12.703 0-23-10.297-23-23"/><path fill="#F94942" d="M115.025 164.299q.484.021.975.021h.98v1.36H116q-.52 0-1.033-.022zm5.879.021v1.36h-1.962v-1.36zm3.923 0v1.36h-1.962v-1.36zm3.923 0v1.36h-1.962v-1.36zm3.923 0v1.36h-1.961v-1.36zm3.923 0v1.36h-1.961v-1.36zm3.924 0v1.36h-1.962v-1.36zm3.922 0v1.36h-1.962v-1.36zm3.923 0v1.36h-1.961v-1.36zm3.923 0v1.36h-1.961v-1.36zm3.924 0v1.36h-1.962v-1.36zm3.923 0v1.36h-1.962v-1.36zm3.923 0v1.36h-1.962v-1.36zm3.622-.278v1.638h-1.66v-1.36h.3v-.278zm-56.514-.247q.945.209 1.918.336l-.176 1.348a23 23 0 0 1-2.035-.356zm-3.71-1.168q.896.372 1.83.666l-.204.648-.205.649a23 23 0 0 1-1.941-.707l.26-.628zm-3.449-1.8q.82.524 1.685.976l-.629 1.206a24 24 0 0 1-1.789-1.035zm63.673-.619v1.917h-1.36v-1.917zm-66.759-1.752a22 22 0 0 0 1.491 1.253l-.828 1.078a24 24 0 0 1-1.582-1.328zm66.759-2.081v1.917h-1.36v-1.917zm-69.389-.787a23 23 0 0 0 1.253 1.491l-1.003.919a24 24 0 0 1-1.328-1.582zm-2.094-3.28q.452.866.976 1.685l-1.147.733a24 24 0 0 1-1.035-1.789zm71.483.234v1.916h-1.36v-1.916zm-72.973-3.828q.294.934.666 1.83l-.628.26-.628.26q-.395-.95-.707-1.941l.649-.205zm72.973-.006v1.917h-1.36v-1.917zm-73.81-3.792q.126.973.335 1.918l-1.328.293a24 24 0 0 1-.356-2.035zm73.81-.041v1.917h-1.36v-1.917zM92.32 142q0-.52.022-1.033l1.36.058a23 23 0 0 0 0 1.95l-1.36.058A24 24 0 0 1 92.32 142m75.36-.958v1.916h-1.36v-1.916zm0-3.834v1.917h-1.36v-1.917zm-73.475-.042q-.209.945-.336 1.918l-1.349-.176q.136-1.032.357-2.035zm73.475-3.791v1.917h-1.36v-1.917zm-72.935-.179.628.26q-.372.896-.666 1.83l-.648-.204-.649-.205q.312-.99.707-1.941zm2.428-3.189a22 22 0 0 0-.976 1.685l-1.206-.629a24 24 0 0 1 1.035-1.789zm70.507-.465v1.916h-1.36v-1.916zm-68.136-2.621a23 23 0 0 0-1.253 1.491l-1.078-.828q.63-.821 1.328-1.582zm68.136-1.213v1.917h-1.36v-1.917zm-65.268-1.417a22 22 0 0 0-1.491 1.253l-.919-1.003a24 24 0 0 1 1.582-1.328zm65.268-2.416v1.917h-1.36v-1.917zm-61.988.322q-.866.452-1.685.976l-.733-1.147q.87-.555 1.789-1.035zm3.39-2.138.204.648q-.934.294-1.83.666l-.26-.628-.26-.628a23 23 0 0 1 1.941-.707zm4.002-.19a23 23 0 0 0-1.918.336l-.293-1.328a23 23 0 0 1 2.035-.356zm54.596-1.549v1.638h-1.36v-.278h-.3v-1.36zm-50.7 0v1.36H116q-.49 0-.975.021l-.058-1.359q.514-.022 1.033-.022zm3.924 0v1.36h-1.962v-1.36zm3.923 0v1.36h-1.962v-1.36zm3.923 0v1.36h-1.962v-1.36zm3.923 0v1.36h-1.961v-1.36zm3.923 0v1.36h-1.961v-1.36zm3.924 0v1.36h-1.962v-1.36zm3.922 0v1.36h-1.962v-1.36zm3.923 0v1.36h-1.961v-1.36zm3.923 0v1.36h-1.961v-1.36zm3.924 0v1.36h-1.962v-1.36zm3.923 0v1.36h-1.962v-1.36zm3.923 0v1.36h-1.962v-1.36z"/><path fill="#FDE4DF" d="M110.836 27.696a5.423 5.423 0 0 1 0 7.67l-49.86 49.86a5.424 5.424 0 0 1-7.67 0l-49.86-49.86a5.424 5.424 0 0 1 0-7.67l49.86-49.86a5.424 5.424 0 0 1 7.67 0z"/><path fill="#F94942" d="M54.881-21.713a4 4 0 0 0-.616.508l-.96-.96.203-.192a5.4 5.4 0 0 1 .62-.482zm-1.575 1.467-.96-.96.96-.959.959.96zm-3.836 3.835-.959-.96 1.918-1.917.959.96zm-3.835 3.835-.959-.959 1.918-1.918.959.96zM41.8-8.74l-.959-.96 1.918-1.917.96.959zm-3.835 3.835-.96-.959 1.919-1.917.959.959zM34.13-1.069l-.96-.96 1.918-1.917.96.959zm-3.835 3.835-.96-.96L31.252-.11l.96.96zm-3.836 3.836-.96-.96 1.919-1.918.959.96zm-3.835 3.835-.96-.96 1.918-1.917.96.96zm-3.836 3.835-.959-.96 1.918-1.917.959.96zm-3.835 3.835-.96-.959 1.918-1.918.96.96zm-3.836 3.836-.959-.959 1.918-1.918.959.96zm-3.835 3.835-.96-.959 1.918-1.917.96.959zm-2.877 2.877-.959-.959.96-.96.958.96zm-1.633-.137q.215-.324.482-.62l.192-.202.96.96q-.29.29-.508.616zM57.936-22.32a4.1 4.1 0 0 0-1.59 0l-.262-1.33a5.5 5.5 0 0 1 2.115 0zM2.626 32.457l-.337.067-.327.065a5.5 5.5 0 0 1 0-2.116l.664.132.665.131a4.1 4.1 0 0 0 0 1.59zm58.35-54.622.96.96-.96.959-.96-.96a4 4 0 0 0-.616-.507l.755-1.126q.323.215.62.482zM3.253 35.165a5.4 5.4 0 0 1-.482-.62l1.126-.754q.217.326.507.616l.96.96-.96.959-.959-.96zm61.558-51.576-1.917-1.918.959-.959 1.917 1.918zM8.24 40.16l-1.917-1.918.959-.959 1.918 1.918zm60.408-52.737-1.918-1.917.959-.96 1.918 1.918zM12.075 43.996l-1.918-1.918.96-.959 1.917 1.918zM72.482-8.74l-1.917-1.918.959-.959 1.918 1.918zM15.911 47.832l-1.918-1.918.959-.959 1.918 1.918zM76.318-4.905 74.4-6.822l.96-.96 1.917 1.918zM19.746 51.667l-1.918-1.917.96-.96 1.917 1.918zM80.153-1.069l-1.918-1.918.96-.96 1.917 1.918zM23.58 55.502l-1.918-1.917.96-.96 1.917 1.918zM83.989 2.766 82.07.848l.96-.959 1.918 1.918zM27.417 59.338l-1.918-1.918.959-.96 1.918 1.92zM87.824 6.602l-1.918-1.918.96-.96 1.917 1.918zM31.252 63.174l-1.918-1.918.96-.96 1.917 1.918zM91.66 10.436l-1.917-1.918.959-.959 1.917 1.918zM35.087 67.009 33.17 65.09l.959-.959 1.917 1.918zm60.407-52.737-1.917-1.918.959-.959 1.918 1.918zM38.923 70.844l-1.918-1.918.959-.959 1.918 1.918zM99.33 18.108l-1.918-1.918.96-.96 1.917 1.919zM42.758 74.68l-1.918-1.918.96-.96 1.918 1.919zm60.408-52.737-1.918-1.917.959-.96 1.918 1.918zM46.594 78.515l-1.918-1.918.96-.959 1.917 1.918zM107 25.778l-1.918-1.917.959-.96 1.918 1.918zM50.429 82.35l-1.918-1.917.96-.96 1.917 1.918zm60.408-54.654q.384.386.675.822l-1.127.754a4 4 0 0 0-.507-.617l-.96-.959.96-.96zm-58.49 56.572.959-.96.959.96q.29.29.616.507l-.753 1.127a5.5 5.5 0 0 1-.822-.675zm58.644-51.941a4.1 4.1 0 0 0 0-1.591l1.33-.263a5.5 5.5 0 0 1 0 2.116zM58.199 86.71a5.5 5.5 0 0 1-2.115 0l.262-1.33a4.1 4.1 0 0 0 1.59 0zm51.679-50.385-.96-.96.96-.959q.29-.29.507-.616l1.127.754a5.4 5.4 0 0 1-.483.62l-.192.202zM60.774 85.419a5.4 5.4 0 0 1-.619.483l-.755-1.127a4 4 0 0 0 .617-.507l.959-.96.96.96-.96.96zm45.268-45.258-.959-.96 1.918-1.917.959.96zm-3.835 3.835-.959-.96 1.918-1.917.959.96zm-3.836 3.836-.959-.96 1.918-1.917.959.959zm-3.835 3.835-.96-.959 1.918-1.918.96.96zM90.7 55.502l-.96-.959 1.918-1.917.96.959zm-3.835 3.836-.96-.96 1.918-1.917.96.959zm-3.836 3.835-.96-.959 1.919-1.918.959.96zm-3.836 3.836-.959-.96 1.918-1.917.959.96zm-3.835 3.835-.959-.96 1.918-1.917.959.96zm-3.835 3.835-.96-.959 1.918-1.918.96.96zm-3.836 3.836-.96-.96 1.919-1.917.959.96zm-3.835 3.835-.96-.959 1.918-1.918.96.96z"/><path fill="#F94942" d="M163.488 122.512a3.616 3.616 0 0 1-.677-7.168V31.433h-45.944a3.615 3.615 0 1 1 0-1.357h47.299v85.268a3.616 3.616 0 0 1-.678 7.168"/></g><defs><clipPath id="a"><path fill="#fff" d="M.6 16c0-8.837 7.163-16 16-16h125c8.836 0 16 7.163 16 16v148c0 8.837-7.164 16-16 16h-125c-8.837 0-16-7.163-16-16z"/></clipPath></defs></svg>