<?xml version="1.0" encoding="UTF-8"?>
<svg width="12px" height="12px" viewBox="0 0 12 12" version="1.1" xmlns="http://www.w3.org/2000/svg" xmlns:xlink="http://www.w3.org/1999/xlink">
    <title>task_error copy</title>
    <g id="----↳-PDF---Blog" stroke="none" stroke-width="1" fill="none" fill-rule="evenodd">
        <path d="M9.46298878,1.26370943 L6,4.72646018 L2.53701122,1.26370943 C2.18539864,0.912096855 1.61532201,0.912096855 1.26370943,1.26370943 L1.22738211,1.30219827 C0.912545341,1.65576312 0.924654447,2.19795623 1.26370943,2.53701122 L4.72646018,6 L1.26370943,9.46298878 C0.912096855,9.81460136 0.912096855,10.384678 1.26370943,10.7362906 L1.30219827,10.7726179 C1.65576312,11.0874547 2.19795623,11.0753456 2.53701122,10.7362906 L6,7.27327434 L9.46298878,10.7362906 C9.81460136,11.0879031 10.384678,11.0879031 10.7362906,10.7362906 L10.7726179,10.6978017 C11.0874547,10.3442369 11.0753456,9.80204377 10.7362906,9.46298878 L7.27327434,6 L10.7362906,2.53701122 C11.0879031,2.18539864 11.0879031,1.61532201 10.7362906,1.26370943 C10.384678,0.912096855 9.81460136,0.912096855 9.46298878,1.26370943 Z" id="task_error-copy" stroke="#FF6850" stroke-width="0.7" fill="#FF6A58"></path>
    </g>
</svg>