<svg width="700" height="141" fill="none" xmlns="http://www.w3.org/2000/svg"><path d="M0 140.105h700v-140H0v140Z" fill="#33333B"/><mask id="a" style="mask-type:alpha" maskUnits="userSpaceOnUse" x="0" y="0" width="700" height="140"><path d="M0 140h700V0H0v140Z" fill="#383E45"/></mask><g mask="url(#a)"><path fill-rule="evenodd" clip-rule="evenodd" d="M722.074 113.123 677.212 68.26c-11.716-11.715-30.71-11.715-42.426 0l-44.862 44.863c-11.716 11.715-11.716 30.71 0 42.426l44.862 44.862c11.716 11.716 30.71 11.716 42.426 0l44.862-44.862c11.716-11.716 11.716-30.711 0-42.426Zm-43.448-46.277c-12.496-12.497-32.758-12.497-45.254 0l-44.863 44.862c-12.496 12.497-12.496 32.758 0 45.255l44.863 44.862c12.496 12.497 32.758 12.497 45.254 0l44.863-44.862c12.496-12.497 12.496-32.758 0-45.255l-44.863-44.862Z" fill="url(#b)"/></g><mask id="c" style="mask-type:alpha" maskUnits="userSpaceOnUse" x="0" y="0" width="700" height="140"><path d="M0 140h700V0H0v140Z" fill="#383E45"/></mask><g mask="url(#c)"><path d="M200.111-231.416c12.497-12.496 32.758-12.496 45.255.001L385.368-91.413c12.497 12.497 12.497 32.758 0 45.255l-232.1 232.1c-12.496 12.497-32.758 12.497-45.254 0L-31.989 45.939c-12.497-12.496-12.497-32.758 0-45.254l232.1-232.101Z" fill="#47474F"/></g><mask id="d" style="mask-type:alpha" maskUnits="userSpaceOnUse" x="0" y="0" width="700" height="140"><path d="M0 140h700V0H0v140Z" fill="#383E45"/></mask><g mask="url(#d)"><path fill-rule="evenodd" clip-rule="evenodd" d="m240.594-109.84-63.724-63.725c-11.716-11.716-30.711-11.716-42.426 0L16.759-55.881c-11.715 11.716-11.715 30.711 0 42.427L80.484 50.27c11.716 11.716 30.711 11.716 42.426 0L240.594-67.414c11.716-11.716 11.716-30.71 0-42.426Zm-62.31-65.139c-12.497-12.497-32.758-12.497-45.255 0L15.345-57.295c-12.497 12.497-12.497 32.758 0 45.255L79.07 51.684c12.497 12.497 32.758 12.497 45.255 0L242.009-66c12.496-12.496 12.496-32.758 0-45.255l-63.725-63.724Z" fill="url(#e)"/></g><defs><linearGradient id="b" x1="701.058" y1="89.277" x2="610.94" y2="179.394" gradientUnits="userSpaceOnUse"><stop stop-color="#FFB400"/><stop offset="1" stop-color="#FF8273"/></linearGradient><linearGradient id="e" x1="210.146" y1="-143.117" x2="47.208" y2="19.822" gradientUnits="userSpaceOnUse"><stop stop-color="#FFB400"/><stop offset="1" stop-color="#FF8273"/></linearGradient></defs></svg>