<svg xmlns="http://www.w3.org/2000/svg" width="12" height="13" fill="none" fill-rule="evenodd"><path d="M4 1v3m4-3v3" stroke="#151618" stroke-linecap="round" stroke-linejoin="round"/><g fill-rule="nonzero"><path d="M2 2h8a2 2 0 0 1 2 2v7a2 2 0 0 1-2 2H2a2 2 0 0 1-2-2V4a2 2 0 0 1 2-2zm0 .8A1.2 1.2 0 0 0 .8 4v7A1.2 1.2 0 0 0 2 12.2h8a1.2 1.2 0 0 0 1.2-1.2V4A1.2 1.2 0 0 0 10 2.8H2z" fill="#151618"/><path d="M5.102 8.17a.89.89 0 0 1 .481.315c.113.15.17.332.17.547a.9.9 0 0 1-.16.534 1.02 1.02 0 0 1-.456.35 1.79 1.79 0 0 1-.69.123 2.05 2.05 0 0 1-.627-.096 1.63 1.63 0 0 1-.517-.267c-.05-.037-.087-.077-.108-.12a.34.34 0 0 1-.033-.15c0-.087.025-.162.076-.224s.1-.093.18-.093a.32.32 0 0 1 .11.018l.036.015.1.048a3.49 3.49 0 0 0 .383.192 1 1 0 0 0 .378.066c.205 0 .354-.038.45-.113s.14-.194.14-.355-.05-.272-.146-.343-.254-.106-.47-.106h-.297c-.087 0-.156-.03-.207-.1A.34.34 0 0 1 3.81 8.2a.32.32 0 0 1 .076-.212c.05-.06.12-.1.207-.1h.212c.205 0 .357-.035.456-.106s.15-.18.15-.328c0-.14-.042-.25-.126-.33s-.202-.118-.353-.118c-.124 0-.24.022-.348.066-.072.03-.15.067-.237.114l-.136.077a.81.81 0 0 1-.126.063c-.034.013-.07.018-.1.018-.07 0-.13-.03-.18-.093a.35.35 0 0 1-.076-.224.33.33 0 0 1 .033-.154c.022-.042.058-.08.108-.118a1.46 1.46 0 0 1 .507-.267 1.94 1.94 0 0 1 .602-.096c.24 0 .45.04.63.118s.32.2.418.335a.88.88 0 0 1 .146.504.84.84 0 0 1-.15.5.78.78 0 0 1-.41.3zM7.746 6.4c.43 0 .76.156.985.47s.34.763.34 1.35-.113 1.043-.34 1.356-.555.47-.985.47-.76-.156-.985-.47-.34-.764-.34-1.356.113-1.038.34-1.35.555-.47.985-.47zm0 .6c-.195 0-.337.097-.426.3s-.134.503-.134.93.045.738.134.932.23.292.426.292.337-.097.426-.292.134-.506.134-.932-.045-.74-.134-.932S7.94 7 7.746 7z" fill="#161616"/></g></svg>