<?xml version="1.0" encoding="UTF-8"?><svg id="Layer_1" xmlns="http://www.w3.org/2000/svg" viewBox="0 0 9.87 11.93"><path d="M8.53,8.58h-1.46v-.44c0-.31-.23-.55-.53-.6,.17-1.3,.49-2.57,.97-3.79,.12-.33,.19-.67,.18-1.02C7.67,1.27,6.5,.07,5.04,0c-.42-.01-.84,.06-1.22,.23-1.4,.62-2.03,2.25-1.42,3.65,.5,1.17,.81,2.4,.94,3.66-.3,.04-.54,.29-.54,.6v.44H1.34c-.74,0-1.34,.6-1.34,1.34v1.39c0,.34,.28,.63,.63,.63H9.25c.34,0,.62-.28,.62-.63v-1.39c0-.74-.6-1.34-1.34-1.34ZM.76,9.92c0-.32,.26-.58,.58-.58h7.19c.32,0,.58,.26,.58,.58v1.26H.76v-1.26ZM6.82,3.48c-.51,1.3-.86,2.66-1.04,4.04h-1.67c-.13-1.36-.47-2.69-1.01-3.95-.12-.28-.18-.59-.17-.89,.02-.54,.25-1.04,.64-1.4,.4-.37,.92-.55,1.44-.54,1.06,.05,1.92,.93,1.94,1.99,0,.26-.04,.51-.13,.74Zm-3.27,4.8h2.77v.3H3.55v-.3Z"/></svg>