<svg xmlns="http://www.w3.org/2000/svg" width="12" height="12" fill="#161616" fill-rule="nonzero"><path d="M9.402 0c.925 0 1.598.474 2.094 1.32.054.093.02.213-.077.262l-.494.252c-.1.046-.2.012-.25-.077C10.375 1.207 9.94.9 9.4.9 8.33.9 7.583 2.083 7.583 3.8c0 1.72.75 2.9 1.818 2.9.548 0 1-.34 1.28-.944.045-.094.16-.133.253-.086l.504.252c.094.047.13.162.082.255-.488.924-1.165 1.433-2.12 1.433-1.7 0-2.802-1.586-2.802-3.8C6.6 1.58 7.7 0 9.402 0zM3.6.116c.066 0 .126.035.16.1l.02.044 2.1 7.004c.032.105-.033.2-.134.236l-.045.005h-.63c-.067 0-.127-.035-.16-.1l-.02-.045-.465-1.597H2.073L1.608 7.36c-.02.064-.07.112-.132.13l-.05.006h-.64c-.1 0-.193-.093-.187-.197l.008-.045L2.72.25c.02-.063.07-.1.13-.127l.048-.006h.693zm-.347 1.54l-.936 3.207H4.18l-.936-3.207zM.643 12h10.714c.355 0 .643-.336.643-.75s-.288-.75-.643-.75H.643c-.355 0-.643.336-.643.75s.288.75.643.75z"/></svg>