<svg width="12" height="12" viewBox="0 0 12 12" fill="none" xmlns="http://www.w3.org/2000/svg"><path fill-rule="evenodd" clip-rule="evenodd" d="M0.397351 11.8286C0.139073 11.6509 1.38109e-08 11.3744 0 11.0585C-5.17909e-09 10.94 0.0198675 10.8018 0.119205 10.703L1.82781 5.62798C1.96689 5.25278 2.28477 4.83808 2.62252 4.62086L5.02649 3.08058C5.52318 2.76462 6.21854 2.82386 6.63576 3.23855L8.88079 5.47C9.11921 5.70696 9.23841 6.06242 9.23841 6.39812C9.23841 6.63509 9.15894 6.8918 9.01987 7.08927L7.45033 9.47869C7.23179 9.8144 6.81457 10.1304 6.43709 10.2488L1.33113 11.9471C0.993378 12.0458 0.655629 12.0063 0.397351 11.8286ZM6.13907 9.4787L1.60628 10.9863L4.61443 7.99639C5.05065 8.19239 5.58953 8.11382 5.96027 7.76068C6.41722 7.30649 6.41722 6.5561 5.96027 6.08216C5.50331 5.62798 4.74834 5.62798 4.27152 6.08216C3.89008 6.4455 3.81378 6.99839 4.04262 7.44767L0.958177 10.5134L2.52318 5.86494C2.60265 5.66747 2.80132 5.39101 2.98013 5.27252L5.40397 3.71249C5.58278 3.59401 5.88079 3.61375 6.01987 3.77173L8.2649 6.02292C8.36424 6.12166 8.38411 6.25989 8.38411 6.37837C8.38411 6.47711 8.36424 6.57585 8.30464 6.63509L6.7351 9.02451C6.61589 9.20223 6.33775 9.41945 6.13907 9.4787ZM4.82781 6.65483C4.66887 6.81281 4.66887 7.04978 4.82781 7.20776C4.98675 7.34599 5.22517 7.34599 5.38411 7.20776C5.54305 7.04978 5.54305 6.81281 5.38411 6.65483C5.22517 6.49686 4.98675 6.49686 4.82781 6.65483Z" fill="#161616"/><path fill-rule="evenodd" clip-rule="evenodd" d="M6.93377 2.74487C6.71523 2.50791 6.53642 2.2117 6.53642 1.89574C6.53642 1.57978 6.59603 1.26383 6.7947 1.04661L7.49007 0.355452C7.72848 0.118484 8.08609 1.3895e-08 8.40397 0C8.72185 -1.3895e-08 9.09934 0.138231 9.31788 0.355452L11.702 2.72512C11.9404 2.96209 12 3.2583 12 3.57426C12 3.89021 11.8212 4.20617 11.6026 4.42339L10.9073 5.11455C10.6887 5.35151 10.4305 5.47 10.1126 5.47C9.7947 5.47 9.53642 5.33177 9.31788 5.11455L6.93377 2.74487ZM7.33005 1.84584C7.33059 1.86283 7.33113 1.87955 7.33113 1.89574C7.33113 1.99448 7.43046 2.09321 7.50993 2.15245L9.89404 4.52213C10.0331 4.68011 10.1921 4.68011 10.351 4.52213L11.0464 3.83097C11.1258 3.77173 11.2252 3.65325 11.2252 3.55451C11.2252 3.53796 11.2257 3.52141 11.2263 3.50496C11.229 3.42323 11.2317 3.3438 11.1656 3.27805L8.78146 0.908375C8.62252 0.750397 8.24503 0.750397 8.08609 0.908375L7.39073 1.59953C7.32429 1.66557 7.32728 1.75921 7.33005 1.84584Z" fill="#161616"/></svg>