<svg xmlns="http://www.w3.org/2000/svg" width="12" height="12" fill="#151618" fill-rule="nonzero"><path d="M8.878 9.107a2.95 2.95 0 0 0-2.94-2.957C4.314 6.15 3 7.474 3 9.107c0 .213.172.386.383.386h5.1c.212 0 .383-.173.383-.386zm-.8-.386H3.8c.18-1.023 1.07-1.8 2.138-1.8s1.957.777 2.138 1.8zM5.94 5.68c.974 0 1.763-.768 1.763-1.714S6.913 2.25 5.94 2.25s-1.763.768-1.763 1.714.8 1.714 1.763 1.714zm0-.667c-.595 0-1.078-.47-1.078-1.048s.482-1.048 1.078-1.048 1.078.47 1.078 1.048-.482 1.048-1.078 1.048zM3 0h6a3 3 0 0 1 3 3v6a3 3 0 0 1-3 3H3a3 3 0 0 1-3-3V3a3 3 0 0 1 3-3zm0 .8A2.2 2.2 0 0 0 .8 3v6A2.2 2.2 0 0 0 3 11.2h6A2.2 2.2 0 0 0 11.2 9V3A2.2 2.2 0 0 0 9 .8H3z"/></svg>