<svg xmlns="http://www.w3.org/2000/svg" width="22" height="15" fill-rule="nonzero"><path d="M20.164 14.5H1.836a1.85 1.85 0 0 1-1.292-.508c-.344-.33-.54-.777-.544-1.246V2.254c.004-.47.2-.917.544-1.246A1.85 1.85 0 0 1 1.836.5h18.328a1.85 1.85 0 0 1 1.292.508c.344.33.54.777.544 1.246v10.5c-.012.974-.833 1.754-1.836 1.746zM7.586 4.796c0-.34-.266-.612-.592-.612H2.868c-.326 0-.592.273-.592.612v2.46c0 .34.266.612.592.612h4.127c.326 0 .592-.273.592-.612v-2.46z" fill="#c2c5f6"/><path d="M18.76 11.5h-2.217c-.48 0-.74-.225-.74-.75s.26-.75.74-.75h2.217c.48 0 .74.225.74.75s-.26.75-.74.75zm-4.435 0H12.11c-.48 0-.74-.225-.74-.75s.26-.75.74-.75h2.217c.48 0 .74.225.74.75s-.26.75-.74.75zm-4.435 0H7.674c-.48 0-.74-.225-.74-.75s.26-.75.74-.75H9.89c.48 0 .74.225.74.75s-.26.75-.74.75zm-4.435 0H3.24c-.48 0-.74-.225-.74-.75s.26-.75.74-.75h2.217c.48 0 .74.225.74.75s-.26.75-.74.75z" fill="#9499ef"/></svg>