<?xml version="1.0" encoding="UTF-8"?>
<svg width="24px" height="16px" xmlns="http://www.w3.org/2000/svg" viewBox="0 0 32 21"><g fill="none" fill-rule="evenodd"><g id="error" fill="#eb1c26"><g id="card" transform="translate(0 2)"><path id="shape" d="M21.68 0A6 6 0 1 0 29 9.47v7.15A2.4 2.4 0 0 1 26.58 19H2.42A2.4 2.4 0 0 1 0 16.62V2.38A2.4 2.4 0 0 1 2.42 0h19.26zM10 5.83c0-.46-.35-.83-.78-.83H3.78c-.43 0-.78.37-.78.83v3.34c0 .46.35.83.78.83h5.44c.43 0 .78-.37.78-.83V5.83z" opacity=".2"></path><path id="shape" d="M25 15h-3c-.65 0-1-.3-1-1s.35-1 1-1h3c.65 0 1 .3 1 1s-.35 1-1 1zm-6 0h-3c-.65 0-1-.3-1-1s.35-1 1-1h3c.65 0 1 .3 1 1s-.35 1-1 1zm-6 0h-3c-.65 0-1-.3-1-1s.35-1 1-1h3c.65 0 1 .3 1 1s-.35 1-1 1zm-6 0H4c-.65 0-1-.3-1-1s.35-1 1-1h3c.65 0 1 .3 1 1s-.35 1-1 1z" opacity=".3"></path></g><g id="shape" transform="translate(18)"><path d="M7 14A7 7 0 1 1 7 0a7 7 0 0 1 0 14zM6 3v4a1 1 0 0 0 2 0V3a1 1 0 0 0-2 0zm1 8.75a1.25 1.25 0 1 0 0-2.5 1.25 1.25 0 0 0 0 2.5z"></path></g></g></g></svg>