<svg xmlns="http://www.w3.org/2000/svg" width="65" height="62" fill-rule="nonzero"><path d="M55 22.222V40h-9V22.222C46 14.87 39.943 8.9 32.5 8.9S19 14.87 19 22.222V40h-9V22.222C10 9.97 20.092 0 32.5 0S55 9.97 55 22.222z" fill="#9499ef"/><path d="M60.048 19C62.783 19 65 21.15 65 23.8v33.4c0 2.65-2.217 4.8-4.952 4.8H4.952C2.217 62 0 59.85 0 57.2V23.8C0 21.15 2.217 19 4.952 19h55.096zM37.25 36h-9.5C25.127 36 23 38.015 23 40.5s2.127 4.5 4.75 4.5h9.5c2.623 0 4.75-2.015 4.75-4.5S39.873 36 37.25 36z" fill="#c2c5f6"/></svg>