<svg width="48" height="48" xmlns="http://www.w3.org/2000/svg"><defs><filter x="-25%" y="-18.1%" width="150%" height="136.1%" filterUnits="objectBoundingBox" id="a"><feOffset dy="1" in="SourceAlpha" result="shadowOffsetOuter1"/><feGaussianBlur stdDeviation="1" in="shadowOffsetOuter1" result="shadowBlurOuter1"/><feColorMatrix values="0 0 0 0 0 0 0 0 0 0 0 0 0 0 0 0 0 0 0.1 0" in="shadowBlurOuter1" result="shadowMatrixOuter1"/><feMerge><feMergeNode in="shadowMatrixOuter1"/><feMergeNode in="SourceGraphic"/></feMerge></filter></defs><g fill="none" fill-rule="evenodd"><path d="M17.088 46.288 3.972 47.666c-.866.091-1.639-.512-1.727-1.347L.16 26.47c-.088-.835.543-1.586 1.41-1.677l13.115-1.378c.866-.091 1.64.512 1.727 1.347l2.087 19.85c.088.835-.543 1.586-1.41 1.677Z" fill="#F6AD01"/><path d="m43.475 39.452-6.677-1.664c-.44-.11-.712-.544-.606-.969l2.52-10.104c.105-.425.549-.68.99-.57l6.676 1.664c.44.11.712.544.606.969l-2.52 10.104c-.105.425-.548.68-.99.57Z" fill="#F5AC00"/><path d="m42.772 22.448-12.339 2.623c-.815.173-1.61-.323-1.778-1.109L24.686 5.288c-.167-.786.358-1.563 1.173-1.736L38.2.929c.814-.173 1.61.323 1.777 1.109l3.97 18.674c.166.786-.359 1.563-1.174 1.736Z" fill="#FFB6AD"/><g filter="url(#a)" transform="translate(7 5.615)"><path d="M23.491.25c.625 0 1.192.24 1.602.628.405.385.657.915.657 1.501v31.242c0 .586-.252 1.116-.657 1.5-.41.39-.977.629-1.602.629H2.51c-.625 0-1.192-.24-1.602-.628A2.064 2.064 0 0 1 .25 33.62V2.379c0-.586.252-1.116.657-1.5.41-.39.977-.629 1.602-.629Z" fill="#FFF" stroke="#707078" stroke-width=".5"/><path stroke="#707078" stroke-width=".658" stroke-linecap="round" stroke-linejoin="round" d="M5.613 6.706h6.163M5.485 10.495h15.407M5.485 14.285h15.407"/><g transform="translate(4.815 18.947)" fill-rule="nonzero"><path d="M15.598 10.282H.75a.749.749 0 0 1-.75-.76V.76C0 .335.33 0 .75 0h14.848c.42 0 .75.335.75.76v8.762c.022.425-.33.76-.75.76Z" fill="#FDE4DF"/><path d="M0 9.947 3.95 6.66l3.353 2.526 4.655-4.717 4.412 3.733v3.085c0 .58-.463 1.028-1.015 1.028H1.015C.44 12.316 0 11.846 0 11.288V9.947Z" fill="#FFB6AD"/><ellipse fill="#FF6A58" cx="6.994" cy="4.18" rx="1.059" ry="1.073"/></g></g></g></svg>