<?xml version="1.0" encoding="UTF-8"?>
<svg width="48px" height="48px" viewBox="0 0 48 48" version="1.1" xmlns="http://www.w3.org/2000/svg" xmlns:xlink="http://www.w3.org/1999/xlink">
    <title>Group 14 Copy 8</title>
    <defs>
        <filter x="-25.0%" y="-18.1%" width="150.0%" height="136.1%" filterUnits="objectBoundingBox" id="filter-1">
            <feOffset dx="0" dy="1" in="SourceAlpha" result="shadowOffsetOuter1"></feOffset>
            <feGaussianBlur stdDeviation="1" in="shadowOffsetOuter1" result="shadowBlurOuter1"></feGaussianBlur>
            <feColorMatrix values="0 0 0 0 0   0 0 0 0 0   0 0 0 0 0  0 0 0 0.1 0" type="matrix" in="shadowBlurOuter1" result="shadowMatrixOuter1"></feColorMatrix>
            <feMerge>
                <feMergeNode in="shadowMatrixOuter1"></feMergeNode>
                <feMergeNode in="SourceGraphic"></feMergeNode>
            </feMerge>
        </filter>
    </defs>
    <g id="Remember-Premium" stroke="none" stroke-width="1" fill="none" fill-rule="evenodd">
        <g id="Premium-limits-3" transform="translate(-731.000000, -935.000000)">
            <g id="Group-14-Copy-8" transform="translate(731.000000, 935.000000)">
                <rect id="Rectangle" fill="#D8D8D8" opacity="0" x="9.09494702e-13" y="0" width="48" height="48"></rect>
                <g id="Group-9-Copy" transform="translate(0.000000, 0.615382)">
                    <path d="M15.9224821,46.4244918 L2.73425407,46.4244918 C1.86340737,46.4244918 1.15731545,45.7437946 1.15731545,44.9042682 L1.15731545,24.9447154 C1.15731545,24.1051889 1.86340737,23.4244918 2.73425407,23.4244918 L15.9224821,23.4244918 C16.7933288,23.4244918 17.4994207,24.1051889 17.4994207,24.9447154 L17.4994207,44.9042682 C17.4994207,45.7437946 16.7933288,46.4244918 15.9224821,46.4244918 Z" id="Path" fill="#F6AD01" transform="translate(9.328368, 34.924492) rotate(-6.000000) translate(-9.328368, -34.924492) "></path>
                    <path d="M45.0284626,38.1830215 L38.147648,38.1830215 C37.6932931,38.1830215 37.3248974,37.8278751 37.3248974,37.3898613 L37.3248974,26.9761816 C37.3248974,26.5381678 37.6932931,26.1830215 38.147648,26.1830215 L45.0284626,26.1830215 C45.4828174,26.1830215 45.8512132,26.5381678 45.8512132,26.9761816 L45.8512132,37.3898613 C45.8512132,37.8278751 45.4828174,38.1830215 45.0284626,38.1830215 Z" id="Path-Copy" fill="#F5AC00" transform="translate(41.588055, 32.183021) rotate(14.000000) translate(-41.588055, -32.183021) "></path>
                    <path d="M40.6232029,23.3846176 L28.0083761,23.3846176 C27.1753923,23.3846176 26.5,22.733516 26.5,21.9304907 L26.5,2.83874454 C26.5,2.03571922 27.1753923,1.38461761 28.0083761,1.38461761 L40.6232029,1.38461761 C41.4561867,1.38461761 42.1315789,2.03571922 42.1315789,2.83874454 L42.1315789,21.9304907 C42.1315789,22.733516 41.4561867,23.3846176 40.6232029,23.3846176 Z" id="Path" fill="#FFB6AD" transform="translate(34.315789, 12.384618) rotate(-12.000000) translate(-34.315789, -12.384618) "></path>
                    <g id="Group-8-Copy-2" filter="url(#filter-1)" transform="translate(7.000000, 5.000000)">
                        <g id="Group-Copy" fill="#FFFFFF" stroke="#707078" stroke-width="0.5">
                            <path d="M23.4911186,0.25 C24.1164143,0.25 24.6830834,0.48951199 25.0930855,0.87836733 C25.4981684,1.26255723 25.75,1.79293722 25.75,2.37948043 L25.75,2.37948043 L25.75,33.6205196 C25.75,34.2070628 25.4981684,34.7374428 25.0930855,35.1216327 C24.6830834,35.510488 24.1164143,35.75 23.4911186,35.75 L23.4911186,35.75 L2.50888142,35.75 C1.88358566,35.75 1.3169166,35.510488 0.906914513,35.1216327 C0.501831588,34.7374428 0.25,34.2070628 0.25,33.6205196 L0.25,33.6205196 L0.25,2.37948043 C0.25,1.79293722 0.501831588,1.26255723 0.906914513,0.87836733 C1.3169166,0.48951199 1.88358566,0.25 2.50888142,0.25 L2.50888142,0.25 Z" id="Path"></path>
                        </g>
                        <line x1="5.61309716" y1="6.70559211" x2="11.7760601" y2="6.70559211" id="Line" stroke="#707078" stroke-width="0.657534247" stroke-linecap="round" stroke-linejoin="round"></line>
                        <line x1="5.48470209" y1="10.4950658" x2="20.8921095" y2="10.4950658" id="Line-Copy" stroke="#707078" stroke-width="0.657534247" stroke-linecap="round" stroke-linejoin="round"></line>
                        <line x1="5.48470209" y1="14.2845395" x2="20.8921095" y2="14.2845395" id="Line-Copy-3" stroke="#707078" stroke-width="0.657534247" stroke-linecap="round" stroke-linejoin="round"></line>
                        <g id="Group-6" transform="translate(4.814815, 18.947368)" fill-rule="nonzero">
                            <path d="M15.5981831,10.2817843 L0.750124788,10.2817843 C0.330937406,10.2817843 0,9.94650874 0,9.52182634 L0,0.759957971 C0,0.335275576 0.330937406,0 0.750124788,0 L15.5981831,0 C16.0173705,0 16.3483079,0.335275576 16.3483079,0.759957971 L16.3483079,9.52182634 C16.3703704,9.94650874 16.0173705,10.2817843 15.5981831,10.2817843 Z" id="Path-Copy-3" fill="#FDE4DF"></path>
                            <path d="M0,9.94650874 L3.94918638,6.6608081 L7.30268543,9.18655077 L11.9578716,4.47034101 L16.3703704,8.20307575 L16.3703704,11.287611 C16.3703704,11.8687554 15.907058,12.3157895 15.3554957,12.3157895 L1.01487471,12.3157895 C0.441249875,12.3157895 0,11.8464037 0,11.287611 L0,9.94650874 L0,9.94650874 Z" id="Path-Copy-5" fill="#FFB6AD"></path>
                            <ellipse id="Oval-Copy-4" fill="#FF6A58" cx="6.99381052" cy="4.17976884" rx="1.0589997" ry="1.07288184"></ellipse>
                        </g>
                    </g>
                </g>
            </g>
        </g>
    </g>
</svg>