<svg width="53" height="48" xmlns="http://www.w3.org/2000/svg"><defs><filter x="-25%" y="-18.1%" width="150%" height="136.1%" filterUnits="objectBoundingBox" id="a"><feOffset dy="1" in="SourceAlpha" result="shadowOffsetOuter1"/><feGaussianBlur stdDeviation="1" in="shadowOffsetOuter1" result="shadowBlurOuter1"/><feColorMatrix values="0 0 0 0 0 0 0 0 0 0 0 0 0 0 0 0 0 0 0.1 0" in="shadowBlurOuter1" result="shadowMatrixOuter1"/><feMerge><feMergeNode in="shadowMatrixOuter1"/><feMergeNode in="SourceGraphic"/></feMerge></filter></defs><g fill="none" fill-rule="evenodd"><path d="m35.389 21.833-12.34 2.623c-.814.173-1.61-.324-1.777-1.11l-3.97-18.674c-.167-.785.359-1.562 1.173-1.736L30.815.314c.814-.174 1.61.323 1.777 1.108l3.97 18.675c.167.785-.359 1.563-1.173 1.736Z" fill="#E1C4D6"/><path d="m46.681 20.442-6.676-1.665c-.44-.11-.712-.543-.606-.968l2.519-10.105c.106-.425.55-.68.99-.57l6.676 1.664c.441.11.713.544.607.969l-2.52 10.104c-.105.425-.549.68-.99.57ZM47.43 31.232l-4.157 1.938a.539.539 0 0 1-.72-.247l-2.934-6.292a.539.539 0 0 1 .273-.711l4.158-1.939a.539.539 0 0 1 .72.248l2.934 6.292a.539.539 0 0 1-.273.71Z" fill="#F5AC00"/><g filter="url(#a)" transform="translate(5 7)"><path d="M23.491.25c.625 0 1.192.24 1.602.628.405.385.657.915.657 1.501v31.242c0 .586-.252 1.116-.657 1.5-.41.39-.977.629-1.602.629H2.51c-.625 0-1.192-.24-1.602-.628A2.064 2.064 0 0 1 .25 33.62V2.379c0-.586.252-1.116.657-1.5.41-.39.977-.629 1.602-.629Z" fill="#FFF" stroke="#707078" stroke-width=".5"/><path stroke="#707078" stroke-width=".658" stroke-linecap="round" stroke-linejoin="round" d="M5.613 6.706h6.163M5.485 10.495h15.407M5.485 14.285h15.407"/><g transform="translate(5 19)" fill-rule="nonzero"><path d="M13.34 9.183H.642c-.359 0-.642-.3-.642-.678V.679C0 .299.283 0 .642 0H13.34c.358 0 .641.3.641.679v7.826a.644.644 0 0 1-.641.678Z" fill="#FDE4DF"/><path d="m0 8.884 3.377-2.935 2.868 2.256 3.981-4.212L14 7.327v2.755c0 .519-.396.918-.868.918H.868C.378 11 0 10.58 0 10.082V8.884Z" fill="#FFB6AD"/><circle fill="#FF6A58" cx="5.981" cy="3.733" r="1"/></g></g><g transform="translate(24 34)"><circle fill="#E1C4D6" cx="7" cy="7" r="7"/><path d="M6.358 10.378V6.24c0-.19.001-.383.005-.583.004-.2.005-.405.005-.615a4.34 4.34 0 0 1-.794.572 2.92 2.92 0 0 1-.915.332l-.174-1.547c.188-.014.39-.061.604-.141.214-.08.426-.178.637-.294.21-.116.4-.242.566-.376.167-.134.294-.267.381-.397h1.492v7.187H6.358Z" fill="#FFF" fill-rule="nonzero"/></g><g transform="translate(40 40)"><circle fill="#E1C4D6" cx="1.5" cy="1.5" r="1.5"/><circle fill="#F5AC00" cx="6.5" cy="1.5" r="1.5"/><circle fill="#F5AC00" cx="11.5" cy="1.5" r="1.5"/></g></g></svg>