<svg xmlns="http://www.w3.org/2000/svg" xmlns:xlink="http://www.w3.org/1999/xlink" viewBox="0 0 424 80" width="424" height="80"><defs><style>.cls-1{fill:#F0F0F7;}.cls-2{clip-path:url(#clip-path);}.cls-3{clip-path:url(#clip-path-2);}</style><clipPath id="clip-path"><path class="cls-1" d="M73.92,48.6a.74.74,0,0,1,.74-.74h3.25l-4.28-4.28a.73.73,0,0,1,1-1L79,46.83V43.57a.74.74,0,0,1,1.47,0v5a.74.74,0,0,1-.73.73h-5A.74.74,0,0,1,73.92,48.6Z"/></clipPath><clipPath id="clip-path-2"><path class="cls-1" d="M215.68,54.83a.74.74,0,0,1-.73-.74V50.84l-4.28,4.28a.74.74,0,1,1-1-1l4.28-4.28h-3.25a.74.74,0,1,1,0-1.47h5a.72.72,0,0,1,.29.06.74.74,0,0,1,.39.39.71.71,0,0,1,.06.28v5A.74.74,0,0,1,215.68,54.83Z"/></clipPath></defs><g id="Capa_2" data-name="Capa 2"><g id="Capa_1-2" data-name="Capa 1"><path class="cls-1" d="M73.92,48.6a.74.74,0,0,1,.74-.74h3.25l-4.28-4.28a.73.73,0,0,1,1-1L79,46.83V43.57a.74.74,0,0,1,1.47,0v5a.74.74,0,0,1-.73.73h-5A.74.74,0,0,1,73.92,48.6Z"/><path class="cls-1" d="M215.68,54.83a.74.74,0,0,1-.73-.74V50.84l-4.28,4.28a.74.74,0,1,1-1-1l4.28-4.28h-3.25a.74.74,0,1,1,0-1.47h5a.72.72,0,0,1,.29.06.74.74,0,0,1,.39.39.71.71,0,0,1,.06.28v5A.74.74,0,0,1,215.68,54.83Z"/><path class="cls-1" d="M85.79,0,62.54,23.25a5,5,0,0,1-7.08,0L32.21,0H29.38L54.05,24.67a7,7,0,0,0,9.9,0L88.62,0Z"/><path class="cls-1" d="M283.41,0h-2.82l7.06,7.07a5,5,0,0,1,0,7.07L264.54,37.25a5,5,0,0,1-7.08,0L234.35,14.14a5,5,0,0,1,0-7.07L241.41,0h-2.82l-5.66,5.65a7,7,0,0,0,0,9.9l23.12,23.12a7,7,0,0,0,9.9,0l23.12-23.12a7,7,0,0,0,0-9.9Z"/><path class="cls-1" d="M393,33.5A5,5,0,0,1,391.55,37l-43,43h2.82L393,38.45a7,7,0,0,0,0-9.9L364.41,0h-2.82l30,30A5,5,0,0,1,393,33.5Z"/><path class="cls-1" d="M266.92,80v0a5,5,0,0,1,1.43-3.89L344.41,0h-2.82L266.93,74.65a7,7,0,0,0-2,5.35Z"/><path class="cls-1" d="M109.9,80l-.07-.18a36.5,36.5,0,1,1,68.34,0l-.07.18h2.14a38.5,38.5,0,1,0-72.48,0Z"/><path class="cls-1" d="M5,18.5a19.23,19.23,0,0,0-5,.68v2.06l.14,0A17.68,17.68,0,0,1,5,20.5a17.5,17.5,0,0,1,0,35,17.68,17.68,0,0,1-4.86-.7l-.14,0v2.06a19.23,19.23,0,0,0,5,.68,19.5,19.5,0,0,0,0-39Z"/><path class="cls-1" d="M424,54.75a17.47,17.47,0,0,1,0-33.5V19.17l-.13,0a19.47,19.47,0,0,0,0,37.58l.13,0Z"/></g></g></svg>