<svg width="50" height="53" xmlns="http://www.w3.org/2000/svg"><defs><filter x="-26%" y="-19.1%" width="152%" height="138.2%" filterUnits="objectBoundingBox" id="a"><feOffset dy="1" in="SourceAlpha" result="shadowOffsetOuter1"/><feGaussianBlur stdDeviation="1" in="shadowOffsetOuter1" result="shadowBlurOuter1"/><feColorMatrix values="0 0 0 0 0 0 0 0 0 0 0 0 0 0 0 0 0 0 0.1 0" in="shadowBlurOuter1" result="shadowMatrixOuter1"/><feMerge><feMergeNode in="shadowMatrixOuter1"/><feMergeNode in="SourceGraphic"/></feMerge></filter></defs><g fill="none" fill-rule="evenodd"><g transform="translate(0 5)"><path d="m1.277 36.947 29.892 6.786c.569.13.93.718.807 1.316-.114.555-.606.921-1.131.868l-.122-.02L.831 39.11c-.569-.129-.93-.718-.807-1.315.114-.555.606-.922 1.131-.868l.122.02Z" fill="#FFB6AD" fill-rule="nonzero"/><g filter="url(#a)" transform="translate(20)"><path d="M22.588.25c.599 0 1.142.225 1.535.591.386.36.627.857.627 1.406v29.506c0 .55-.24 1.046-.627 1.406a2.247 2.247 0 0 1-1.535.591H2.412c-.599 0-1.142-.225-1.535-.591a1.918 1.918 0 0 1-.627-1.406V2.247c0-.55.24-1.046.627-1.406A2.247 2.247 0 0 1 2.412.25Z" fill="#FFF" stroke="#707078" stroke-width=".5"/><path stroke="#707078" stroke-width=".619" stroke-linecap="round" stroke-linejoin="round" d="M5.397 6.333h5.926M5.274 9.912h14.815M5.274 13.491h14.815"/><g transform="translate(4.63 17.895)" fill-rule="nonzero"><path d="M14.998 9.71H.721A.714.714 0 0 1 0 8.994V.718C0 .317.318 0 .721 0h14.277c.403 0 .722.317.722.718v8.275c.02.4-.319.718-.722.718Z" fill="#FFEDC2"/><path d="M0 9.394 3.797 6.29l3.225 2.385 4.476-4.454 4.243 3.525v2.914a.97.97 0 0 1-.976.97H.975a.97.97 0 0 1-.975-.97V9.394Z" fill="#FFB400"/><ellipse fill="#D99B15" cx="6.725" cy="3.948" rx="1.018" ry="1.013"/></g></g><path stroke="#FFB6AD" stroke-width="2" stroke-linecap="square" d="M32 46v-6"/><path d="M16 35c0 2.21 7.163 4 16 4s16-1.79 16-4H16Z" fill="#FF6A58"/><circle fill="#FF6A58" cx="32" cy="45" r="3"/></g><path d="M7.575 24.162c0-.465.376-.84.839-.84h3.721l-4.889-4.89a.838.838 0 1 1 1.186-1.186l4.89 4.89v-3.721a.839.839 0 1 1 1.678 0v5.747a.846.846 0 0 1-.518.773.83.83 0 0 1-.32.065H8.414a.838.838 0 0 1-.84-.838Z" fill="#FFB400" fill-rule="nonzero"/></g></svg>