<svg xmlns="http://www.w3.org/2000/svg" width="160" height="40" fill="none"><path fill="#fff" d="M101.554 17.785v2.29h-1.436v1.503h1.436v5.105c0 1.743.789 2.44 2.772 2.44.349 0 .681-.041.972-.09v-1.487c-.249.025-.407.042-.681.042-.888 0-1.278-.415-1.278-1.361v-4.649h1.959v-1.502h-1.959v-2.291zM110.352 29.248c2.639 0 4.258-1.768 4.258-4.698 0-2.914-1.627-4.69-4.258-4.69-2.64 0-4.267 1.776-4.267 4.69 0 2.93 1.619 4.698 4.267 4.698m0-1.585c-1.553 0-2.424-1.138-2.424-3.113 0-1.96.871-3.105 2.424-3.105 1.543 0 2.423 1.146 2.423 3.105 0 1.967-.88 3.113-2.423 3.113M115.995 29.074h1.784v-5.338c0-1.27.955-2.125 2.308-2.125.315 0 .847.058.996.108v-1.76c-.191-.05-.531-.074-.797-.074-1.179 0-2.183.647-2.44 1.535h-.133v-1.386h-1.718zM125.514 21.379c1.32 0 2.183.921 2.225 2.34h-4.565c.099-1.41 1.021-2.34 2.34-2.34m2.217 5.254c-.332.706-1.071 1.096-2.15 1.096-1.428 0-2.349-1.005-2.407-2.59v-.1h6.383v-.622c0-2.839-1.519-4.557-4.034-4.557-2.549 0-4.167 1.834-4.167 4.723s1.585 4.665 4.175 4.665c2.067 0 3.511-.996 3.918-2.615zM89.85 25.736c.138 2.22 1.988 3.639 4.741 3.639 2.942 0 4.784-1.489 4.784-3.863 0-1.867-1.05-2.9-3.597-3.493l-1.368-.336c-1.617-.378-2.271-.886-2.271-1.772 0-1.119 1.015-1.85 2.538-1.85 1.445 0 2.443.714 2.624 1.858h1.876c-.112-2.09-1.953-3.561-4.474-3.561-2.71 0-4.517 1.47-4.517 3.682 0 1.824 1.024 2.908 3.27 3.433l1.6.387c1.643.387 2.365.955 2.365 1.901 0 1.102-1.135 1.902-2.684 1.902-1.66 0-2.813-.749-2.977-1.928zM71.363 19.885c-1.228 0-2.29.614-2.839 1.643h-.133v-1.494h-1.718V32.08h1.785v-4.375h.14c.474.955 1.495 1.52 2.782 1.52 2.282 0 3.735-1.802 3.735-4.674s-1.453-4.665-3.752-4.665m-.506 7.736c-1.494 0-2.432-1.179-2.432-3.063 0-1.892.938-3.071 2.44-3.071 1.51 0 2.416 1.154 2.416 3.063 0 1.917-.905 3.071-2.424 3.071M81.36 19.885c-1.229 0-2.291.614-2.839 1.643h-.133v-1.494H76.67V32.08h1.785v-4.375h.14c.474.955 1.495 1.52 2.781 1.52 2.283 0 3.736-1.802 3.736-4.674s-1.453-4.665-3.752-4.665m-.507 7.736c-1.494 0-2.432-1.179-2.432-3.063 0-1.892.938-3.071 2.44-3.071 1.512 0 2.416 1.154 2.416 3.063 0 1.917-.904 3.071-2.424 3.071M63.471 29.074h2.048l-4.483-12.415h-2.073L54.48 29.074h1.98l1.143-3.296h4.733zm-3.57-10.161h.146l1.798 5.248h-3.751zM55.68 7.295v5.989h2.162c1.785 0 2.818-1.1 2.818-3.014 0-1.884-1.042-2.975-2.818-2.975zm.93.846h1.128c1.241 0 1.976.789 1.976 2.142 0 1.374-.722 2.154-1.976 2.154H56.61zM63.825 13.37c1.32 0 2.13-.883 2.13-2.348 0-1.457-.814-2.345-2.13-2.345-1.32 0-2.133.888-2.133 2.345 0 1.465.81 2.349 2.133 2.349m0-.792c-.776 0-1.212-.569-1.212-1.556 0-.98.436-1.553 1.212-1.553.772 0 1.212.573 1.212 1.553 0 .983-.44 1.556-1.212 1.556M72.847 8.764h-.893l-.805 3.449h-.07l-.93-3.45h-.855l-.93 3.45h-.066l-.81-3.45h-.904l1.245 4.52h.917l.93-3.328h.07l.934 3.329h.926zM73.874 13.284h.892V10.64c0-.706.42-1.146 1.08-1.146s.975.361.975 1.088v2.702h.892v-2.926c0-1.075-.556-1.681-1.564-1.681-.681 0-1.13.303-1.35.805h-.066v-.718h-.859zM79.119 13.284h.892V7h-.892zM83.367 13.37c1.32 0 2.13-.883 2.13-2.348 0-1.457-.814-2.345-2.13-2.345-1.32 0-2.133.888-2.133 2.345 0 1.465.809 2.349 2.133 2.349m0-.792c-.776 0-1.212-.569-1.212-1.556 0-.98.436-1.553 1.212-1.553.772 0 1.212.573 1.212 1.553 0 .983-.44 1.556-1.212 1.556M88.155 12.607c-.486 0-.838-.236-.838-.643 0-.399.282-.61.904-.652l1.104-.07v.377c0 .56-.498.988-1.17.988m-.228.751c.593 0 1.087-.257 1.357-.71h.07v.636h.86v-3.088c0-.955-.64-1.52-1.773-1.52-1.025 0-1.755.499-1.847 1.275h.864c.1-.32.444-.502.942-.502.61 0 .925.27.925.747v.39l-1.224.07c-1.075.067-1.681.536-1.681 1.35 0 .825.635 1.352 1.507 1.352M93.242 13.358c.622 0 1.15-.294 1.419-.788h.07v.714h.856V7h-.893v2.482h-.066c-.245-.498-.768-.793-1.386-.793-1.142 0-1.876.905-1.876 2.333 0 1.432.726 2.336 1.876 2.336m.253-3.868c.747 0 1.216.594 1.216 1.536 0 .946-.465 1.531-1.216 1.531-.756 0-1.208-.577-1.208-1.535 0-.95.456-1.532 1.208-1.532M101.373 13.37c1.32 0 2.129-.883 2.129-2.348 0-1.457-.813-2.345-2.129-2.345-1.32 0-2.133.888-2.133 2.345 0 1.465.809 2.349 2.133 2.349m0-.792c-.776 0-1.212-.569-1.212-1.556 0-.98.436-1.553 1.212-1.553.772 0 1.212.573 1.212 1.553 0 .983-.44 1.556-1.212 1.556M104.683 13.284h.893V10.64c0-.706.419-1.146 1.079-1.146s.975.361.975 1.088v2.702h.892v-2.926c0-1.075-.556-1.681-1.564-1.681-.681 0-1.129.303-1.349.805h-.067v-.718h-.859zM112.632 7.64v1.145h-.718v.75h.718v2.553c0 .872.394 1.22 1.386 1.22.175 0 .341-.02.486-.045v-.743c-.125.013-.203.02-.34.02-.444 0-.639-.207-.639-.68V9.536h.979v-.751h-.979V7.639zM115.702 13.284h.892v-2.64c0-.685.407-1.145 1.137-1.145.631 0 .967.365.967 1.087v2.698h.893v-2.918c0-1.075-.594-1.685-1.557-1.685-.68 0-1.158.303-1.378.81h-.07V7h-.884zM122.81 9.436c.66 0 1.091.461 1.112 1.17h-2.283c.05-.705.511-1.17 1.171-1.17m1.108 2.627c-.166.353-.535.548-1.075.548-.714 0-1.175-.502-1.204-1.295v-.05h3.192v-.31c0-1.42-.76-2.28-2.017-2.28-1.274 0-2.084.918-2.084 2.362 0 1.445.793 2.333 2.088 2.333 1.034 0 1.756-.498 1.959-1.308zM44.797 18.885a4.99 4.99 0 0 1 2.357-4.153 5.13 5.13 0 0 0-3.991-2.157c-1.68-.176-3.307 1.005-4.163 1.005-.873 0-2.19-.988-3.609-.959a5.36 5.36 0 0 0-4.473 2.728c-1.934 3.349-.491 8.27 1.362 10.977.926 1.325 2.01 2.805 3.427 2.753 1.387-.058 1.905-.885 3.58-.885 1.658 0 2.144.885 3.59.851 1.489-.024 2.427-1.33 3.321-2.669a11 11 0 0 0 1.519-3.092 4.83 4.83 0 0 1-2.92-4.4M42.066 10.795a4.87 4.87 0 0 0 1.114-3.49 4.96 4.96 0 0 0-3.207 1.659 4.68 4.68 0 0 0-1.144 3.361 4.15 4.15 0 0 0 3.237-1.53"/><rect width="159" height="39" x=".5" y=".5" stroke="#fff" rx="7.5"/></svg>