<svg xmlns="http://www.w3.org/2000/svg" width="160" height="40" fill="none"><path fill="#fff" d="M80.524 21.723c-2.327 0-4.222 1.769-4.222 4.206 0 2.422 1.895 4.206 4.221 4.206 2.328 0 4.224-1.784 4.224-4.206-.001-2.437-1.897-4.206-4.224-4.206m0 6.756c-1.275 0-2.374-1.05-2.374-2.55 0-1.513 1.1-2.549 2.373-2.549 1.275 0 2.374 1.036 2.374 2.55 0 1.497-1.099 2.55-2.374 2.55m-9.212-6.756c-2.326 0-4.222 1.769-4.222 4.206 0 2.422 1.896 4.206 4.222 4.206s4.223-1.784 4.223-4.206c0-2.437-1.896-4.206-4.223-4.206m0 6.756c-1.275 0-2.374-1.05-2.374-2.55 0-1.513 1.1-2.549 2.374-2.549s2.374 1.036 2.374 2.55c0 1.497-1.1 2.55-2.374 2.55m-10.956-5.465v1.784h4.27c-.127 1.004-.462 1.737-.972 2.246-.621.622-1.593 1.307-3.298 1.307-2.629 0-4.684-2.12-4.684-4.748 0-2.63 2.055-4.748 4.684-4.748 1.418 0 2.453.557 3.218 1.274l1.259-1.259c-1.068-1.02-2.485-1.8-4.477-1.8-3.601 0-6.629 2.932-6.629 6.533 0 3.6 3.028 6.532 6.629 6.532 1.943 0 3.41-.638 4.556-1.833 1.179-1.178 1.546-2.836 1.546-4.174a5.8 5.8 0 0 0-.096-1.115zm44.809 1.386c-.35-.94-1.418-2.677-3.601-2.677-2.166 0-3.967 1.705-3.967 4.206 0 2.358 1.785 4.206 4.174 4.206 1.928 0 3.043-1.179 3.506-1.864l-1.434-.957c-.478.702-1.131 1.163-2.072 1.163-.939 0-1.609-.43-2.04-1.274l5.625-2.326zm-5.736 1.402c-.047-1.626 1.259-2.453 2.2-2.453.733 0 1.354.366 1.561.892zm-4.572 4.079h1.847V17.517h-1.847zm-3.028-7.218h-.063c-.415-.494-1.212-.94-2.215-.94-2.103 0-4.031 1.848-4.031 4.223 0 2.357 1.928 4.19 4.031 4.19 1.004 0 1.8-.446 2.215-.955h.063v.605c0 1.609-.86 2.47-2.246 2.47-1.132 0-1.833-.812-2.12-1.498l-1.609.67c.462 1.114 1.688 2.485 3.729 2.485 2.167 0 4-1.275 4-4.382v-7.552H91.83zM89.71 28.48c-1.274 0-2.342-1.068-2.342-2.533 0-1.483 1.068-2.566 2.342-2.566 1.258 0 2.246 1.083 2.246 2.566 0 1.465-.988 2.533-2.246 2.533m24.113-10.962h-4.422v12.364h1.845v-4.684h2.576c2.045 0 4.057-1.48 4.057-3.84 0-2.358-2.011-3.84-4.056-3.84m.048 5.96h-2.625v-4.239h2.625c1.379 0 2.163 1.143 2.163 2.12 0 .957-.784 2.118-2.163 2.118m11.405-1.776c-1.336 0-2.72.588-3.293 1.893l1.638.683c.35-.683 1.003-.907 1.686-.907.955 0 1.925.573 1.941 1.59v.128c-.334-.19-1.05-.477-1.925-.477-1.765 0-3.563.97-3.563 2.784 0 1.654 1.448 2.72 3.07 2.72 1.24 0 1.924-.558 2.354-1.21h.063v.954h1.782v-4.74c.001-2.194-1.639-3.418-3.753-3.418m-.224 6.776c-.603 0-1.447-.303-1.447-1.05 0-.955 1.051-1.321 1.958-1.321.81 0 1.192.175 1.685.413a2.24 2.24 0 0 1-2.196 1.958m10.467-6.506-2.116 5.36h-.063l-2.196-5.36h-1.987l3.292 7.491-1.877 4.168h1.924l5.075-11.66zm-16.621 7.91h1.844V17.517h-1.844zM60.034 10.34q0 1.245-.737 1.982-.838.878-2.18.878-1.286 0-2.184-.89-.9-.89-.899-2.209 0-1.318.9-2.208.897-.891 2.183-.891.638 0 1.217.248.581.249.928.663l-.521.522q-.589-.704-1.625-.704-.937 0-1.621.659-.684.66-.683 1.71 0 1.053.683 1.711.684.66 1.62.66.995 0 1.658-.664.43-.431.498-1.201h-2.155v-.713h2.875q.043.232.042.448M64.593 7.862H61.89v1.881h2.437v.714H61.89v1.88h2.702v.73h-3.465V7.135h3.465zM67.808 13.068h-.763V7.862h-1.657v-.728h4.078v.728h-1.658zM72.416 13.068V7.134h.762v5.934zM76.56 13.068h-.763V7.862H74.14v-.728h4.077v.728H76.56zM85.936 12.301q-.874.9-2.176.899-1.3 0-2.174-.899-.876-.9-.875-2.2 0-1.302.875-2.201.873-.9 2.174-.9 1.294 0 2.172.904.879.903.879 2.197 0 1.3-.875 2.2m-3.788-.497q.66.667 1.612.666.954 0 1.612-.666.66-.668.66-1.703t-.66-1.704a2.17 2.17 0 0 0-1.612-.666 2.18 2.18 0 0 0-1.612.666q-.657.668-.658 1.704 0 1.034.658 1.703M87.88 13.068V7.134h.928l2.884 4.615h.033l-.033-1.143V7.134h.763v5.934h-.796l-3.018-4.84h-.032l.032 1.143v3.697z"/><path stroke="#fff" stroke-miterlimit="10" stroke-width=".2" d="M60.034 10.34q0 1.245-.737 1.982-.838.878-2.18.878-1.286 0-2.184-.89-.9-.89-.899-2.209 0-1.318.9-2.208.897-.891 2.183-.891.638 0 1.217.248.581.249.928.663l-.521.522q-.589-.704-1.625-.704-.937 0-1.621.659-.684.66-.683 1.71 0 1.053.683 1.711.684.66 1.62.66.995 0 1.658-.664.43-.431.498-1.201h-2.155v-.713h2.875q.043.232.042.448ZM64.593 7.862H61.89v1.881h2.437v.714H61.89v1.88h2.702v.73h-3.465V7.135h3.465zM67.808 13.068h-.763V7.862h-1.657v-.728h4.078v.728h-1.658zM72.416 13.068V7.134h.762v5.934zM76.56 13.068h-.763V7.862H74.14v-.728h4.077v.728H76.56zM85.936 12.301q-.874.9-2.176.899-1.3 0-2.174-.899-.876-.9-.875-2.2 0-1.302.875-2.201.873-.9 2.174-.9 1.294 0 2.172.904.879.903.879 2.197 0 1.3-.875 2.2Zm-3.788-.497q.66.667 1.612.666.954 0 1.612-.666.66-.668.66-1.703t-.66-1.704a2.17 2.17 0 0 0-1.612-.666 2.18 2.18 0 0 0-1.612.666q-.657.668-.658 1.704 0 1.034.658 1.703ZM87.88 13.068V7.134h.928l2.884 4.615h.033l-.033-1.143V7.134h.763v5.934h-.796l-3.018-4.84h-.032l.032 1.143v3.697z"/><path fill="#fff" d="m39.509 24.425-13.996 7.953c-.626.355-1.198.414-1.639.227l11.907-11.908zm-4.435-4.435L23.18 31.887a2.4 2.4 0 0 1-.179-.96V9.056c0-.375.064-.697.179-.96zm9.725-1.426c1.382.785 1.382 2.07 0 2.856l-4.388 2.493-3.923-3.923 3.92-3.922zM23.874 7.376c.44-.186 1.014-.127 1.639.228l13.994 7.953-3.726 3.726z"/><rect width="159" height="39" x=".5" y=".5" stroke="#fff" rx="7.5"/></svg>