<svg xmlns="http://www.w3.org/2000/svg" width="160" height="40" fill="none"><path fill="#fff" d="M26.797 19.58a4.95 4.95 0 0 1 2.357-4.151 5.07 5.07 0 0 0-3.991-2.158c-1.68-.176-3.308 1.005-4.163 1.005-.872 0-2.19-.988-3.609-.958a5.32 5.32 0 0 0-4.473 2.727c-1.934 3.349-.491 8.27 1.362 10.976.927 1.326 2.01 2.806 3.427 2.754 1.387-.058 1.905-.885 3.58-.885 1.658 0 2.144.885 3.59.851 1.489-.024 2.427-1.33 3.321-2.669a11 11 0 0 0 1.519-3.092 4.78 4.78 0 0 1-2.92-4.4M24.066 11.49A4.87 4.87 0 0 0 25.18 8a4.96 4.96 0 0 0-3.207 1.66 4.64 4.64 0 0 0-1.144 3.361 4.1 4.1 0 0 0 3.237-1.53M48.178 29.776v-9.14h-.06l-3.744 9.045h-1.429l-3.753-9.045h-.06v9.14h-1.755V17.358h2.23l4.018 9.802h.068l4.011-9.802h2.237v12.418zM51.425 27.203c0-1.583 1.213-2.54 3.365-2.668l2.479-.138v-.688c0-1.007-.663-1.576-1.791-1.576a1.73 1.73 0 0 0-1.902 1.275h-1.738c.052-1.636 1.575-2.797 3.691-2.797 2.16 0 3.59 1.178 3.59 2.96v6.205h-1.782v-1.49h-.043a3.24 3.24 0 0 1-2.857 1.645 2.743 2.743 0 0 1-3.012-2.728m5.844-.818v-.697l-2.23.138c-1.11.07-1.738.55-1.738 1.325 0 .792.654 1.308 1.652 1.308a2.17 2.17 0 0 0 2.316-2.074M66.922 23.838a2 2 0 0 0-2.134-1.67c-1.429 0-2.375 1.197-2.375 3.082 0 1.927.955 3.089 2.392 3.089a1.95 1.95 0 0 0 2.117-1.626h1.79a3.62 3.62 0 0 1-3.924 3.175c-2.582 0-4.268-1.764-4.268-4.638 0-2.815 1.686-4.64 4.25-4.64a3.64 3.64 0 0 1 3.925 3.227zM80.788 26.42h-4.733l-1.137 3.356h-2.005l4.484-12.418h2.082l4.484 12.418h-2.04zm-4.243-1.55h3.752l-1.85-5.447h-.051zM93.646 25.25c0 2.813-1.506 4.62-3.779 4.62a3.07 3.07 0 0 1-2.848-1.583h-.043v4.484h-1.859V20.722h1.799v1.506h.034a3.21 3.21 0 0 1 2.883-1.6c2.298 0 3.813 1.816 3.813 4.622m-1.91 0c0-1.834-.948-3.039-2.393-3.039-1.42 0-2.375 1.23-2.375 3.039 0 1.824.955 3.045 2.375 3.045 1.445 0 2.392-1.196 2.392-3.046M103.61 25.25c0 2.813-1.505 4.62-3.778 4.62a3.07 3.07 0 0 1-2.849-1.583h-.043v4.484h-1.858V20.722h1.799v1.506h.034a3.21 3.21 0 0 1 2.883-1.6c2.298 0 3.812 1.816 3.812 4.622m-1.91 0c0-1.834-.947-3.039-2.392-3.039-1.42 0-2.375 1.23-2.375 3.039 0 1.824.955 3.045 2.375 3.045 1.445 0 2.392-1.196 2.392-3.046M110.196 26.316c.138 1.231 1.334 2.04 2.969 2.04 1.566 0 2.693-.809 2.693-1.919 0-.964-.679-1.541-2.289-1.937l-1.609-.387c-2.28-.551-3.339-1.617-3.339-3.348 0-2.142 1.867-3.614 4.519-3.614 2.624 0 4.423 1.472 4.483 3.614h-1.876c-.112-1.24-1.137-1.987-2.634-1.987s-2.521.757-2.521 1.858c0 .878.654 1.395 2.255 1.79l1.368.336c2.548.603 3.606 1.626 3.606 3.443 0 2.323-1.85 3.778-4.794 3.778-2.754 0-4.613-1.421-4.733-3.667zM121.832 18.58v2.142h1.722v1.472h-1.722v4.991c0 .775.345 1.137 1.102 1.137q.306-.006.611-.043v1.463q-.511.095-1.032.086c-1.833 0-2.548-.689-2.548-2.445v-5.19h-1.317v-1.47h1.317V18.58zM124.55 25.25c0-2.85 1.678-4.64 4.294-4.64 2.625 0 4.295 1.79 4.295 4.64 0 2.856-1.661 4.638-4.295 4.638s-4.294-1.782-4.294-4.639m6.695 0c0-1.955-.895-3.108-2.401-3.108s-2.402 1.162-2.402 3.108c0 1.961.896 3.106 2.402 3.106s2.401-1.145 2.401-3.107M134.672 20.722h1.772v1.541h.043a2.16 2.16 0 0 1 2.178-1.636q.322 0 .637.07v1.738a2.6 2.6 0 0 0-.835-.112 1.872 1.872 0 0 0-1.937 2.083v5.37h-1.858zM147.869 27.117c-.25 1.643-1.85 2.771-3.898 2.771-2.634 0-4.269-1.765-4.269-4.596 0-2.84 1.644-4.681 4.191-4.681 2.504 0 4.08 1.72 4.08 4.466v.636h-6.395v.113a2.35 2.35 0 0 0 .639 1.832 2.36 2.36 0 0 0 1.797.732 2.045 2.045 0 0 0 2.091-1.273zm-6.282-2.703h4.526a2.17 2.17 0 0 0-.608-1.634 2.18 2.18 0 0 0-1.612-.663 2.29 2.29 0 0 0-2.306 2.297M39.155 8.294a2.64 2.64 0 0 1 2.808 2.965c0 1.906-1.03 3.002-2.808 3.002H37V8.294zm-1.228 5.123h1.125a1.875 1.875 0 0 0 1.968-2.146 1.88 1.88 0 0 0-1.968-2.134h-1.125zM43.01 12.008a2.134 2.134 0 1 1 4.247 0 2.132 2.132 0 1 1-4.247 0m3.333 0c0-.976-.438-1.547-1.208-1.547-.772 0-1.207.57-1.207 1.547 0 .983.435 1.55 1.207 1.55.77 0 1.208-.57 1.208-1.55M52.902 14.261h-.922l-.93-3.316h-.07l-.927 3.316h-.913l-1.242-4.503h.902l.806 3.436h.067l.926-3.436h.852l.926 3.436h.07l.803-3.436h.889zM55.183 9.758h.855v.715h.067a1.35 1.35 0 0 1 1.343-.802 1.465 1.465 0 0 1 1.559 1.675v2.915h-.889v-2.692c0-.724-.314-1.083-.971-1.083a1.032 1.032 0 0 0-1.076 1.14v2.635h-.888zM60.423 8h.889v6.261h-.89zM62.547 12.008a2.132 2.132 0 0 1 4.148-.877c.094.282.128.58.1.877a2.132 2.132 0 1 1-4.248 0m3.333 0c0-.976-.438-1.547-1.208-1.547-.772 0-1.207.57-1.207 1.547 0 .983.435 1.55 1.207 1.55.77 0 1.208-.57 1.208-1.55M67.73 12.988c0-.811.603-1.278 1.674-1.345l1.22-.07v-.389c0-.475-.314-.744-.922-.744-.496 0-.84.182-.938.5h-.86c.09-.773.818-1.269 1.84-1.269 1.128 0 1.765.562 1.765 1.513v3.077h-.856v-.633h-.07a1.52 1.52 0 0 1-1.352.707 1.36 1.36 0 0 1-1.501-1.348m2.894-.385v-.377l-1.1.07c-.62.042-.901.253-.901.65 0 .405.352.641.835.641a1.06 1.06 0 0 0 1.166-.984M72.677 12.008c0-1.423.731-2.325 1.869-2.325a1.48 1.48 0 0 1 1.38.79h.067V8h.889v6.261h-.852v-.711h-.07a1.56 1.56 0 0 1-1.414.785c-1.146 0-1.87-.901-1.87-2.327m.918 0c0 .955.45 1.53 1.203 1.53.749 0 1.212-.584 1.212-1.527 0-.938-.468-1.53-1.212-1.53-.748 0-1.203.58-1.203 1.527M80.559 12.008a2.134 2.134 0 1 1 4.247 0 2.134 2.134 0 1 1-4.247 0m3.333 0c0-.976-.439-1.547-1.208-1.547-.773 0-1.207.57-1.207 1.547 0 .984.434 1.55 1.207 1.55.77 0 1.208-.57 1.208-1.55M85.998 9.758h.855v.715h.067a1.35 1.35 0 0 1 1.344-.802 1.465 1.465 0 0 1 1.558 1.675v2.915h-.888v-2.692c0-.724-.315-1.083-.972-1.083a1.033 1.033 0 0 0-1.075 1.14v2.635h-.889zM94.845 8.637v1.142h.975v.748h-.975v2.316c0 .471.194.678.636.678q.17-.001.34-.02v.74q-.24.042-.484.045c-.988 0-1.382-.348-1.382-1.216v-2.543h-.715V9.78h.715V8.637zM97.033 8h.881v2.482h.07a1.39 1.39 0 0 1 1.373-.807 1.483 1.483 0 0 1 1.551 1.679v2.907h-.889v-2.688c0-.72-.335-1.084-.963-1.084a1.053 1.053 0 0 0-1.134 1.142v2.63h-.889zM106.09 13.045a1.82 1.82 0 0 1-1.951 1.303 2.05 2.05 0 0 1-2.01-1.447 2.1 2.1 0 0 1-.07-.877 2.077 2.077 0 0 1 2.076-2.353c1.253 0 2.009.856 2.009 2.27v.31h-3.179v.05a1.19 1.19 0 0 0 1.199 1.29 1.08 1.08 0 0 0 1.071-.546zm-3.126-1.45h2.275a1.09 1.09 0 0 0-.667-1.085 1.1 1.1 0 0 0-.441-.082 1.15 1.15 0 0 0-1.167 1.166"/><rect width="159" height="39" x=".5" y=".5" stroke="#fff" rx="7.5"/></svg>