<svg xmlns="http://www.w3.org/2000/svg" width="160" height="40" fill="none"><rect width="159" height="39" x=".5" y=".5" stroke="#fff" rx="7.5"/><path fill="#fff" d="M33 7v12h12V7zM33 20v12h12V20zM20 7v12h12V7zM20 20v12h12V20zM70.875 18.127c.572 0 1.07.116 1.506.34v1.12c-.483-.358-.996-.53-1.547-.53q-.998 0-1.637.754c-.425.503-.641 1.159-.641 1.977 0 .804.2 1.443.6 1.908s.935.692 1.609.692q.852 0 1.601-.598v1.046c-.5.317-1.088.483-1.773.483-.928 0-1.682-.321-2.251-.958q-.856-.956-.857-2.479c0-1.13.311-2.037.925-2.723s1.44-1.032 2.465-1.032m10.481 0q1.455-.001 2.272.944.815.946.814 2.62c0 1.096-.297 1.978-.883 2.637s-1.368.99-2.355.99q-1.444-.001-2.306-.964-.861-.963-.863-2.553 0-1.73.898-2.703.897-.971 2.423-.971m6.864 0c.563 0 1.06.106 1.505.312v1.114a2.8 2.8 0 0 0-1.644-.496 1.9 1.9 0 0 0-.532.069 1.3 1.3 0 0 0-.407.196.9.9 0 0 0-.255.305.85.85 0 0 0-.097.395c0 .179.035.327.097.448q.09.18.27.32.196.156.427.257.256.112.58.244.397.16.773.36.345.184.587.415c.16.152.287.335.373.537q.13.299.131.713c0 .34-.072.64-.214.89a1.9 1.9 0 0 1-.566.618 2.6 2.6 0 0 1-.821.373q-.465.121-.974.122c-.67 0-1.249-.142-1.74-.414V23.73c.568.442 1.189.658 1.871.658q1.373.001 1.374-.964a.86.86 0 0 0-.117-.462 1.2 1.2 0 0 0-.318-.338 2.4 2.4 0 0 0-.47-.266q-.269-.117-.58-.244a8 8 0 0 1-.766-.367 2.2 2.2 0 0 1-.538-.415 1.6 1.6 0 0 1-.332-.53 2 2 0 0 1-.11-.692c0-.322.067-.602.207-.85q.21-.372.56-.624a2.6 2.6 0 0 1 .8-.38q.449-.13.926-.13m6.274 0q1.455-.001 2.272.944.815.946.814 2.62c0 1.096-.297 1.978-.884 2.637s-1.367.99-2.354.99q-1.444-.001-2.306-.964c-.574-.641-.863-1.495-.863-2.554q0-1.73.897-2.702.898-.971 2.424-.971m19.692-2.744q1.345-.001 1.96.34v1.263c-.538-.393-1.229-.584-2.072-.584q-.352 0-.697.075a1.9 1.9 0 0 0-.621.251 1.4 1.4 0 0 0-.449.448 1.25 1.25 0 0 0-.172.672q0 .37.131.639.132.268.386.49c.17.147.371.288.615.427q.416.235.842.455.479.246.932.536.42.268.767.625.33.34.524.754.193.415.193.951.001.713-.262 1.21a2.25 2.25 0 0 1-.711.8q-.45.306-1.035.441c-.39.092-.798.143-1.23.143a7.058 7.058 0 0 1-1.181-.15c-.219-.047-.43-.1-.627-.17a2 2 0 0 1-.477-.23v-1.331c.144.134.324.252.524.36q.307.163.636.272c.222.073.438.135.662.176q.309.055.622.054c.657 0 1.154-.123 1.478-.38s.49-.631.49-1.114c0-.26-.058-.48-.166-.673a1.9 1.9 0 0 0-.448-.529 4.4 4.4 0 0 0-.677-.455q-.418-.235-.843-.462a14 14 0 0 1-.884-.517 4 4 0 0 1-.724-.577 2.4 2.4 0 0 1-.477-.713 2.3 2.3 0 0 1-.178-.93c0-.438.094-.824.276-1.148.175-.316.421-.59.718-.802.296-.21.629-.364 1.008-.467s.773-.15 1.167-.15m11.316 2.744q1.454-.001 2.27.944t.816 2.62c0 1.096-.297 1.978-.884 2.637s-1.367.99-2.354.99q-1.444-.001-2.306-.964t-.863-2.553q0-1.73.897-2.703.898-.971 2.424-.971m11.834 0q1.276.002 1.975.875c.465.581.689 1.386.689 2.418v.578h-4.591q.027 1.144.587 1.765.56.625 1.54.625 1.1.001 2.023-.76v1.032q-.86.657-2.272.659c-.919 0-1.649-.314-2.175-.938s-.787-1.504-.787-2.634q.002-1.601.863-2.609c.575-.672 1.297-1.012 2.148-1.012m-35.634-3.28c.318 0 .573.034.76.114v.992a1.35 1.35 0 0 0-.697-.176q-1.092-.001-1.091 1.453v1.06h2.974v-1.678l1.043-.354v2.032h1.644v.936h-1.644v3.872q0 .69.221.985.223.293.739.292.396.002.684-.224v.936c-.246.143-.578.218-.981.218-1.139 0-1.705-.677-1.705-2.017v-4.06h-2.975v5.928h-1.03v-5.929h-1.118v-.937h1.118v-1.115q-.001-1.078.587-1.704a1.93 1.93 0 0 1 1.471-.625m17.883 3.443h1.636v.936h-1.636v3.872q-.001.69.221.985c.148.196.388.292.731.292q.396.002.684-.224v.936c-.246.143-.565.218-.967.218-1.139 0-1.712-.677-1.712-2.017v-4.062h-1.118v-.936h1.118v-1.678l1.043-.354zm-62.146 3.953c.215.514.358.9.421 1.154h.035c.182-.527.324-.923.434-1.182l2.852-6.675h1.34v9.616h-1.064v-6.452c0-.51.037-1.13.097-1.868h-.028a6 6 0 0 1-.276.93l-3.113 7.39h-.526l-3.106-7.335c-.09-.215-.176-.542-.27-.985h-.027q.053.576.055 1.881v6.439h-1.029V15.54h1.409zm8.382 2.913h-1.036V18.29h1.036zm10.91-6.988q.405 0 .62.094v1.14c-.182-.146-.45-.223-.793-.223q-.666.002-1.113.666c-.298.442-.448 1.049-.448 1.813v3.498h-1.043V18.29h1.043v1.413h.027q.225-.724.684-1.128.457-.406 1.023-.407m56.289 0c.271 0 .484.032.627.094v1.14q-.273-.221-.787-.223-.668.002-1.118.666c-.298.442-.448 1.049-.448 1.813v3.498h-1.043V18.29h1.043v1.413h.02q.225-.724.684-1.128.457-.406 1.022-.407m-51.747.89q-1.003 0-1.587.719c-.39.48-.58 1.139-.58 1.983 0 .813.193 1.46.586 1.929q.59.702 1.581.7c.674 0 1.199-.226 1.561-.686s.538-1.121.538-1.97c0-.858-.176-1.518-.538-1.983s-.887-.693-1.56-.693m13.14 0q-1.005 0-1.589.719c-.39.48-.58 1.139-.58 1.983 0 .813.193 1.46.587 1.929q.59.702 1.581.7c.673 0 1.198-.226 1.56-.686s.539-1.121.539-1.97c0-.858-.176-1.518-.538-1.983s-.888-.693-1.56-.693m31.006 0q-1.003 0-1.588.719c-.39.48-.58 1.139-.58 1.983 0 .813.193 1.46.587 1.929q.59.702 1.581.7c.673 0 1.198-.226 1.56-.686s.539-1.121.539-1.97c0-.858-.176-1.518-.539-1.983-.361-.465-.887-.693-1.56-.693m11.895 0c-.491 0-.912.178-1.255.549-.343.37-.555.861-.636 1.46h3.515c-.005-.635-.15-1.134-.436-1.487-.25-.309-.583-.478-1.002-.515zm-71.997-3.94a.66.66 0 0 1 .49.204q.2.206.2.515a.7.7 0 0 1-.2.503.66.66 0 0 1-.49.204.65.65 0 0 1-.483-.197.7.7 0 0 1-.193-.51c0-.205.062-.38.193-.515a.65.65 0 0 1 .483-.204"/><path fill="#fff" d="M70.875 18.127v-.25zm1.506.34h.25v-.153l-.136-.07zm0 1.12-.149.2.399.296v-.497zm-1.547-.53v-.25zm-1.637.754-.19-.162zm-.641 1.977h-.25zm.6 1.908.19-.163zm1.609.692v.25zm1.601-.598h.25v-.518l-.406.323zm0 1.046.134.212.116-.074v-.138zm-1.773.483v.25zm-2.251-.958.186-.167zm-.857-2.479h-.25zm.925-2.723.186.166zm12.946-1.032v-.25zm2.272.944-.19.163zm.814 2.62h.25zm-.883 2.637.186.166zm-2.355.99v.25zm-2.306-.964.187-.167zm-.863-2.553h-.25zm.898-2.703.183.17zm9.287-.971v-.25zm1.505.312h.25v-.16l-.145-.067zm0 1.114-.142.206.392.27v-.476zm-1.644-.496v-.25zm-.532.069.072.239zm-.407.196-.151-.2zm-.255.305.222.116v-.003zm-.097.395h-.25zm.097.448-.223.113v.001zm.27.32-.156.196zm.427.257.102-.228zm.58.244-.096.232h.003zm.773.36.119-.22zm.587.415.173-.18zm.373.537-.23.099h.001zm.131.713h.25zm-.214.89-.217-.124zm-.566.618-.142-.206zm-.821.373-.062-.242h-.001zm-.974.122v.25zm-1.74-.414h-.25v.147l.129.071zm0-1.175.154-.197-.404-.315v.512zm1.871.658v.25zm1.374-.964h.25zm-.117-.462.213-.13-.001-.002zm-.318-.338-.146.202zm-.47-.266-.099.23h.002zm-.58-.244-.096.23.002.001zm-.766-.367-.123.217zm-.538-.415.182-.171zm-.332-.53.234-.087zm-.11-.692h-.25zm.207-.85-.218-.123zm.56-.624-.147-.203zm.8-.38-.069-.241zm7.2-.13v-.25zm2.272.945-.19.163zm.814 2.62h.25zm-.884 2.637.187.166zm-2.354.99v.25zm-2.306-.964.186-.167zm-.863-2.554h-.25zm.897-2.702.184.17zm22.116-3.715v-.25zm1.96.34h.25v-.147l-.129-.071zm0 1.263-.148.202.398.29v-.492zm-2.072-.584v.25zm-.697.075-.054-.244zm-.621.251.134.21zm-.449.448-.213-.132zm-.172.672h-.25zm.131.639-.225.109zm.386.49-.164.188zm.615.427-.124.217h.001zm.842.455-.114.222zm.932.536-.134.21zm.767.625.179-.174zm.524.754-.227.105zm.193.951h.25zm-.262 1.21-.221-.119zm-.711.8.141.206h.001zm-1.035.441-.058-.243zm-1.23.143v.25zm-.531-.041-.029.248zm-.65-.109-.052.245h.001zm-.627-.17-.084.236h.001zm-.477-.23h-.25v.129l.104.074zm0-1.331.17-.183-.42-.391v.574zm.524.36-.117.22zm.636.272-.079.237h.001zm.662.176-.044.246zm.622.054v-.25zm1.478-.38.155.196zm.49-1.114h.25zm-.166-.673-.218.122v.001zm-.448-.529-.16.192zm-.677-.455-.122.218zm-.843-.462.118-.22zm-.884-.517.134-.21zm-.724-.577-.18.174zm-.477-.713.23-.099h-.001zm-.178-.93h-.25zm.276-1.148.218.123.001-.002zm.718-.802-.145-.204zm1.008-.467.065.241zm12.483 2.594v-.25zm2.27.944-.189.163zm.816 2.62h.25zm-.884 2.637.187.166zm-2.354.99v.25zm-2.306-.964-.186.167zm-.863-2.553h-.25zm.897-2.703-.184-.17zm14.258-.971v-.25zm1.975.875-.196.157h.001zm.689 2.996v.25h.25v-.25zm-4.591 0v-.25h-.255l.005.255zm.587 1.765-.186.167zm1.54.625v.25zm2.023-.76h.25v-.533l-.41.34zm0 1.032.152.198.098-.075v-.123zm-2.272.659v.25zm-2.175-.938-.191.161zm-.787-2.634h-.25zm.863-2.609-.19-.162zm-33.486-4.292v-.25zm.76.115h.25v-.164l-.151-.065zm0 .992-.128.215.378.223v-.438zm-.697-.176v-.25zm-1.091 1.453h-.25zm0 1.06h-.25v.25h.25zm2.974 0v.25h.25v-.25zm0-1.678-.08-.237-.17.058v.179zm1.043-.354h.25v-.348l-.33.111zm0 2.032h-.25v.25h.25zm1.644 0h.25v-.25h-.25zm0 .936v.25h.25v-.25zm-1.644 0v-.25h-.25v.25zm0 3.872h-.25zm.221.985-.2.15zm.739.292v.25zm.684-.224h.25v-.52l-.406.324zm0 .936.126.216.124-.072v-.144zm-.981.218v.25zm-1.705-6.078h.25v-.25h-.25zm-2.975 0v-.25h-.25v.25zm0 5.929v.25h.25v-.25zm-1.03 0h-.25v.25h.25zm0-5.929h.25v-.25h-.25zm-1.118 0h-.25v.25h.25zm0-.937v-.25h-.25v.25zm1.118 0v.25h.25v-.25zm0-1.115h-.25zm.587-1.704.182.172zm19.354 2.819h-.25v.25h.25zm1.636 0h.25v-.25h-.25zm0 .936v.25h.25v-.25zm-1.636 0v-.25h-.25v.25zm0 3.872h-.25zm.221.985-.2.15zm.731.292v.25zm.684-.224h.25v-.52l-.406.325zm0 .936.126.216.124-.072v-.144zm-.967.218v.25zm-1.712-6.079h.25v-.25h-.25zm-1.118 0h-.25v.25h.25zm0-.936v-.25h-.25v.25zm1.118 0v.25h.25v-.25zm0-1.678-.08-.237-.17.058v.179zm1.043-.354h.25v-.348l-.33.111zm-62.146 5.985-.231.096zm.421 1.154-.242.06.047.19h.195zm.035 0v.25h.178l.058-.168zm.434-1.182-.23-.098zm2.852-6.675v-.25h-.165l-.065.151zm1.34 0h.25v-.25h-.25zm0 9.616v.25h.25v-.25zm-1.064 0h-.25v.25h.25zm0-6.452h-.25zm.097-1.868.249.02.022-.27h-.271zm-.028 0v-.25h-.198l-.045.193zm-.276.93-.23-.098v.001zm-3.113 7.39v.25h.166l.064-.153zm-.526 0-.23.097.065.153h.165zm-3.106-7.335-.23.096v.001zm-.27-.985.245-.051-.042-.199h-.203zm-.027 0v-.25h-.273l.024.272zm.055 8.32v.25h.25v-.25zm-1.029 0h-.25v.25h.25zm0-9.616v-.25h-.25v.25zm1.409 0 .23-.097-.064-.153h-.166zm11.178 9.616v.25h.25v-.25zm-1.036 0h-.25v.25h.25zm0-6.866v-.25h-.25v.25zm1.036 0h.25v-.25h-.25zm10.91-.122v-.25zm.62.094h.25v-.164l-.15-.065zm0 1.14-.157.195.408.33v-.524zm-.793-.223v-.25zm-1.113.666-.207-.14zm-.448 1.813h-.25zm0 3.498v.25h.25v-.25zm-1.043 0h-.25v.25h.25zm0-6.866v-.25h-.25v.25zm1.043 0h.25v-.25h-.25zm0 1.413h-.25v.25h.25zm.027 0v.25h.185l.054-.177zm.684-1.128.166.187zm57.312-.407v-.25h-.001zm.627.094h.25v-.164l-.15-.065zm0 1.14-.157.195.407.33v-.524zm-.787-.223v-.25zm-1.118.666-.207-.14zm-.448 1.813h-.25zm0 3.498v.25h.25v-.25zm-1.043 0h-.25v.25h.25zm0-6.866v-.25h-.25v.25zm1.043 0h.25v-.25h-.25zm0 1.413h-.25v.25h.25zm.02 0v.25h.185l.054-.177zm.684-1.128-.166-.187zm-50.725.482v-.25zm-1.587.72.194.157zm-.58 1.983h-.25zm.586 1.929-.191.16zm1.581.7v.25zm1.561-.686.196.154zm.538-1.97h.25zm-.538-1.983.197-.154zm11.578-.693v-.25zm-1.588.72.194.157zm-.58 1.983h-.25zm.587 1.929-.191.16zm1.581.7v.25zm1.56-.686.197.154zm.539-1.97h.25zm-.538-1.983.197-.154zm29.446-.693v-.25zm-1.588.72.194.157zm-.58 1.983h-.25zm.587 1.929-.192.16zm1.581.7v.25zm1.56-.686.197.154zm.539-1.97h.25zm-.539-1.983-.197.153zm10.335-.693.011-.25h-.011zm-1.255.55-.184-.17zm-.636 1.46-.248-.034-.038.284h.286zm3.515 0v.25h.251l-.002-.252zm-.436-1.487.194-.158zm-1.002-.515.022-.25h-.011zm-72.183-3.947v.25h.004zm.49.204-.18.173.002.002zm.2.515h.25zm-.2.503.18.174zm-.49.204v.25zm-.483-.197.179-.175zm-.193-.51h-.25zm.193-.515.18.173zm6.041 2.805v.25c.537 0 .995.108 1.392.312l.114-.223.114-.222q-.711-.367-1.62-.367zm1.506.34h-.25v1.12h.5v-1.12zm0 1.12.149-.201q-.786-.58-1.696-.579v.5c.494 0 .956.153 1.398.48zm-1.547-.53v-.25c-.738 0-1.354.283-1.828.843l.191.161.191.162a1.8 1.8 0 0 1 1.446-.666zm-1.637.754-.19-.162c-.472.558-.701 1.275-.701 2.139h.5c0-.773.203-1.367.582-1.815zm-.641 1.977h-.25c0 .844.21 1.548.66 2.07l.19-.162.19-.163c-.35-.407-.54-.982-.54-1.745zm.6 1.908-.19.163c.454.526 1.062.78 1.799.78v-.5c-.61 0-1.073-.203-1.42-.606zm1.609.692v.25c.631 0 1.219-.224 1.757-.652l-.156-.195-.156-.196c-.461.367-.942.543-1.445.543zm1.601-.598h-.25v1.046h.5v-1.045zm0 1.046-.134-.21c-.455.288-.996.443-1.64.443v.5q1.093-.002 1.908-.521zm-1.773.483v-.25c-.864 0-1.547-.296-2.065-.875l-.186.167-.186.166c.62.695 1.444 1.042 2.437 1.042zm-2.251-.958.186-.167c-.521-.583-.793-1.347-.793-2.312h-.5c0 1.064.302 1.955.92 2.645zm-.857-2.479h.25c0-1.082.297-1.926.861-2.557l-.186-.166-.186-.167c-.664.741-.989 1.712-.989 2.89zm.925-2.723.187.166c.56-.626 1.315-.948 2.278-.948v-.5c-1.087 0-1.984.37-2.651 1.115zm12.946-1.032v.25c.91 0 1.594.291 2.083.857l.189-.163.19-.164c-.6-.695-1.433-1.03-2.462-1.03zm2.272.944-.19.163c.494.571.754 1.38.754 2.458h.5c0-1.156-.28-2.095-.875-2.785zm.814 2.62h-.25c0 1.05-.283 1.867-.82 2.47l.187.167.186.166c.637-.715.947-1.66.947-2.802zm-.883 2.637-.187-.167c-.534.6-1.244.908-2.168.908v.5c1.05 0 1.902-.357 2.541-1.075zm-2.355.99v-.25c-.9 0-1.598-.299-2.12-.88l-.186.166-.186.167c.627.7 1.468 1.048 2.492 1.048zm-2.306-.964.187-.167c-.524-.585-.8-1.374-.8-2.386h-.5c0 1.106.303 2.023.927 2.72zm-.863-2.553h.25c0-1.11.288-1.944.831-2.533l-.183-.17-.184-.17c-.652.707-.964 1.677-.964 2.873zm.898-2.703.183.17c.543-.59 1.281-.892 2.24-.892v-.5c-1.074 0-1.955.345-2.607 1.053zm9.287-.971v.25c.53 0 .991.1 1.4.289l.105-.227.105-.227a3.8 3.8 0 0 0-1.61-.335zm1.505.312h-.25v1.114h.5V18.44zm0 1.114.142-.206a3.06 3.06 0 0 0-1.786-.54v.5c.575 0 1.067.152 1.502.452zm-1.644-.496v-.25c-.212 0-.418.023-.604.079l.072.24.072.239q.192-.058.46-.058zm-.532.069-.072-.24c-.177.053-.344.13-.486.236l.15.2.151.2q.124-.095.329-.157zm-.407.196-.151-.2a1.1 1.1 0 0 0-.328.393l.224.112.223.113a.6.6 0 0 1 .182-.219zm-.255.305-.222-.115c-.08.153-.125.325-.125.51h.5q.002-.152.069-.28zm-.097.395h-.25q0 .319.124.561l.223-.113.223-.113a.74.74 0 0 1-.07-.335zm.097.448-.223.114q.122.234.337.402l.155-.196.155-.197a.7.7 0 0 1-.202-.237zm.27.32-.156.196q.223.174.481.29l.102-.229.101-.228a1.8 1.8 0 0 1-.374-.226zm.427.257-.102.228c.174.079.373.16.587.248l.095-.232.096-.23c-.22-.091-.409-.168-.574-.242zm.58.244-.093.233q.384.153.749.348l.118-.22.117-.22a8 8 0 0 0-.798-.373zm.773.36-.118.221q.32.172.533.375l.172-.181.173-.18a3 3 0 0 0-.641-.454zm.587.415-.172.18c.135.13.242.285.316.456l.23-.099.23-.099a1.9 1.9 0 0 0-.43-.619zm.373.537-.229.1c.07.162.11.363.11.613h.5a2 2 0 0 0-.151-.812zm.131.713h-.25c0 .304-.064.56-.181.766l.218.124.217.123c.167-.294.246-.638.246-1.013zm-.214.89-.217-.123c-.12.212-.288.395-.49.535l.141.206.142.206c.265-.183.485-.423.642-.702zm-.566.618-.142-.206a2.3 2.3 0 0 1-.741.337l.062.242.062.242c.322-.082.628-.22.901-.41zm-.821.373-.063-.242a3.6 3.6 0 0 1-.91.114v.5q.539-.001 1.036-.13zm-.974.122v-.25c-.633 0-1.17-.134-1.619-.383l-.121.219-.121.218q.802.445 1.861.446zm-1.74-.414h.25V23.73h-.5v1.175zm0-1.175-.154.197q.915.712 2.025.711v-.5c-.624 0-1.192-.196-1.718-.605zm1.871.658v.25c.479 0 .883-.082 1.173-.286.307-.215.451-.538.451-.928h-.5c0 .254-.086.413-.237.519-.168.117-.451.195-.887.195zm1.374-.964h.25c0-.22-.047-.418-.154-.592l-.213.13-.213.131c.05.08.08.185.08.331zm-.117-.462.212-.132q-.152-.241-.383-.409l-.147.203-.146.202a1 1 0 0 1 .252.27zm-.318-.338.147-.203a2.6 2.6 0 0 0-.519-.293l-.097.23-.098.23q.224.095.42.238zm-.47-.266.1-.23a30 30 0 0 0-.585-.246l-.094.232-.095.231q.309.127.575.242zm-.58-.244.097-.23a7 7 0 0 1-.74-.355l-.123.218-.122.218c.228.128.498.256.792.38zm-.766-.367.123-.218a2 2 0 0 1-.48-.368l-.181.171-.182.172c.164.174.359.326.597.46zm-.538-.415.181-.171a1.3 1.3 0 0 1-.279-.446l-.234.087-.234.088c.085.228.217.437.385.614zm-.332-.53.234-.088a1.7 1.7 0 0 1-.094-.604h-.5c0 .285.039.549.126.78zm-.11-.692h.25c0-.285.059-.522.174-.727l-.217-.123-.218-.123c-.164.291-.24.615-.24.973zm.207-.85.217.123q.183-.324.488-.544l-.146-.203-.146-.203a2.2 2.2 0 0 0-.631.704zm.56-.624.145.203q.313-.226.723-.343l-.068-.24-.069-.241c-.324.092-.62.233-.878.418zm.8-.38.068.24q.416-.12.858-.12v-.5q-.512.001-.995.139zm7.2-.13v.25c.91 0 1.594.292 2.082.858l.19-.163.189-.164c-.6-.695-1.432-1.03-2.46-1.03zm2.272.945-.19.163c.493.571.754 1.38.754 2.458h.5c0-1.156-.28-2.095-.875-2.785zm.814 2.62h-.25c0 1.05-.283 1.867-.82 2.47l.186.167.187.166c.636-.715.947-1.66.947-2.802zm-.884 2.637-.186-.167c-.535.6-1.244.908-2.168.908v.5c1.05 0 1.901-.357 2.541-1.075zm-2.354.99v-.25c-.9 0-1.599-.299-2.12-.88l-.186.166-.186.167c.627.7 1.468 1.048 2.492 1.048zm-2.306-.964.186-.167c-.524-.585-.8-1.375-.8-2.387h-.5c0 1.106.304 2.024.928 2.72zm-.863-2.554h.25c0-1.11.288-1.944.831-2.532l-.184-.17-.183-.17c-.652.707-.964 1.676-.964 2.872zm.897-2.702.184.17c.543-.59 1.281-.892 2.24-.892v-.5c-1.074 0-1.955.345-2.608 1.053zm22.116-3.715v.25c.888 0 1.486.112 1.838.309l.122-.219.121-.218c-.468-.261-1.174-.372-2.081-.372zm1.96.34h-.25v1.263h.5v-1.263zm0 1.263.147-.202c-.592-.433-1.339-.632-2.219-.632v.5c.806 0 1.44.182 1.924.536zm-2.072-.584.001-.25q-.38 0-.752.08l.054.245.053.244a3 3 0 0 1 .644-.07zm-.697.075-.054-.244q-.387.084-.702.284l.135.211.134.21q.232-.148.541-.217zm-.621.251-.135-.21a1.7 1.7 0 0 0-.527.526l.213.132.212.132a1.2 1.2 0 0 1 .371-.37zm-.449.448-.213-.132c-.143.23-.209.504-.209.804h.5c0-.226.049-.404.134-.54zm-.172.672h-.25c0 .275.049.528.156.748l.225-.11.225-.108a1.2 1.2 0 0 1-.106-.53zm.131.639-.225.11c.104.213.257.402.447.568l.164-.189.165-.188a1.3 1.3 0 0 1-.327-.41zm.386.49-.164.188c.184.16.399.31.655.456l.124-.217.123-.217a3.5 3.5 0 0 1-.573-.4zm.615.427-.123.218q.42.237.851.459l.114-.222.115-.222a27 27 0 0 1-.835-.45zm.842.455-.114.222q.468.241.912.525l.134-.211.135-.21q-.464-.296-.952-.548zm.932.536-.134.21q.396.253.721.59l.18-.175.179-.174a4.5 4.5 0 0 0-.812-.662zm.767.625-.18.174c.202.21.361.436.477.686l.227-.106.227-.106a3 3 0 0 0-.572-.822zm.524.754-.227.106q.169.356.17.845h.5c0-.388-.069-.741-.216-1.057zm.193.951h-.25c0 .444-.081.808-.233 1.091l.221.118.22.118c.2-.374.292-.824.292-1.327zm-.262 1.21-.221-.119q-.235.44-.632.713l.142.206.142.206a2.5 2.5 0 0 0 .789-.889zm-.711.8-.142-.206a2.8 2.8 0 0 1-.951.404l.058.243.057.244a3.3 3.3 0 0 0 1.119-.48zm-1.035.441-.058-.243c-.371.087-.76.136-1.172.136v.5c.452 0 .879-.053 1.287-.15zm-1.23.143v-.25c-.128 0-.291-.015-.502-.04l-.029.249-.029.248c.212.025.4.043.56.043zm-.531-.041.029-.248a7 7 0 0 1-.627-.105l-.052.244-.051.245q.34.073.672.112zm-.65-.109.053-.244a5 5 0 0 1-.598-.161l-.082.236-.083.235c.211.074.433.13.658.179zm-.627-.17.083-.235a1.7 1.7 0 0 1-.414-.198l-.146.203-.146.203c.146.105.332.19.539.263zm-.477-.23h.25v-1.331h-.5v1.331zm0-1.331-.17.183c.165.154.364.284.577.397l.117-.22.118-.221a2.3 2.3 0 0 1-.472-.322zm.524.36-.117.22q.325.173.674.29l.079-.238.079-.238a4 4 0 0 1-.597-.255zm.636.272-.078.237c.227.075.456.141.696.185l.044-.246.045-.246a5 5 0 0 1-.629-.168zm.662.176-.044.246q.33.059.667.058l-.001-.25v-.25q-.29 0-.578-.05zm.622.054v.25c.679 0 1.244-.125 1.633-.434l-.155-.196-.156-.196c-.258.206-.687.326-1.322.326zm1.478-.38.155.196c.394-.312.585-.764.585-1.31h-.5c0 .42-.141.716-.396.919zm.49-1.114h.25q0-.446-.198-.795l-.218.122-.218.123c.086.151.134.33.134.55zm-.166-.673.218-.122a2.2 2.2 0 0 0-.506-.6l-.16.193-.16.192c.169.14.299.296.39.46zm-.448-.529.16-.192a4.6 4.6 0 0 0-.715-.482l-.122.219-.122.218q.376.21.639.429zm-.677-.455.122-.218q-.42-.237-.847-.464l-.118.22-.118.22q.422.226.839.46zm-.843-.462.118-.22a14 14 0 0 1-.868-.508l-.134.211-.133.211q.439.28.899.526zm-.884-.517.134-.21a3.7 3.7 0 0 1-.678-.54l-.18.173-.18.174c.22.227.483.432.771.614zm-.724-.577.18-.174a2.2 2.2 0 0 1-.427-.638l-.23.1-.229.099c.126.291.305.558.526.787zm-.477-.713.229-.1c-.1-.23-.157-.502-.157-.83h-.5q0 .58.199 1.03zm-.178-.93h.25c0-.402.086-.744.244-1.025l-.218-.123-.218-.122a2.56 2.56 0 0 0-.308 1.27zm.276-1.148.219.121c.157-.283.377-.53.643-.719l-.144-.204-.145-.203a2.7 2.7 0 0 0-.792.884zm.718-.802.144.204c.271-.191.577-.334.929-.43l-.065-.241-.066-.242q-.606.165-1.087.505zm1.008-.467.065.241c.356-.097.727-.14 1.102-.14v-.5c-.414 0-.83.048-1.233.157zm12.483 2.594v.25c.911 0 1.593.291 2.081.857l.189-.163.19-.164c-.6-.695-1.431-1.03-2.46-1.03zm2.27.944-.189.163c.494.571.755 1.38.755 2.458h.5c0-1.157-.281-2.095-.876-2.785zm.816 2.62h-.25c0 1.05-.284 1.867-.821 2.47l.187.167.187.166c.636-.715.947-1.66.947-2.802zm-.884 2.637-.187-.167c-.534.6-1.243.908-2.167.908v.5c1.05 0 1.901-.357 2.541-1.075zm-2.354.99v-.25c-.9 0-1.599-.299-2.12-.88l-.186.166-.186.167c.627.7 1.468 1.048 2.492 1.048zm-2.306-.964.186-.167c-.524-.585-.799-1.374-.799-2.386h-.5c0 1.106.303 2.023.927 2.72zm-.863-2.553h.25c0-1.11.288-1.944.831-2.533l-.184-.17-.184-.17c-.651.707-.963 1.677-.963 2.873zm.897-2.703.184.17c.543-.589 1.281-.892 2.24-.892v-.5c-1.074 0-1.955.345-2.608 1.053zm14.258-.971v.25c.786 0 1.368.268 1.779.782l.196-.157.195-.156c-.52-.648-1.254-.97-2.17-.97zm1.975.875-.195.157c.417.52.634 1.262.634 2.261h.5c0-1.065-.231-1.933-.744-2.574zM140 21.42h-.25v.578h.5v-.578zm0 .578v-.25h-4.591v.5H140zm-4.591 0-.25.005c.018.803.227 1.453.651 1.927l.186-.167.186-.167c-.32-.358-.507-.879-.523-1.604zm.587 1.765-.186.167c.429.477 1.016.708 1.726.708v-.5c-.594 0-1.036-.188-1.354-.542zm1.54.625v.25c.796 0 1.527-.275 2.182-.818l-.159-.193-.16-.192c-.572.475-1.193.703-1.863.703zm2.023-.76h-.25v1.032h.5v-1.033zm0 1.032-.152-.199c-.517.396-1.218.608-2.12.608v.5c.979 0 1.797-.23 2.424-.71zm-2.272.659v-.25c-.856 0-1.512-.29-1.983-.849l-.192.161-.191.161c.58.688 1.384 1.027 2.366 1.027zm-2.175-.938.192-.16c-.475-.564-.729-1.38-.729-2.474h-.5c0 1.166.271 2.112.846 2.795zm-.787-2.634h.25c0-1.021.276-1.828.804-2.447l-.191-.162-.19-.162c-.619.726-.923 1.655-.923 2.77zm.863-2.609.191.163c.528-.62 1.182-.924 1.957-.924v-.5c-.928 0-1.718.373-2.338 1.099zm-33.486-4.292v.25c.306 0 .521.035.661.095l.099-.23.099-.23c-.233-.1-.529-.135-.859-.135zm.76.115h-.25v.992h.5v-.992zm0 .992.127-.215a1.6 1.6 0 0 0-.824-.211v.5q.333 0 .569.14zm-.697-.176v-.25c-.425 0-.78.145-1.019.463-.228.304-.322.731-.322 1.24h.5c0-.461.087-.76.222-.94.124-.166.315-.263.619-.263zm-1.091 1.453h-.25v1.06h.5v-1.06zm0 1.06v.25h2.974v-.5h-2.974zm2.974 0h.25v-1.678h-.5v1.678zm0-1.678.081.237 1.043-.354-.081-.237-.08-.236-1.043.353zm1.043-.354h-.25v2.032h.5v-2.032zm0 2.032v.25h1.644v-.5h-1.644zm1.644 0h-.25v.936h.5v-.936zm0 .936v-.25h-1.644v.5h1.644zm-1.644 0h-.25v3.872h.5v-3.872zm0 3.872h-.25c0 .472.072.87.271 1.135l.2-.15.2-.15c-.097-.13-.171-.388-.171-.835zm.221.985-.2.15c.214.283.553.392.939.392v-.5c-.3 0-.456-.083-.539-.193zm.739.292v.25c.311 0 .598-.086.84-.279l-.156-.195-.156-.196a.82.82 0 0 1-.528.17zm.684-.224h-.25v.936h.5v-.936zm0 .936-.126-.216c-.195.114-.48.184-.855.184v.5c.43 0 .81-.08 1.107-.252zm-.981.218v-.25c-.518 0-.865-.152-1.088-.417-.23-.273-.367-.71-.367-1.35h-.5c0 .7.147 1.272.485 1.672.344.409.85.595 1.47.595zm-1.705-2.017h.25v-4.06h-.5v4.06zm0-4.06v-.25h-2.975v.5h2.975zm-2.975 0h-.25v5.928h.5v-5.929zm0 5.928v-.25h-1.03v.5h1.03zm-1.03 0h.25v-5.929h-.5v5.929zm0-5.929v-.25h-1.118v.5h1.118zm-1.118 0h.25v-.937h-.5v.937zm0-.937v.25h1.118v-.5h-1.118zm1.118 0h.25v-1.115h-.5v1.115zm0-1.115h.25c0-.673.18-1.172.519-1.532l-.182-.172-.181-.171c-.449.475-.655 1.11-.656 1.875zm.587-1.704.182.172c.345-.367.767-.547 1.289-.547v-.5c-.655 0-1.21.234-1.653.704zm19.354 2.819v.25h1.636v-.5h-1.636zm1.636 0h-.25v.936h.5v-.936zm0 .936v-.25h-1.636v.5h1.636zm-1.636 0h-.25v3.872h.5v-3.872zm0 3.872h-.25c0 .472.072.87.271 1.135l.2-.15.199-.151c-.097-.129-.17-.387-.17-.834zm.221.985-.2.15c.213.282.543.392.931.392v-.5c-.298 0-.448-.082-.532-.193zm.731.292v.25c.311 0 .599-.086.84-.279l-.156-.195-.156-.195a.82.82 0 0 1-.528.169zm.684-.224h-.25v.936h.5v-.936zm0 .936-.126-.216c-.196.115-.468.184-.841.184v.5c.432 0 .798-.08 1.093-.252zm-.967.218v-.25c-.519 0-.867-.152-1.093-.418-.231-.273-.369-.709-.369-1.35h-.5c0 .7.149 1.274.488 1.674.346.408.853.594 1.474.594zm-1.712-2.017h.25v-4.062h-.5v4.062zm0-4.062v-.25h-1.118v.5h1.118zm-1.118 0h.25v-.936h-.5v.936zm0-.936v.25h1.118v-.5h-1.118zm1.118 0h.25v-1.678h-.5v1.678zm0-1.678.08.237 1.043-.354-.08-.237-.08-.236-1.043.353zm1.043-.354h-.25v2.032h.5v-2.032zm-62.146 5.985-.231.096c.215.514.351.884.41 1.119l.242-.061.243-.06c-.069-.276-.218-.677-.434-1.191zm.421 1.154v.25h.035v-.5h-.035zm.035 0 .236.082q.271-.793.428-1.165l-.23-.099-.23-.098c-.114.268-.259.672-.44 1.198zm.434-1.182.23.099 2.852-6.676-.23-.098-.23-.099-2.852 6.676zm2.852-6.675v.25h1.34v-.5h-1.34zm1.34 0h-.25v9.616h.5V15.54zm0 9.616v-.25h-1.064v.5h1.063zm-1.064 0h.25v-6.452h-.5v6.452zm0-6.452h.25c0-.5.036-1.112.096-1.847l-.25-.02-.248-.02a25 25 0 0 0-.098 1.887zm.097-1.868v-.25h-.028v.5h.028zm-.028 0-.243-.057c-.1.43-.191.721-.263.889l.23.098.23.099q.134-.315.29-.971zm-.276.93-.23-.097-3.114 7.39.23.097.231.097 3.113-7.39zm-3.113 7.39v-.25h-.526v.5h.526zm-.526 0 .23-.098-3.106-7.335-.23.098-.23.097 3.106 7.335zm-3.106-7.335.23-.096c-.079-.191-.162-.5-.255-.94l-.245.051-.244.052c.093.444.184.791.283 1.029zm-.27-.985v-.25h-.027v.5h.027zm-.027 0-.249.022c.033.373.054.99.054 1.86h.5q-.002-1.31-.056-1.904zm.055 1.881h-.25v6.439h.5v-6.439zm0 6.439v-.25h-1.029v.5h1.029zm-1.029 0h.25V15.54h-.5v9.616zm0-9.616v.25h1.409v-.5h-1.409zm1.409 0-.231.096 2.796 6.703.23-.096.231-.097-2.796-6.703zm11.178 9.616v-.25h-1.036v.5h1.036zm-1.036 0h.25V18.29h-.5v6.866zm0-6.866v.25h1.036v-.5h-1.036zm1.036 0h-.25v6.866h.5V18.29zm10.91-.122v.25c.256 0 .423.03.52.073l.1-.229.1-.23c-.19-.082-.436-.114-.72-.114zm.62.094h-.25v1.14h.5v-1.14zm0 1.14.158-.194c-.243-.196-.576-.279-.951-.279v.5c.31 0 .515.07.636.168zm-.793-.223v-.25c-.547 0-.986.282-1.32.776l.207.14.208.14c.263-.39.562-.556.905-.556zm-1.113.666-.207-.14c-.335.498-.49 1.16-.49 1.953h.5c0-.735.144-1.286.405-1.673zm-.448 1.813h-.25v3.498h.5v-3.498zm0 3.498v-.25h-1.043v.5h1.043zm-1.043 0h.25V18.29h-.5v6.866zm0-6.866v.25h1.043v-.5h-1.043zm1.043 0h-.25v1.413h.5V18.29zm0 1.413v.25h.027v-.5h-.027zm.027 0 .24.073c.137-.448.345-.78.61-1.014l-.166-.187-.166-.187c-.346.306-.598.723-.757 1.241zm.684-1.128.166.187c.264-.234.546-.344.857-.344v-.5c-.445 0-.843.163-1.189.47zm57.312-.407v.25c.258 0 .431.031.528.073l.099-.229.1-.229c-.19-.083-.443-.116-.727-.116zm.627.094h-.25v1.14h.5v-1.14zm0 1.14.158-.194c-.242-.195-.568-.279-.945-.279v.5c.31 0 .508.07.63.168zm-.787-.223v-.25c-.545 0-.99.28-1.325.776l.207.14.207.14c.263-.39.567-.556.911-.556zm-1.118.666-.207-.14c-.336.498-.491 1.16-.491 1.953h.5c0-.735.145-1.286.405-1.673zm-.448 1.813h-.25v3.498h.5v-3.498zm0 3.498v-.25h-1.043v.5h1.043zm-1.043 0h.25V18.29h-.5v6.866zm0-6.866v.25h1.043v-.5h-1.043zm1.043 0h-.25v1.413h.5V18.29zm0 1.413v.25h.02v-.5h-.02zm.02 0 .239.073c.138-.448.347-.78.611-1.014l-.166-.187-.166-.187c-.345.306-.597.723-.757 1.241zm.684-1.128.166.187c.264-.234.546-.344.856-.344v-.25l-.001-.25c-.444 0-.841.163-1.187.47zm-50.725.482v-.25c-.737 0-1.34.268-1.782.812l.195.158.194.157c.337-.416.792-.627 1.393-.627zm-1.587.72-.195-.158c-.437.54-.635 1.261-.635 2.141h.5c0-.809.182-1.404.524-1.826zm-.58 1.983h-.25c0 .851.202 1.561.645 2.09l.191-.161.192-.16c-.345-.411-.528-.994-.528-1.769zm.586 1.929-.191.16c.446.532 1.046.79 1.772.79v-.5c-.594 0-1.048-.204-1.39-.61zm1.581.7v.25c.735 0 1.339-.25 1.757-.782l-.196-.154-.196-.155c-.306.389-.753.59-1.365.59zm1.561-.686.197.154c.41-.521.591-1.245.591-2.124h-.5c0 .819-.17 1.416-.485 1.815zm.538-1.97h.25c0-.888-.181-1.611-.59-2.137l-.198.154-.197.153c.315.405.485 1.002.485 1.83zm-.538-1.983.197-.154c-.418-.536-1.022-.789-1.758-.789v.5c.612 0 1.058.203 1.364.596zm11.578-.693v-.25c-.737 0-1.34.268-1.782.812l.194.158.194.157c.338-.416.793-.627 1.394-.627zm-1.588.72-.194-.158c-.438.54-.636 1.261-.636 2.141h.5c0-.809.182-1.404.524-1.826zm-.58 1.983h-.25c0 .851.202 1.561.646 2.09l.191-.161.192-.16c-.345-.411-.529-.994-.529-1.769zm.587 1.929-.191.16c.446.532 1.045.79 1.772.79v-.5c-.595 0-1.048-.204-1.39-.61zm1.581.7v.25c.734 0 1.338-.25 1.757-.782l-.196-.154-.197-.155c-.306.389-.752.59-1.364.59zm1.56-.686.197.154c.41-.521.592-1.245.592-2.124h-.5c0 .819-.171 1.416-.485 1.815zm.539-1.97h.25c0-.888-.182-1.611-.591-2.137l-.197.154-.198.153c.315.405.486 1.002.486 1.83zm-.538-1.983.197-.154c-.418-.537-1.023-.789-1.758-.789v.5c.611 0 1.057.203 1.363.596zm29.446-.693v-.25c-.737 0-1.341.268-1.782.812l.194.158.194.157c.338-.416.793-.627 1.394-.627zm-1.588.72-.194-.158c-.438.54-.636 1.261-.636 2.141h.5c0-.809.182-1.404.524-1.826zm-.58 1.983h-.25c0 .851.202 1.561.645 2.09l.192-.161.191-.16c-.344-.411-.528-.994-.528-1.769zm.587 1.929-.192.16c.447.532 1.046.79 1.773.79v-.5c-.595 0-1.048-.204-1.39-.61zm1.581.7v.25c.734 0 1.338-.25 1.757-.782l-.197-.154-.196-.155c-.306.389-.752.59-1.364.59zm1.56-.686.197.154c.41-.521.592-1.246.592-2.124h-.5c0 .82-.171 1.416-.485 1.815zm.539-1.97h.25c0-.888-.182-1.611-.591-2.137l-.198.154-.197.153c.315.405.486 1.001.486 1.83zm-.539-1.983.198-.154c-.418-.537-1.022-.789-1.758-.789v.5c.611 0 1.057.203 1.363.596zm10.335-.693v-.25c-.56 0-1.048.208-1.439.63l.184.17.183.17c.295-.32.65-.47 1.072-.47zm-1.255.55-.184-.17c-.385.416-.614.958-.7 1.596l.248.034.248.033c.075-.558.27-.998.571-1.323zm-.636 1.46v.25h3.515v-.5h-3.515zm3.515 0 .249-.002c-.004-.668-.157-1.23-.491-1.643l-.194.158-.194.157c.238.294.375.73.38 1.332zm-.436-1.487.194-.158c-.296-.365-.693-.563-1.174-.606l-.022.249-.022.249c.358.032.626.171.83.423zm-1.002-.515.011-.25-.186-.008-.011.25-.01.25.185.008zm-72.183-3.947.004.25a.41.41 0 0 1 .306.127l.18-.173.181-.173a.91.91 0 0 0-.675-.281zm.49.204-.178.175a.46.46 0 0 1 .129.34h.5a.96.96 0 0 0-.272-.69zm.2.515h-.25a.45.45 0 0 1-.13.33l.18.173.18.174a.95.95 0 0 0 .27-.677zm-.2.503-.18-.173a.4.4 0 0 1-.31.127v.5c.254 0 .487-.09.67-.28zm-.49.204v-.25a.4.4 0 0 1-.304-.122l-.179.175-.179.175a.9.9 0 0 0 .662.272zm-.483-.197.178-.175a.45.45 0 0 1-.121-.335h-.5c0 .26.08.497.264.685zm-.193-.51h.25c0-.151.044-.26.123-.342l-.18-.173-.18-.174a.96.96 0 0 0-.263.69zm.193-.515.18.173a.4.4 0 0 1 .303-.127v-.5a.9.9 0 0 0-.663.28z"/></svg>