<svg width="32" height="32" viewBox="0 0 32 32" fill="none" xmlns="http://www.w3.org/2000/svg">
<path d="M17.0244 13.75C17.0244 13.0596 16.4648 12.5 15.7744 12.5H7.89941C7.20904 12.5 6.64941 13.0596 6.64941 13.75C6.64941 14.4404 7.20904 15 7.89941 15H15.7744C16.4648 15 17.0244 14.4404 17.0244 13.75Z" fill="#161616"/>
<path d="M7.89941 17.5C7.20904 17.5 6.64941 18.0596 6.64941 18.75C6.64941 19.4404 7.20904 20 7.89941 20H12.3439C13.0342 20 13.5939 19.4404 13.5939 18.75C13.5939 18.0596 13.0342 17.5 12.3439 17.5H7.89941Z" fill="#161616"/>
<path d="M7.96875 29.5H6.65625C5.27775 29.5 4.15625 28.3785 4.15625 27V5C4.15625 3.6215 5.27775 2.5 6.65625 2.5H22.0243C23.4028 2.5 24.5243 3.6215 24.5243 5V13.375C24.5243 14.0654 25.0839 14.625 25.7743 14.625C26.4647 14.625 27.0243 14.0654 27.0243 13.375V5C27.0243 2.243 24.7813 0 22.0243 0H6.65625C3.89925 0 1.65625 2.243 1.65625 5V27C1.65625 29.757 3.89925 32 6.65625 32H7.96875C8.65912 32 9.21875 31.4404 9.21875 30.75C9.21875 30.0596 8.65912 29.5 7.96875 29.5Z" fill="#161616"/>
<path d="M22.0244 8.75C22.0244 8.05963 21.4648 7.5 20.7744 7.5H7.89941C7.20904 7.5 6.64941 8.05963 6.64941 8.75C6.64941 9.44037 7.20904 10 7.89941 10H20.7744C21.4648 10 22.0244 9.44037 22.0244 8.75Z" fill="#161616"/>
<path d="M20.6566 29.5H20.6559C19.9656 29.5 19.4062 30.0596 19.4062 30.75C19.4062 31.4404 19.9662 32 20.6566 32C21.3469 32 21.9066 31.4404 21.9066 30.75C21.9066 30.0596 21.3469 29.5 20.6566 29.5Z" fill="#161616"/>
<path d="M30.0973 27.2284L30.0593 27.1333L28.2238 24.0941L23.6678 16.7174C23.0277 15.6811 21.9187 15.0625 20.7011 15.0625C19.4837 15.0625 18.3746 15.6811 17.7346 16.7174L11.5831 26.6771C10.9088 27.7691 10.8793 29.0903 11.5046 30.2112C12.1293 31.3312 13.2676 32 14.5498 32H16.281C16.9713 32 17.531 31.4404 17.531 30.75C17.531 30.0596 16.9713 29.5 16.281 29.5H14.5498C14.027 29.5 13.7729 29.1457 13.688 28.9934C13.6028 28.8407 13.4344 28.4373 13.7101 27.9908L19.8616 18.0311C20.1229 17.6082 20.5358 17.5625 20.7012 17.5625C20.8666 17.5625 21.2796 17.6081 21.5408 18.0311L26.087 25.3918L27.8022 28.2318C27.8863 28.5104 27.838 28.8182 27.6673 29.0701C27.5585 29.2306 27.308 29.5 26.8527 29.5H25.156C24.4656 29.5 23.906 30.0596 23.906 30.75C23.906 31.4404 24.4656 32 25.156 32H26.8527C28.0106 32 29.0888 31.4289 29.737 30.4724C30.3891 29.5099 30.5238 28.2972 30.0973 27.2284Z" fill="#161616"/>
<path d="M20.6562 28.25C21.3466 28.25 21.9062 27.6904 21.9062 27V22.3125C21.9062 21.6221 21.3466 21.0625 20.6562 21.0625C19.9659 21.0625 19.4062 21.6221 19.4062 22.3125V27C19.4062 27.6904 19.9659 28.25 20.6562 28.25Z" fill="#161616"/>
</svg>
