<svg width="32" height="32" viewBox="0 0 32 32" fill="none" xmlns="http://www.w3.org/2000/svg">
<path d="M29.4226 9.14334C29.7254 9.14334 29.9708 8.89062 29.9708 8.57889V4.25214C29.9708 3.01036 28.9895 2 27.7833 2H4.18748C2.98128 2 2 3.01028 2 4.25214V26.73C2 26.9279 2.10066 27.1114 2.26535 27.2135L6.26268 29.693C6.59345 29.8983 6.96487 30.0001 7.33562 30C7.75616 30 8.17575 29.869 8.53386 29.6091L11.1819 27.6873C11.4566 27.488 11.8065 27.4466 12.1181 27.5769L15.9434 29.1765C16.6128 29.4564 17.3885 29.3543 17.9678 28.9102L20.3578 27.0778C20.6822 26.829 21.1297 26.8118 21.4712 27.0349L24.4221 28.9619C25.0663 29.3826 25.8808 29.4067 26.5476 29.0245L29.6894 27.223C29.8631 27.1234 29.9709 26.9346 29.9709 26.7299V13.5462C29.9709 13.2345 29.7255 12.9818 29.4226 12.9818C29.1198 12.9818 28.8744 13.2345 28.8744 13.5462V26.3981L26.0141 28.0382C25.6989 28.219 25.314 28.2075 25.0094 28.0086L22.0585 26.0816C21.3358 25.6097 20.3892 25.6462 19.7028 26.1724L17.3129 28.0047C17.0389 28.2147 16.6722 28.2629 16.3559 28.1306L12.5305 26.531C11.8718 26.2555 11.1313 26.3428 10.5501 26.7647L7.90199 28.6864C7.58365 28.9175 7.16231 28.9331 6.82846 28.7261L3.09641 26.4111V4.25214C3.09648 3.63276 3.58588 3.12889 4.18748 3.12889H27.7834C28.3849 3.12889 28.8744 3.63276 28.8744 4.25214V8.57889C28.8743 8.89062 29.1198 9.14334 29.4226 9.14334Z" fill="#161616" stroke="#161616" stroke-linejoin="round"/>
<path d="M8.12129 9.93969H11.729C12.0201 9.93969 12.256 9.73096 12.256 9.47351C12.256 9.21605 12.0201 9.00732 11.729 9.00732H8.12129C7.83015 9.00732 7.59424 9.21605 7.59424 9.47351C7.59424 9.73096 7.83022 9.93969 8.12129 9.93969Z" fill="#161616" stroke="#161616" stroke-linejoin="round"/>
<path d="M8.16384 14.6014H22.8748C23.1894 14.6014 23.4444 14.3927 23.4444 14.1352C23.4444 13.8778 23.1894 13.6691 22.8748 13.6691H8.16384C7.84919 13.6691 7.59424 13.8778 7.59424 14.1352C7.59424 14.3927 7.84927 14.6014 8.16384 14.6014Z" fill="#161616" stroke="#161616" stroke-linejoin="round"/>
<path d="M8.16384 19.2633H22.8748C23.1894 19.2633 23.4444 19.0546 23.4444 18.7971C23.4444 18.5397 23.1894 18.3309 22.8748 18.3309H8.16384C7.84919 18.3309 7.59424 18.5397 7.59424 18.7971C7.59424 19.0546 7.84927 19.2633 8.16384 19.2633Z" fill="#161616" stroke="#161616" stroke-linejoin="round"/>
</svg>
