<svg width="32" height="32" viewBox="0 0 32 32" fill="none" xmlns="http://www.w3.org/2000/svg">
<path d="M22.1806 29.5H8C6.6215 29.5 5.5 28.3785 5.5 27V5C5.5 3.6215 6.6215 2.5 8 2.5H23.3681C24.7466 2.5 25.8681 3.6215 25.8681 5V26.6875C25.8681 27.3779 26.4277 27.9375 27.1181 27.9375C27.8084 27.9375 28.3681 27.3779 28.3681 26.6875V5C28.3681 2.243 26.1251 0 23.3681 0H8C5.243 0 3 2.243 3 5V27C3 29.757 5.243 32 8 32H22.1806C22.8709 32 23.4306 31.4404 23.4306 30.75C23.4306 30.0596 22.8709 29.5 22.1806 29.5Z" fill="#161616"/>
<path d="M15.9375 25.0624C15.2471 25.0624 14.6875 24.5029 14.6875 23.8124C14.6875 23.122 15.2471 22.5624 15.9375 22.5624C16.6279 22.5624 17.1875 23.122 17.1875 23.8124C17.1875 24.5029 16.6279 25.0624 15.9375 25.0624ZM17.1875 19.4374V17.759C19.6045 17.1743 21.2791 14.9814 21.1836 12.5017C21.0798 9.80146 18.8645 7.6059 16.1401 7.50385C14.6846 7.44867 13.3101 7.97016 12.271 8.97089C11.2498 9.95453 10.6875 11.2744 10.6875 12.6874C10.6875 13.3779 11.2471 13.9374 11.9375 13.9374C12.6279 13.9374 13.1875 13.3779 13.1875 12.6874C13.1875 11.9599 13.4778 11.2795 14.0051 10.7717C14.5505 10.2465 15.2749 9.97333 16.0464 10.0019C17.4724 10.0556 18.6316 11.1957 18.6855 12.5978C18.7356 13.9045 17.8337 15.059 16.5405 15.3427C15.4495 15.5822 14.6875 16.5251 14.6875 17.6359V19.4374C14.6875 20.1279 15.2471 20.6874 15.9375 20.6874C16.6279 20.6874 17.1875 20.1279 17.1875 19.4374Z" fill="#161616"/>
</svg>
