<svg width="32" height="32" viewBox="0 0 32 32" fill="none" xmlns="http://www.w3.org/2000/svg">
<path d="M27 1H5C2.24292 1 0 3.24292 0 6V23.5C0 26.2571 2.24292 28.5 5 28.5H16.8425H16.8447H16.8462H18.25C18.9404 28.5 19.5 27.9404 19.5 27.25C19.5 26.5595 18.9404 26 18.25 26H17.4585L14.5845 22.2715L23.6623 10.7251L29.3596 17.4341C29.5971 17.7139 29.9455 17.875 30.3125 17.875H30.75C31.4404 17.875 32 17.3154 32 16.625V6C32 3.24292 29.7571 1 27 1ZM29.5 13.737L24.5779 7.94091C24.3349 7.65478 23.9773 7.49194 23.6013 7.50024C23.2263 7.50732 22.8742 7.68261 22.6423 7.97753L13.01 20.229L9.73998 15.9868C9.50341 15.6799 9.13769 15.5 8.74999 15.5C8.74975 15.5 8.7495 15.5 8.74926 15.5C8.36156 15.5002 7.9956 15.6804 7.75927 15.988L5.0083 19.5642C4.5874 20.1113 4.68969 20.8962 5.23681 21.3171C5.78417 21.738 6.56884 21.6357 6.98974 21.0884L8.75097 18.7988L14.302 26H5C3.62158 26 2.5 24.8784 2.5 23.5V6C2.5 4.62158 3.62158 3.5 5 3.5H27C28.3784 3.5 29.5 4.62158 29.5 6V13.737ZM8.74999 5.5C6.68212 5.5 5 7.18212 5 9.24999C5 11.3179 6.68212 13 8.74999 13C10.8179 13 12.5 11.3179 12.5 9.24999C12.5 7.18212 10.8179 5.5 8.74999 5.5ZM8.74999 10.5C8.06078 10.5 7.49999 9.9392 7.49999 9.24999C7.49999 8.56078 8.06078 7.99999 8.74999 7.99999C9.4392 7.99999 9.99999 8.56078 9.99999 9.24999C9.99999 9.9392 9.4392 10.5 8.74999 10.5ZM31.634 22.259L28.4553 25.4375L31.6338 28.6159C32.122 29.1042 32.122 29.8957 31.6338 30.3838C31.3899 30.6279 31.0698 30.75 30.75 30.75C30.4301 30.75 30.1101 30.6279 29.8659 30.384L26.6875 27.2053L23.509 30.3838C23.2649 30.6279 22.9448 30.75 22.625 30.75C22.3052 30.75 21.9851 30.6279 21.7409 30.384C21.2529 29.8957 21.2529 29.1042 21.7409 28.6162L24.9197 25.4375L21.7412 22.259C21.2529 21.7707 21.2529 20.9792 21.7412 20.4912C22.2292 20.0029 23.0207 20.0029 23.509 20.4912L26.6875 23.6697L29.8659 20.4912C30.3542 20.0029 31.1457 20.0029 31.6338 20.4912C32.122 20.9792 32.122 21.7707 31.634 22.259Z" fill="#161616"/>
</svg>
