<svg width="32" height="32" viewBox="0 0 32 32" fill="none" xmlns="http://www.w3.org/2000/svg">
<path fill-rule="evenodd" clip-rule="evenodd" d="M25.7347 4.38133C25.9747 4.14533 26.304 4 26.6667 4C27.4027 4 28 4.59733 28 5.33333V9.33333C28 10.0693 27.4027 10.6667 26.6667 10.6667C25.9307 10.6667 25.3333 10.0693 25.3333 9.33333V8.552L17.3333 16.552V25.3333H20C20.736 25.3333 21.3333 25.9307 21.3333 26.6667C21.3333 27.4027 20.736 28 20 28H12C11.264 28 10.6667 27.4027 10.6667 26.6667C10.6667 25.9307 11.264 25.3333 12 25.3333H14.6667V19.2187L6.276 27.6093C5.756 28.1293 4.91067 28.1293 4.39067 27.6093C3.87067 27.0893 3.87067 26.244 4.39067 25.724L25.724 4.39067C25.7267 4.38667 25.7307 4.384 25.7347 4.38133ZM4 5.33333C4 4.59733 4.59733 4 5.33333 4H20C20.736 4 21.3333 4.59733 21.3333 5.33333C21.3333 6.06933 20.736 6.66667 20 6.66667H17.3333V9.33333C17.3333 10.0693 16.736 10.6667 16 10.6667C15.264 10.6667 14.6667 10.0693 14.6667 9.33333V6.66667H6.66667V9.33333C6.66667 10.0693 6.06933 10.6667 5.33333 10.6667C4.59733 10.6667 4 10.0693 4 9.33333V5.33333Z" fill="#161616"/>
</svg>
