<svg width="32" height="32" viewBox="0 0 32 32" fill="none" xmlns="http://www.w3.org/2000/svg">
<path d="M22.0288 13.75C22.0288 13.0596 21.4692 12.5 20.7788 12.5H7.90381C7.21343 12.5 6.65381 13.0596 6.65381 13.75C6.65381 14.4404 7.21343 15 7.90381 15H20.7788C21.4692 15 22.0288 14.4404 22.0288 13.75Z" fill="#161616"/>
<path d="M7.90381 17.5C7.21343 17.5 6.65381 18.0596 6.65381 18.75C6.65381 19.4404 7.21343 20 7.90381 20H15.7232C16.4136 20 16.9732 19.4404 16.9732 18.75C16.9732 18.0596 16.4136 17.5 15.7232 17.5H7.90381Z" fill="#161616"/>
<path d="M10.8412 29.5H6.66064C5.28214 29.5 4.16064 28.3785 4.16064 27V5C4.16064 3.6215 5.28214 2.5 6.66064 2.5H22.0287C23.4072 2.5 24.5287 3.6215 24.5287 5V12.6875C24.5287 13.3779 25.0883 13.9375 25.7787 13.9375C26.4691 13.9375 27.0287 13.3779 27.0287 12.6875V5C27.0287 2.243 24.7857 0 22.0287 0H6.66064C3.90364 0 1.66064 2.243 1.66064 5V27C1.66064 29.757 3.90364 32 6.66064 32H10.8412C11.5316 32 12.0912 31.4404 12.0912 30.75C12.0912 30.0596 11.5316 29.5 10.8412 29.5Z" fill="#161616"/>
<path d="M20.7788 7.5H7.90381C7.21343 7.5 6.65381 8.05963 6.65381 8.75C6.65381 9.44037 7.21343 10 7.90381 10H20.7788C21.4692 10 22.0288 9.44037 22.0288 8.75C22.0288 8.05963 21.4692 7.5 20.7788 7.5Z" fill="#161616"/>
<path d="M27.4554 25.5625L30.6341 22.384C31.1221 21.8958 31.1221 21.1042 30.6339 20.6162C30.1458 20.1279 29.3543 20.1279 28.866 20.6162L25.6876 23.7947L22.5091 20.6162C22.0208 20.1279 21.2293 20.1279 20.7413 20.6162C20.253 21.1042 20.253 21.8958 20.7413 22.384L23.9197 25.5625L20.741 28.7412C20.253 29.2292 20.253 30.0208 20.741 30.509C20.9852 30.7529 21.3052 30.875 21.6251 30.875C21.9449 30.875 22.265 30.7529 22.5091 30.5088L25.6876 27.3303L28.866 30.509C29.1102 30.7529 29.4302 30.875 29.7501 30.875C30.0699 30.875 30.39 30.7529 30.6339 30.5088C31.1221 30.0208 31.1221 29.2292 30.6339 28.741L27.4554 25.5625Z" fill="#161616"/>
</svg>
