<svg width="32" height="32" viewBox="0 0 32 32" fill="none" xmlns="http://www.w3.org/2000/svg">
<path d="M18.5659 32H5.00342C2.24642 32 0.00341797 29.757 0.00341797 27V5C0.00341797 2.243 2.24642 0 5.00342 0H20.3715C23.1285 0 25.3715 2.243 25.3715 5V9.5625C25.31 11.2192 22.9324 11.218 22.8715 9.5625V5C22.8715 3.6215 21.75 2.5 20.3715 2.5H5.00342C3.62492 2.5 2.50342 3.6215 2.50342 5V27C2.50342 28.3785 3.62492 29.5 5.00342 29.5H18.5659C20.2227 29.5614 20.2214 31.9391 18.5659 32ZM11.0034 20H6.24648C4.58973 19.9386 4.59098 17.5609 6.24648 17.5H11.0034C12.6602 17.5614 12.6589 19.9391 11.0034 20ZM16.7534 15H6.24648C4.58973 14.9386 4.59098 12.5609 6.24648 12.5H16.7534C18.4102 12.5614 18.4089 14.9391 16.7534 15ZM19.1215 10H6.24648C4.58973 9.93856 4.59098 7.56087 6.24648 7.5H19.1215C20.7782 7.56144 20.777 9.93913 19.1215 10Z" fill="#161616"/>
<path d="M25.9357 14C25.6125 14 25.2895 14.1246 25.0449 14.3732C24.5607 14.8652 24.567 15.6564 25.059 16.1406L26.6936 17.7495H20.9993C18.2427 17.7495 16 19.9922 16 22.7488V25.9358C16.0614 27.5923 18.4388 27.5911 18.4996 25.9358V22.7488C18.4996 21.3705 19.621 20.2491 20.9993 20.2491H26.6936L25.0589 21.858C23.9214 23.0637 25.5899 24.7573 26.8123 23.6395L28.8222 21.6615C30.2957 20.2597 30.2962 17.7416 28.8256 16.3406L26.8123 14.3592C26.5689 14.1195 26.2522 14 25.9357 14Z" fill="#161616"/>
</svg>
