<svg width="32" height="32" viewBox="0 0 32 32" fill="none" xmlns="http://www.w3.org/2000/svg">
<g clip-path="url(#clip0_23_1255)">
<path d="M16.375 22.875C17.0654 22.875 17.625 22.3154 17.625 21.625C17.625 20.9346 17.0654 20.375 16.375 20.375C15.6846 20.375 15.125 20.9346 15.125 21.625C15.125 22.3154 15.6846 22.875 16.375 22.875Z" fill="#161616"/>
<path d="M17.625 29.5H5C3.6215 29.5 2.5 28.3785 2.5 27V16.75C2.5 15.3715 3.6215 14.25 5 14.25H23C24.3785 14.25 25.5 15.3715 25.5 16.75V19.5C25.5 20.1904 26.0596 20.75 26.75 20.75C27.4404 20.75 28 20.1904 28 19.5V16.75C28 13.993 25.757 11.75 23 11.75H21.4977V7.34163C21.4977 3.29344 18.1332 0 13.9977 0C9.86219 0 6.49769 3.29344 6.49769 7.34163V11.75H5C2.243 11.75 0 13.993 0 16.75V27C0 29.757 2.243 32 5 32H17.625C18.3154 32 18.875 31.4404 18.875 30.75C18.875 30.0596 18.3154 29.5 17.625 29.5ZM8.99769 7.34163C8.99769 4.67194 11.2407 2.5 13.9977 2.5C16.7547 2.5 18.9977 4.67194 18.9977 7.34163V11.75H8.99769V7.34163Z" fill="#161616"/>
<path d="M11.6875 22.875C12.3779 22.875 12.9375 22.3154 12.9375 21.625C12.9375 20.9346 12.3779 20.375 11.6875 20.375C10.9971 20.375 10.4375 20.9346 10.4375 21.625C10.4375 22.3154 10.9971 22.875 11.6875 22.875Z" fill="#161616"/>
<path d="M31.6339 29.866L28.4553 26.6875L31.6339 23.5088C32.1221 23.0207 32.122 22.2292 31.6339 21.741C31.1458 21.2528 30.3543 21.2528 29.8661 21.741L26.6875 24.9196L23.5089 21.7411C23.0208 21.2529 22.2293 21.253 21.7411 21.7411C21.253 22.2292 21.253 23.0207 21.7411 23.5089L24.9197 26.6875L21.7411 29.8661C21.253 30.3542 21.253 31.1457 21.7411 31.6339C21.9852 31.878 22.3051 32 22.625 32C22.945 32 23.2648 31.878 23.5089 31.6339L26.6875 28.4553L29.8661 31.6339C30.1102 31.878 30.4301 32 30.75 32C31.07 32 31.3898 31.878 31.6339 31.6338C32.1221 31.1457 32.1221 30.3542 31.6339 29.866Z" fill="#161616"/>
<path d="M7 22.875C7.69036 22.875 8.25 22.3154 8.25 21.625C8.25 20.9346 7.69036 20.375 7 20.375C6.30964 20.375 5.75 20.9346 5.75 21.625C5.75 22.3154 6.30964 22.875 7 22.875Z" fill="#161616"/>
</g>
<defs>
<clipPath id="clip0_23_1255">
<rect width="32" height="32" fill="white"/>
</clipPath>
</defs>
</svg>
