<svg width="32" height="32" viewBox="0 0 32 32" fill="none" xmlns="http://www.w3.org/2000/svg">
<g clip-path="url(#clip0_23_1249)">
<path d="M14.3125 29.5H5C3.6215 29.5 2.5 28.3785 2.5 27V24.6875C2.5 23.309 3.6215 22.1875 5 22.1875H9.5625V26.375C9.62394 28.0317 12.0016 28.0305 12.0625 26.375V22.1875H13.25C14.9067 22.1261 14.9055 19.7484 13.25 19.6875H5C3.6215 19.6875 2.5 18.566 2.5 17.1875V14.8125C2.5 13.434 3.6215 12.3125 5 12.3125H9.5625V16.5625C9.62394 18.2192 12.0016 18.218 12.0625 16.5625V12.3125H24.5C25.8785 12.3125 27 13.434 27 14.8125C27 15.5029 27.5596 16.0625 28.25 16.0625C28.9404 16.0625 29.5 15.5029 29.5 14.8125C29.5 13.3207 28.8432 11.9794 27.8037 11.0625C28.8432 10.1456 29.5 8.80431 29.5 7.3125V5C29.5 2.243 27.257 0 24.5 0H5C2.243 0 0 2.243 0 5V7.3125C0 8.80431 0.65675 10.1456 1.69625 11.0625C0.65675 11.9794 0 13.3207 0 14.8125V17.1875C0 18.6793 0.65675 20.0206 1.69625 20.9375C0.65675 21.8544 0 23.1957 0 24.6875V27C0 29.757 2.243 32 5 32H14.3125C15.9692 31.9386 15.968 29.5609 14.3125 29.5ZM2.5 7.3125V5C2.5 3.6215 3.6215 2.5 5 2.5H9.5625V6.6875C9.62394 8.34425 12.0016 8.343 12.0625 6.6875V2.5H24.5C25.8785 2.5 27 3.6215 27 5V7.3125C27 8.691 25.8785 9.8125 24.5 9.8125H5C3.6215 9.8125 2.5 8.691 2.5 7.3125ZM7.375 6.1875C7.375 6.87787 6.81537 7.4375 6.125 7.4375C4.46869 7.37625 4.46912 4.9985 6.125 4.9375C6.81537 4.9375 7.375 5.49713 7.375 6.1875ZM6.125 14.75C6.81537 14.75 7.375 15.3096 7.375 16C7.31375 17.6563 4.936 17.6559 4.875 16C4.875 15.3096 5.43463 14.75 6.125 14.75ZM6.125 24.625C6.81537 24.625 7.375 25.1846 7.375 25.875C7.31375 27.5313 4.936 27.5309 4.875 25.875C4.875 25.1846 5.43463 24.625 6.125 24.625Z" fill="#161616"/>
<path d="M28.4554 25.5625L31.6341 22.384C32.1221 21.8958 32.1221 21.1042 31.6339 20.6162C31.1458 20.1279 30.3543 20.1279 29.866 20.6162L26.6876 23.7947L23.5091 20.6162C23.0208 20.1279 22.2293 20.1279 21.7413 20.6162C21.253 21.1042 21.253 21.8958 21.7413 22.384L24.9197 25.5625L21.741 28.7412C21.253 29.2292 21.253 30.0208 21.741 30.509C21.9852 30.7529 22.3052 30.875 22.6251 30.875C22.9449 30.875 23.265 30.7529 23.5091 30.5088L26.6876 27.3303L29.866 30.509C30.1102 30.7529 30.4302 30.875 30.7501 30.875C31.0699 30.875 31.39 30.7529 31.6339 30.5088C32.1221 30.0208 32.1221 29.2292 31.6339 28.741L28.4554 25.5625Z" fill="#161616"/>
</g>
<defs>
<clipPath id="clip0_23_1249">
<rect width="32" height="32" fill="white"/>
</clipPath>
</defs>
</svg>
