<svg width="32" height="32" viewBox="0 0 32 32" fill="none" xmlns="http://www.w3.org/2000/svg">
<g clip-path="url(#clip0_218_812)">
<path d="M24.7004 27.9775C25.0581 28.5679 24.8694 29.3364 24.2788 29.6941C21.7886 31.2026 18.9258 32 16 32C11.7263 32 7.70825 30.3357 4.68628 27.3137C1.66431 24.2917 0 20.2737 0 16C0 11.7263 1.66431 7.70825 4.68628 4.68628C7.70825 1.66431 11.7263 0 16 0C20.2737 0 24.2917 1.66431 27.3137 4.68628C30.3357 7.70825 32 11.7263 32 16C32 19.1582 31.0627 22.2297 29.2891 24.8823C28.9055 25.4563 28.1292 25.6106 27.5552 25.2268C26.9814 24.843 26.8271 24.0667 27.2109 23.4929C28.7085 21.2527 29.5 18.6619 29.5 16C29.5 8.55615 23.4438 2.5 16 2.5C8.55615 2.5 2.5 8.55615 2.5 16C2.5 23.4438 8.55615 29.5 16 29.5C18.469 29.5 20.884 28.8276 22.9836 27.5559C23.574 27.1982 24.3425 27.387 24.7004 27.9775Z" fill="#161616"/>
<path d="M17.1644 16L22.7584 10.4059C23.0804 10.0839 23.0804 9.56348 22.7584 9.24149C22.4364 8.9195 21.916 8.9195 21.594 9.24149L16 14.8355L10.4059 9.24149C10.0839 8.9195 9.56348 8.9195 9.24149 9.24149C8.9195 9.56348 8.9195 10.0839 9.24149 10.4059L14.8355 16L9.24149 21.594C8.9195 21.916 8.9195 22.4364 9.24149 22.7584C9.40208 22.919 9.61289 22.9997 9.8237 22.9997C10.0345 22.9997 10.2453 22.919 10.4059 22.7584L16 17.1644L21.594 22.7584C21.7546 22.919 21.9654 22.9997 22.1762 22.9997C22.387 22.9997 22.5978 22.919 22.7584 22.7584C23.0804 22.4364 23.0804 21.916 22.7584 21.594L17.1644 16Z" fill="black"/>
<path fill-rule="evenodd" clip-rule="evenodd" d="M10.4061 22.7584C10.2455 22.9189 10.0347 22.9996 9.8239 22.9996C9.61308 22.9996 9.40227 22.9189 9.24169 22.7584C8.9197 22.4364 8.9197 21.9159 9.24169 21.5939L14.8357 15.9999L9.24169 10.4059C8.9197 10.0839 8.9197 9.56343 9.24169 9.24144C9.56368 8.91945 10.0841 8.91945 10.4061 9.24144L16.0002 14.8355L21.5942 9.24144C21.9162 8.91945 22.4366 8.91945 22.7586 9.24144C23.0806 9.56343 23.0806 10.0839 22.7586 10.4059L17.1646 15.9999L22.7586 21.5939C23.0806 21.9159 23.0806 22.4364 22.7586 22.7584C22.598 22.9189 22.3872 22.9996 22.1764 22.9996C21.9656 22.9996 21.7548 22.9189 21.5942 22.7584L16.0001 17.1643L10.4061 22.7584ZM16.0001 17.5886L10.6182 22.9705C10.3993 23.1894 10.1112 23.2996 9.8239 23.2996C9.53659 23.2996 9.24854 23.1895 9.02955 22.9705C8.59041 22.5313 8.59041 21.821 9.02955 21.3818L14.4115 15.9999L9.02955 10.618C8.59041 10.1788 8.59041 9.46846 9.02955 9.02931C9.4687 8.59016 10.1791 8.59016 10.6182 9.02931C10.6182 9.02931 10.6182 9.02931 10.6182 9.02931L16.0002 14.4112L21.3821 9.02931C21.8212 8.59016 22.5316 8.59016 22.9708 9.02931C23.4099 9.46846 23.4099 10.1788 22.9708 10.618L17.5889 15.9999L22.9707 21.3818C23.4099 21.821 23.4099 22.5313 22.9707 22.9705C22.7518 23.1894 22.4637 23.2996 22.1764 23.2996C21.8891 23.2996 21.601 23.1895 21.3821 22.9705L16.0001 17.5886Z" fill="black"/>
</g>
<defs>
<clipPath id="clip0_218_812">
<rect width="32" height="32" fill="white"/>
</clipPath>
</defs>
</svg>
