<svg width="32" height="32" viewBox="0 0 32 32" fill="none" xmlns="http://www.w3.org/2000/svg">
<g clip-path="url(#clip0_23_1287)">
<path d="M14.1452 28.8782C14.0501 29.4946 13.5188 29.9355 12.9138 29.9355C12.8505 29.9355 12.7865 29.9307 12.722 29.9207C9.21232 29.3788 5.99373 27.5937 3.65892 24.8943C1.2994 22.1664 0 18.6754 0 15.0644C0 11.0489 1.5637 7.27373 4.40309 4.43434C7.24248 1.59495 11.0177 0.03125 15.0331 0.03125C18.6921 0.03125 22.2182 1.36128 24.9619 3.77631C27.6803 6.16908 29.4442 9.45378 29.929 13.0252C30.0216 13.708 29.5432 14.3366 28.8605 14.4293C28.1776 14.5221 27.5491 14.0435 27.4565 13.3608C26.6183 7.18415 21.2774 2.52638 15.0331 2.52638C8.11964 2.52638 2.49513 8.15089 2.49513 15.0644C2.49513 21.1944 7.05535 26.5211 13.1027 27.4549C13.7836 27.56 14.2504 28.1972 14.1452 28.8782ZM13.7856 5.77004V14.5525L9.52914 18.8665C9.04521 19.3569 9.05051 20.1468 9.54093 20.6308C9.78395 20.8707 10.1006 20.9903 10.4171 20.9903C10.7392 20.9903 11.0611 20.8664 11.3052 20.619L15.9212 15.9406C16.1515 15.7071 16.2807 15.3924 16.2807 15.0644V5.77004C16.2807 5.08101 15.7222 4.52248 15.0331 4.52248C14.3441 4.52248 13.7856 5.08101 13.7856 5.77004ZM32 23.5478C32 28.1912 28.2223 31.9689 23.5789 31.9689C18.9356 31.9689 15.1579 28.1912 15.1579 23.5478C15.1579 18.9044 18.9356 15.1268 23.5789 15.1268C28.2223 15.1268 32 18.9044 32 23.5478ZM29.5049 23.5478C29.5049 20.2803 26.8465 17.6219 23.5789 17.6219C20.3114 17.6219 17.653 20.2803 17.653 23.5478C17.653 26.8154 20.3114 29.4737 23.5789 29.4737C26.8465 29.4737 29.5049 26.8154 29.5049 23.5478ZM26.2078 20.8566C25.7205 20.3695 24.9306 20.3695 24.4434 20.8566L23.5789 21.7211L22.7146 20.8567C22.2273 20.3696 21.4374 20.3696 20.9502 20.8567C20.463 21.3439 20.463 22.1339 20.9502 22.6211L21.8146 23.4854L20.9502 24.3498C20.463 24.8371 20.463 25.627 20.9502 26.1142C21.1938 26.3577 21.5131 26.4795 21.8324 26.4795C22.1517 26.4795 22.471 26.3577 22.7146 26.1142L23.5789 25.2498L24.4433 26.1142C24.6869 26.3577 25.0062 26.4795 25.3255 26.4795C25.6448 26.4795 25.9641 26.3577 26.2078 26.1142C26.6949 25.6269 26.6949 24.837 26.2078 24.3498L25.3433 23.4854L26.2077 22.6211C26.6949 22.1338 26.6949 21.3439 26.2078 20.8566Z" fill="black"/>
</g>
<defs>
<clipPath id="clip0_23_1287">
<rect width="32" height="32" fill="white"/>
</clipPath>
</defs>
</svg>
