<svg width="32" height="32" viewBox="0 0 32 32" fill="none" xmlns="http://www.w3.org/2000/svg">
<g clip-path="url(#clip0_23_1246)">
<path d="M15.9375 25.0625C15.2471 25.0625 14.6875 24.5029 14.6875 23.8125C14.6875 23.1221 15.2471 22.5625 15.9375 22.5625C16.6279 22.5625 17.1875 23.1221 17.1875 23.8125C17.1875 24.5029 16.6279 25.0625 15.9375 25.0625ZM17.1875 19.4375V17.759C19.6045 17.1743 21.2791 14.9814 21.1836 12.5017C21.0798 9.80151 18.8645 7.60596 16.1401 7.50391C14.6846 7.44873 13.3101 7.97021 12.271 8.97095C11.2498 9.95459 10.6875 11.2744 10.6875 12.6875C10.6875 13.3779 11.2471 13.9375 11.9375 13.9375C12.6279 13.9375 13.1875 13.3779 13.1875 12.6875C13.1875 11.96 13.4778 11.2795 14.0051 10.7717C14.5505 10.2466 15.2749 9.97339 16.0464 10.002C17.4724 10.0557 18.6316 11.1958 18.6855 12.5979C18.7356 13.9045 17.8337 15.0591 16.5405 15.3428C15.4495 15.5823 14.6875 16.5251 14.6875 17.636V19.4375C14.6875 20.1279 15.2471 20.6875 15.9375 20.6875C16.6279 20.6875 17.1875 20.1279 17.1875 19.4375ZM24.2788 29.6941C24.8694 29.3364 25.0581 28.5679 24.7004 27.9775C24.3425 27.387 23.574 27.1982 22.9836 27.5559C20.884 28.8276 18.469 29.5 16 29.5C8.55615 29.5 2.5 23.4438 2.5 16C2.5 8.55615 8.55615 2.5 16 2.5C23.4438 2.5 29.5 8.55615 29.5 16C29.5 18.6619 28.7085 21.2527 27.2109 23.4929C26.8271 24.0667 26.9814 24.843 27.5552 25.2268C28.1292 25.6106 28.9055 25.4563 29.2891 24.8823C31.0627 22.2297 32 19.1582 32 16C32 11.7263 30.3357 7.70825 27.3137 4.68628C24.2917 1.66431 20.2737 0 16 0C11.7263 0 7.70825 1.66431 4.68628 4.68628C1.66431 7.70825 0 11.7263 0 16C0 20.2737 1.66431 24.2917 4.68628 27.3137C7.70825 30.3357 11.7263 32 16 32C18.9258 32 21.7886 31.2026 24.2788 29.6941Z" fill="#161616"/>
</g>
<defs>
<clipPath id="clip0_23_1246">
<rect width="32" height="32" fill="white"/>
</clipPath>
</defs>
</svg>
