<svg xmlns="http://www.w3.org/2000/svg" width="194" height="855" fill="none"><path fill="#EE6C4D" fill-rule="evenodd" d="M7.074 5h8.793c.721 0 .983.075 1.247.216.263.141.47.348.611.612.141.263.216.525.216 1.246v8.793c0 .721-.075.983-.216 1.247a1.47 1.47 0 0 1-.611.611c-.264.141-.526.216-1.247.216H7.074c-.721 0-.983-.075-1.246-.216a1.47 1.47 0 0 1-.612-.611C5.076 16.85 5 16.588 5 15.867V7.074c0-.721.075-.983.216-1.246a1.47 1.47 0 0 1 .612-.612C6.09 5.076 6.353 5 7.074 5" clip-rule="evenodd"/><path fill="#EE6C4D" fill-rule="evenodd" d="M22.926 25h-8.793c-.721 0-.983-.075-1.247-.216a1.47 1.47 0 0 1-.611-.612c-.141-.263-.216-.525-.216-1.246v-8.793c0-.721.075-.983.216-1.247a1.47 1.47 0 0 1 .611-.611c.264-.141.526-.216 1.247-.216h8.793c.721 0 .983.075 1.246.216.264.14.471.348.612.611.14.264.216.526.216 1.247v8.793c0 .721-.075.983-.216 1.246-.141.264-.348.471-.612.612-.263.14-.525.216-1.246.216" clip-rule="evenodd"/><circle cx="15" cy="15" r=".833" fill="#fff"/><path fill="#fff" d="m17.784 18.552-.01 2.003a.56.56 0 0 1-.557.557.547.547 0 0 1-.55-.551l.016-3.321a.56.56 0 0 1 .557-.557l3.321-.016a.547.547 0 0 1 .55.55.56.56 0 0 1-.556.557l-2.123.01 3.092 3.093a.5.5 0 0 1-.004.704.5.5 0 0 1-.704.004zM12.218 11.51l.01-2.003a.56.56 0 0 1 .556-.557.547.547 0 0 1 .55.551l-.016 3.321a.56.56 0 0 1-.556.557l-3.321.016a.547.547 0 0 1-.551-.55.56.56 0 0 1 .556-.557l2.123-.01-3.092-3.093a.5.5 0 0 1 .004-.704.5.5 0 0 1 .704-.004z"/><path fill="#EE6C4D" fill-rule="evenodd" d="M7.074 30h8.793c.721 0 .983.075 1.247.216.263.141.47.348.611.612.141.263.216.525.216 1.246v8.793c0 .722-.075.983-.216 1.247a1.47 1.47 0 0 1-.611.611c-.264.141-.526.216-1.247.216H7.074c-.721 0-.983-.075-1.246-.216a1.47 1.47 0 0 1-.612-.611C5.076 41.85 5 41.589 5 40.867v-8.793c0-.721.075-.983.216-1.246.141-.264.348-.471.612-.612.263-.14.525-.216 1.246-.216" clip-rule="evenodd"/><path fill="#EE6C4D" fill-rule="evenodd" d="M22.926 50h-8.793c-.721 0-.983-.075-1.247-.216a1.47 1.47 0 0 1-.611-.612c-.141-.263-.216-.525-.216-1.246v-8.793c0-.722.075-.983.216-1.247a1.47 1.47 0 0 1 .611-.611c.264-.141.526-.216 1.247-.216h8.793c.721 0 .983.075 1.246.216.264.14.471.348.612.611.14.264.216.525.216 1.247v8.793c0 .721-.075.983-.216 1.246-.141.264-.348.471-.612.612-.263.14-.525.216-1.246.216" clip-rule="evenodd"/><circle cx="15" cy="40" r=".833" fill="#fff"/><path fill="#fff" d="m20.551 44.843.01-2.003a.56.56 0 0 1 .556-.557.547.547 0 0 1 .551.551l-.017 3.322a.56.56 0 0 1-.556.556l-3.321.017a.547.547 0 0 1-.55-.551.56.56 0 0 1 .555-.556l2.124-.011-3.092-3.092a.5.5 0 0 1 .003-.704.5.5 0 0 1 .705-.005zM9.45 35.219l-.01 2.003a.56.56 0 0 1-.556.556.547.547 0 0 1-.55-.55l.016-3.322a.56.56 0 0 1 .556-.556l3.322-.017a.547.547 0 0 1 .55.551.56.56 0 0 1-.556.556l-2.123.011 3.092 3.092a.5.5 0 0 1-.004.705.5.5 0 0 1-.704.004z"/><g fill-rule="evenodd" clip-rule="evenodd"><path fill="#EE6C4D" d="M8.205 80h13.59c1.114 0 1.519.116 1.926.334s.727.537.945.945.334.812.334 1.926v13.59c0 1.114-.116 1.519-.334 1.926a2.27 2.27 0 0 1-.945.945c-.407.218-.811.334-1.926.334H8.205c-1.115 0-1.519-.116-1.926-.334a2.27 2.27 0 0 1-.945-.945C5.116 98.314 5 97.91 5 96.795v-13.59c0-1.114.116-1.519.334-1.926s.538-.727.945-.945S7.09 80 8.205 80"/><path fill="#fff" d="m17.544 84.28 4.5 4.501a.39.39 0 0 1 0 .55l-4.5 4.501a.389.389 0 0 1-.664-.275V91.31c-3.885 0-6.604 1.244-8.547 3.963.777-3.885 3.108-7.77 8.547-8.547v-2.17a.388.388 0 0 1 .664-.275"/></g><path fill="#8FBC5D" fill-rule="evenodd" d="M8.205 130h13.59c1.114 0 1.519.116 1.926.334s.727.538.945.945.334.811.334 1.926v13.59c0 1.115-.116 1.519-.334 1.926a2.28 2.28 0 0 1-.945.945c-.407.218-.811.334-1.926.334H8.205c-1.115 0-1.519-.116-1.926-.334a2.28 2.28 0 0 1-.945-.945c-.218-.407-.334-.811-.334-1.926v-13.59c0-1.115.116-1.519.334-1.926s.538-.727.945-.945S7.09 130 8.205 130" clip-rule="evenodd"/><circle cx="15" cy="140" r=".833" fill="#fff"/><path fill="#fff" d="m17.784 143.552-.01 2.003a.56.56 0 0 1-.557.557.547.547 0 0 1-.55-.551l.016-3.321a.56.56 0 0 1 .557-.557l3.321-.016a.546.546 0 0 1 .55.55.56.56 0 0 1-.556.557l-2.123.01 3.092 3.093a.5.5 0 0 1-.004.704.5.5 0 0 1-.704.004zM12.218 136.51l.01-2.003a.56.56 0 0 1 .556-.557.547.547 0 0 1 .55.551l-.016 3.321a.56.56 0 0 1-.556.557l-3.321.016a.546.546 0 0 1-.551-.55.56.56 0 0 1 .556-.557l2.123-.01-3.092-3.093a.5.5 0 0 1 .004-.704.5.5 0 0 1 .704-.004zM12.218 143.552l.01 2.003c.001.306.25.555.556.557a.547.547 0 0 0 .55-.551l-.016-3.321a.56.56 0 0 0-.556-.557l-3.321-.016a.546.546 0 0 0-.551.55c.001.306.25.555.556.557l2.123.01-3.092 3.093a.5.5 0 0 0 .004.704c.196.195.51.197.704.004zM17.784 136.51l-.01-2.003a.56.56 0 0 0-.557-.557.547.547 0 0 0-.55.551l.016 3.321c.002.306.251.555.557.557l3.321.016a.546.546 0 0 0 .55-.55.56.56 0 0 0-.556-.557l-2.123-.01 3.092-3.093a.5.5 0 0 0-.004-.704.5.5 0 0 0-.704-.004z"/><g fill-rule="evenodd" clip-rule="evenodd"><path fill="#8FBC5D" d="M8.205 155h13.59c1.114 0 1.519.116 1.926.334s.727.538.945.945.334.811.334 1.926v13.59c0 1.115-.116 1.519-.334 1.926a2.28 2.28 0 0 1-.945.945c-.407.218-.811.334-1.926.334H8.205c-1.115 0-1.519-.116-1.926-.334a2.28 2.28 0 0 1-.945-.945c-.218-.407-.334-.811-.334-1.926v-13.59c0-1.115.116-1.519.334-1.926s.538-.727.945-.945S7.09 155 8.205 155"/><path fill="#fff" d="M13.327 165.945c.048.04.072.098.072.157a.2.2 0 0 1-.047.13l-2.624 3.161a.202.202 0 0 1-.358-.131c0-.046.016-.092.047-.13l2.625-3.161a.2.2 0 0 1 .285-.026m.852.718c.048.04.072.098.072.156a.2.2 0 0 1-.046.13l-2.625 3.161a.202.202 0 0 1-.357-.131c0-.045.015-.092.046-.13l2.625-3.161a.2.2 0 0 1 .285-.025m-4.327 2.123a1.104 1.104 0 0 0 .137 1.543l.496.417c.459.387 1.149.325 1.533-.138l2.782-3.35L12.996 165zM18.303 161.375q.219-.26.529-.424l.124-.065q.234-.124.4-.321l.414-.498c.055-.065.032-.175-.051-.245l-.677-.567c-.083-.07-.195-.074-.25-.008l-.415.498q-.165.198-.244.451l-.041.134c-.07.222-.179.424-.323.597l-2.169 2.601.515.472z"/><path fill="#fff" d="M19.535 170.03a.724.724 0 0 1-1.026-.038.73.73 0 0 1 .038-1.03.724.724 0 0 1 1.026.038.73.73 0 0 1-.038 1.03m-4.899-6.631a1.49 1.49 0 0 1-.463-1.327 2.42 2.42 0 0 0-.611-2.038 2.4 2.4 0 0 0-1.938-.763.15.15 0 0 0-.099.253l1.097 1.185a.58.58 0 0 1-.03.82l-.996.931a.58.58 0 0 1-.818-.03l-1.095-1.182a.15.15 0 0 0-.258.082c-.102.71.108 1.459.635 2.014.52.547 1.236.796 1.935.74.493-.04.974.174 1.285.561l4.718 5.887c.55.593 1.482.627 2.072.076s.625-1.488.076-2.081z"/></g><path fill="#5F83C6" fill-rule="evenodd" d="M22.926 225h-8.793c-.721 0-.983-.075-1.247-.216a1.47 1.47 0 0 1-.611-.612c-.141-.263-.216-.525-.216-1.246v-8.793c0-.722.075-.983.216-1.247.14-.263.348-.47.611-.611.264-.141.526-.216 1.247-.216h8.793c.721 0 .983.075 1.246.216.264.141.471.348.612.611.14.264.216.525.216 1.247v8.793c0 .721-.075.983-.216 1.246-.141.264-.348.471-.612.612-.263.141-.525.216-1.246.216" clip-rule="evenodd"/><path fill="#DCE5FA" fill-rule="evenodd" d="M7.074 205h8.793c.721 0 .983.075 1.247.216.263.141.47.348.611.612.141.263.216.525.216 1.246v8.793c0 .722-.075.983-.216 1.247-.14.263-.348.47-.611.611-.264.141-.526.216-1.247.216H7.074c-.721 0-.983-.075-1.246-.216a1.47 1.47 0 0 1-.612-.611c-.14-.264-.216-.525-.216-1.247v-8.793c0-.721.075-.983.216-1.246.141-.264.348-.471.612-.612.263-.141.525-.216 1.246-.216" clip-rule="evenodd"/><path fill="#fff" d="m22.218 221.51.01-2.003a.56.56 0 0 1 .556-.557.547.547 0 0 1 .55.551l-.016 3.321a.56.56 0 0 1-.556.557l-3.321.016a.546.546 0 0 1-.551-.55.56.56 0 0 1 .556-.557l2.123-.01-3.092-3.093a.5.5 0 0 1 .004-.704.5.5 0 0 1 .704-.004z"/><path fill="#295795" d="M13.54 208.334h1.252L13.548 215h-1.309l-.017-.092-.734-4.023-.771 4.115H9.362l-1.237-6.667h1.338l.014.096.623 4.168.822-4.264h1.27l.017.093.713 4.139z"/><path fill="#5EA162" fill-rule="evenodd" d="M22.926 275h-8.793c-.721 0-.983-.075-1.247-.216a1.47 1.47 0 0 1-.611-.612c-.141-.263-.216-.525-.216-1.246v-8.793c0-.722.075-.983.216-1.247.14-.263.348-.47.611-.611.264-.141.526-.216 1.247-.216h8.793c.721 0 .983.075 1.246.216.264.141.471.348.612.611.14.264.216.525.216 1.247v8.793c0 .721-.075.983-.216 1.246-.141.264-.348.471-.612.612-.263.141-.525.216-1.246.216" clip-rule="evenodd"/><path fill="#C2E5C3" fill-rule="evenodd" d="M7.074 255h8.793c.721 0 .983.075 1.247.216.263.141.47.348.611.612.141.263.216.525.216 1.246v8.793c0 .722-.075.983-.216 1.247-.14.263-.348.47-.611.611-.264.141-.526.216-1.247.216H7.074c-.721 0-.983-.075-1.246-.216a1.47 1.47 0 0 1-.612-.611c-.14-.264-.216-.525-.216-1.247v-8.793c0-.721.075-.983.216-1.246.141-.264.348-.471.612-.612.263-.141.525-.216 1.246-.216" clip-rule="evenodd"/><path fill="#fff" d="m22.218 271.51.01-2.003a.56.56 0 0 1 .556-.557.547.547 0 0 1 .55.551l-.016 3.321a.56.56 0 0 1-.556.557l-3.321.016a.546.546 0 0 1-.551-.55.56.56 0 0 1 .556-.557l2.123-.01-3.092-3.093a.5.5 0 0 1 .004-.704.5.5 0 0 1 .704-.004z"/><path fill="#2E7237" fill-rule="evenodd" d="m12.517 264.792-.929-2.171a2.2 2.2 0 0 1-.11-.446h-.014a4 4 0 0 1-.124.465l-.933 2.152H8.958l1.72-3.333-1.573-3.334h1.479l.77 1.999q.09.237.163.563h.014q.044-.195.17-.581l.857-1.98h1.355l-1.618 3.305 1.663 3.361z" clip-rule="evenodd"/><path fill="#FF7651" fill-rule="evenodd" d="M22.926 250h-8.793c-.721 0-.983-.075-1.247-.216a1.47 1.47 0 0 1-.611-.612c-.141-.263-.216-.525-.216-1.246v-8.793c0-.722.075-.983.216-1.247.14-.263.348-.47.611-.611.264-.141.526-.216 1.247-.216h8.793c.721 0 .983.075 1.246.216.264.141.471.348.612.611.14.264.216.525.216 1.247v8.793c0 .721-.075.983-.216 1.246-.141.264-.348.471-.612.612-.263.141-.525.216-1.246.216" clip-rule="evenodd"/><path fill="#F3D9CC" fill-rule="evenodd" d="M7.074 230h8.793c.721 0 .983.075 1.247.216.263.141.47.348.611.612.141.263.216.525.216 1.246v8.793c0 .722-.075.983-.216 1.247-.14.263-.348.47-.611.611-.264.141-.526.216-1.247.216H7.074c-.721 0-.983-.075-1.246-.216a1.47 1.47 0 0 1-.612-.611c-.14-.264-.216-.525-.216-1.247v-8.793c0-.721.075-.983.216-1.246.141-.264.348-.471.612-.612.263-.141.525-.216 1.246-.216" clip-rule="evenodd"/><path fill="#fff" d="m22.218 246.51.01-2.003a.56.56 0 0 1 .556-.557.547.547 0 0 1 .55.551l-.016 3.321a.56.56 0 0 1-.556.557l-3.321.016a.546.546 0 0 1-.551-.55.56.56 0 0 1 .556-.557l2.123-.01-3.092-3.093a.5.5 0 0 1 .004-.704.5.5 0 0 1 .704-.004z"/><path fill="#D04526" fill-rule="evenodd" d="M11.48 237.495q1.034 0 1.652-.62.618-.621.618-1.625 0-2.125-2.155-2.125H9.583v6.667h1.284v-2.297zm-.57-3.221h.5q1.015 0 1.014 1.023 0 1.047-1.015 1.046h-.5z" clip-rule="evenodd"/><path fill="#DCE5FA" fill-rule="evenodd" d="M7.074 305h8.793c.721 0 .983.075 1.247.216.263.141.47.348.611.612.141.263.216.525.216 1.246v8.793c0 .722-.075.983-.216 1.247-.14.263-.348.47-.611.611-.264.141-.526.216-1.247.216H7.074c-.721 0-.983-.075-1.246-.216a1.47 1.47 0 0 1-.612-.611c-.14-.264-.216-.525-.216-1.247v-8.793c0-.721.075-.983.216-1.246.141-.264.348-.471.612-.612.263-.141.525-.216 1.246-.216" clip-rule="evenodd"/><path fill="#5F83C6" fill-rule="evenodd" d="M22.926 325h-8.793c-.721 0-.983-.075-1.247-.216a1.47 1.47 0 0 1-.611-.612c-.141-.263-.216-.525-.216-1.246v-8.793c0-.722.075-.983.216-1.247.14-.263.348-.47.611-.611.264-.141.526-.216 1.247-.216h8.793c.721 0 .983.075 1.246.216.264.141.471.348.612.611.14.264.216.525.216 1.247v8.793c0 .721-.075.983-.216 1.246-.141.264-.348.471-.612.612-.263.141-.525.216-1.246.216" clip-rule="evenodd"/><path fill="#295795" d="m10.551 309.843.01-2.003a.56.56 0 0 1 .556-.556.546.546 0 0 1 .551.55l-.016 3.322a.56.56 0 0 1-.557.556l-3.321.017a.547.547 0 0 1-.55-.551.56.56 0 0 1 .555-.556l2.124-.011-3.093-3.092a.5.5 0 0 1 .004-.705.5.5 0 0 1 .705-.003z"/><path fill="#fff" d="M20.83 315.417h1.253l-1.244 6.666h-1.308l-.017-.092-.735-4.022-.77 4.114h-1.355l-1.237-6.666h1.337l.015.095.622 4.168.823-4.263h1.27l.016.093.713 4.139z"/><path fill="#F3D9CC" fill-rule="evenodd" d="M7.074 330h8.793c.721 0 .983.075 1.247.216.263.141.47.348.611.612.141.263.216.525.216 1.246v8.793c0 .722-.075.983-.216 1.247-.14.263-.348.47-.611.611-.264.141-.526.216-1.247.216H7.074c-.721 0-.983-.075-1.246-.216a1.47 1.47 0 0 1-.612-.611c-.14-.264-.216-.525-.216-1.247v-8.793c0-.721.075-.983.216-1.246.141-.264.348-.471.612-.612.263-.141.525-.216 1.246-.216" clip-rule="evenodd"/><path fill="#FF7651" fill-rule="evenodd" d="M22.926 350h-8.793c-.721 0-.983-.075-1.247-.216a1.47 1.47 0 0 1-.611-.612c-.141-.263-.216-.525-.216-1.246v-8.793c0-.722.075-.983.216-1.247.14-.263.348-.47.611-.611.264-.141.526-.216 1.247-.216h8.793c.721 0 .983.075 1.246.216.264.141.471.348.612.611.14.264.216.525.216 1.247v8.793c0 .721-.075.983-.216 1.246-.141.264-.348.471-.612.612-.263.141-.525.216-1.246.216" clip-rule="evenodd"/><path fill="#D04526" d="m10.551 334.843.01-2.003a.56.56 0 0 1 .556-.556.546.546 0 0 1 .551.55l-.016 3.322a.56.56 0 0 1-.557.556l-3.321.017a.547.547 0 0 1-.55-.551.56.56 0 0 1 .555-.556l2.124-.011-3.093-3.092a.5.5 0 0 1 .004-.705.5.5 0 0 1 .705-.003z"/><path fill="#fff" fill-rule="evenodd" d="M18.772 344.787q1.034 0 1.652-.621t.618-1.625q0-2.124-2.155-2.124h-2.012v6.666h1.284v-2.296zm-.571-3.221h.5q1.015 0 1.015 1.023 0 1.046-1.015 1.046h-.5z" clip-rule="evenodd"/><path fill="#C2E5C3" fill-rule="evenodd" d="M7.074 355h8.793c.721 0 .983.075 1.247.216.263.141.47.348.611.612.141.263.216.525.216 1.246v8.793c0 .722-.075.983-.216 1.247-.14.263-.348.47-.611.611-.264.141-.526.216-1.247.216H7.074c-.721 0-.983-.075-1.246-.216a1.47 1.47 0 0 1-.612-.611c-.14-.264-.216-.525-.216-1.247v-8.793c0-.721.075-.983.216-1.246.141-.264.348-.471.612-.612.263-.141.525-.216 1.246-.216" clip-rule="evenodd"/><path fill="#5EA162" fill-rule="evenodd" d="M22.926 375h-8.793c-.721 0-.983-.075-1.247-.216a1.47 1.47 0 0 1-.611-.612c-.141-.263-.216-.525-.216-1.246v-8.793c0-.722.075-.983.216-1.247.14-.263.348-.47.611-.611.264-.141.526-.216 1.247-.216h8.793c.721 0 .983.075 1.246.216.264.141.471.348.612.611.14.264.216.525.216 1.247v8.793c0 .721-.075.983-.216 1.246-.141.264-.348.471-.612.612-.263.141-.525.216-1.246.216" clip-rule="evenodd"/><path fill="#2E7237" d="m10.551 359.843.01-2.003a.56.56 0 0 1 .556-.556.546.546 0 0 1 .551.55l-.016 3.322a.56.56 0 0 1-.557.556l-3.321.017a.547.547 0 0 1-.55-.551.56.56 0 0 1 .555-.556l2.124-.011-3.093-3.092a.5.5 0 0 1 .004-.705.5.5 0 0 1 .705-.003z"/><path fill="#fff" fill-rule="evenodd" d="m19.809 372.083-.93-2.17a2.3 2.3 0 0 1-.109-.447h-.014a4 4 0 0 1-.124.465l-.933 2.152H16.25l1.72-3.333-1.573-3.333h1.478l.771 1.999q.09.237.162.563h.015q.045-.196.17-.581l.857-1.981h1.355l-1.618 3.306 1.663 3.36z" clip-rule="evenodd"/><path fill="#AB6993" fill-rule="evenodd" d="M8.205 430h13.59c1.114 0 1.519.116 1.926.334s.727.538.945.945.334.811.334 1.926v13.59c0 1.115-.116 1.519-.334 1.926a2.28 2.28 0 0 1-.945.945c-.407.218-.811.334-1.926.334H8.205c-1.115 0-1.519-.116-1.926-.334a2.28 2.28 0 0 1-.945-.945c-.218-.407-.334-.811-.334-1.926v-13.59c0-1.115.116-1.519.334-1.926s.538-.727.945-.945S7.09 430 8.205 430" clip-rule="evenodd"/><path fill="#fff" d="M14.082 439.01c0 .344-.437 1.208-.843 1.866a.27.27 0 0 0-.032.209c.031.111.13.188.244.188h3.098a.25.25 0 0 0 .227-.142.26.26 0 0 0-.023-.269c-.578-.788-.835-1.36-.835-1.852 0-.493.257-1.064.837-1.857.265-.374.405-.816.405-1.277 0-1.208-.969-2.191-2.16-2.191s-2.16.983-2.16 2.191c0 .461.14.903.408 1.281.577.789.834 1.36.834 1.853M19.689 441.632H10.31a.255.255 0 0 0-.254.257v2.587c0 .142.114.257.254.257h9.378c.14 0 .253-.115.253-.257v-2.587a.255.255 0 0 0-.253-.257M18.254 445.109h-6.508a.256.256 0 0 0-.254.258v.291c0 .142.114.258.254.258h6.508c.14 0 .254-.116.254-.258v-.291a.256.256 0 0 0-.254-.258"/><g fill-rule="evenodd" clip-rule="evenodd"><path fill="#AB6993" d="M8.205 380h13.59c1.114 0 1.519.116 1.926.334s.727.538.945.945.334.811.334 1.926v13.59c0 1.115-.116 1.519-.334 1.926a2.28 2.28 0 0 1-.945.945c-.407.218-.811.334-1.926.334H8.205c-1.115 0-1.519-.116-1.926-.334a2.28 2.28 0 0 1-.945-.945c-.218-.407-.334-.811-.334-1.926v-13.59c0-1.115.116-1.519.334-1.926s.538-.727.945-.945S7.09 380 8.205 380"/><path fill="#fff" d="M14.906 385.736a.5.5 0 0 0-.56-.432c-2.634.338-4.646 2.569-4.646 5.247a5.29 5.29 0 0 0 3.314 4.897.5.5 0 0 0 .377-.926 4.29 4.29 0 0 1-2.691-3.971c0-2.17 1.633-3.981 3.774-4.255a.5.5 0 0 0 .432-.56m4.927 4.709a.5.5 0 0 0 .424-.566 5.6 5.6 0 0 0-.44-1.536.5.5 0 0 0-.912.412q.267.59.362 1.265a.5.5 0 0 0 .566.425m-4.15 5.352a.5.5 0 0 1-.141-.99q.658-.094 1.236-.348a.5.5 0 1 1 .405.914q-.706.313-1.5.424m2.817-1.899a.5.5 0 0 0 .7-.1q.512-.68.785-1.389a.5.5 0 1 0-.934-.357 4.8 4.8 0 0 1-.65 1.146.5.5 0 0 0 .1.7"/><path fill="#fff" d="M14.713 388.4a.315.315 0 0 1-.313-.312v-4.375c0-.171.142-.313.313-.313a.3.3 0 0 1 .22.093l2.187 2.187a.31.31 0 0 1 .092.22.31.31 0 0 1-.092.22l-2.188 2.187a.3.3 0 0 1-.22.093"/></g><g fill-rule="evenodd" clip-rule="evenodd"><path fill="#AB6993" d="M17.139 415.638h6.36c.523 0 .712.055.902.157q.287.154.443.442c.102.191.156.38.156.901v6.362c0 .521-.054.711-.156.901a1.06 1.06 0 0 1-.443.443c-.19.102-.38.156-.901.156h-6.361c-.522 0-.711-.054-.902-.156a1.06 1.06 0 0 1-.442-.443c-.102-.19-.157-.38-.157-.901v-6.362c0-.521.055-.71.157-.901q.154-.288.442-.442c.19-.102.38-.157.902-.157M17.139 405h6.36c.523 0 .712.054.902.156q.287.155.443.443c.102.19.156.38.156.901v6.362c0 .521-.054.71-.156.901a1.06 1.06 0 0 1-.443.442c-.19.102-.38.157-.901.157h-6.361c-.522 0-.711-.055-.902-.157a1.06 1.06 0 0 1-.442-.442c-.102-.191-.157-.38-.157-.901V406.5c0-.521.055-.711.157-.901q.154-.288.442-.443c.19-.102.38-.156.902-.156M6.5 415.638h6.362c.521 0 .71.055.901.157.19.102.34.251.442.442s.157.38.157.901v6.362c0 .521-.055.711-.157.901a1.06 1.06 0 0 1-.442.443c-.19.102-.38.156-.901.156H6.5c-.521 0-.71-.054-.901-.156a1.06 1.06 0 0 1-.443-.443c-.102-.19-.156-.38-.156-.901v-6.362c0-.521.054-.71.156-.901a1.06 1.06 0 0 1 .443-.442c.19-.102.38-.157.901-.157M6.5 405h6.362c.521 0 .71.054.901.156.19.102.34.252.442.443.102.19.157.38.157.901v6.362c0 .521-.055.71-.157.901q-.154.288-.442.442c-.19.102-.38.157-.901.157H6.5c-.521 0-.71-.055-.901-.157a1.06 1.06 0 0 1-.443-.442c-.102-.191-.156-.38-.156-.901V406.5c0-.521.054-.711.156-.901q.155-.288.443-.443c.19-.102.38-.156.901-.156"/><path fill="#fff" d="M9.4 411.071v-2.102h-.714c-.182 0-.282-.066-.282-.293 0-.205.11-.26.399-.315l.204-.044c.614-.133.443-.764.913-.764.177 0 .32.078.32.376v3.142c0 .288-.11.487-.42.487s-.42-.199-.42-.487M19.743 410.789h1.66c.21 0 .364.1.364.349s-.155.348-.41.348h-2.074c-.32 0-.453-.215-.453-.409 0-.393.348-.83 1.04-1.267.769-.487 1.034-.586 1.034-1.034 0-.36-.276-.559-.58-.559-.355 0-.593.144-.714.586-.055.205-.127.31-.349.31-.226 0-.404-.094-.404-.37 0-.675.664-1.19 1.477-1.19.886 0 1.411.581 1.411 1.09 0 .736-.337 1.023-.924 1.355-.625.354-1.007.581-1.079.791M8.192 421.452c0-.226.165-.387.392-.387.493 0 .227.681.99.681.415 0 .637-.255.637-.598 0-.265-.117-.459-.498-.498-.155-.016-.46-.044-.46-.299 0-.287.167-.348.482-.365.277-.016.42-.177.42-.431 0-.332-.26-.487-.553-.487-.67 0-.514.631-.951.631-.188 0-.371-.083-.371-.332 0-.675.802-.963 1.339-.963.957 0 1.31.537 1.31 1.073 0 .354-.16.609-.47.775.415.116.593.448.593.863 0 .874-.675 1.294-1.494 1.294-1.04 0-1.367-.647-1.367-.957M20.426 420.822v-1.433h-.011l-1.068 1.433zm0 1.2v-.57h-1.388c-.288 0-.421-.204-.421-.381 0-.144.033-.233.105-.327l1.704-2.185c.083-.11.205-.155.36-.155.298 0 .414.161.414.399v2.019h.277c.188 0 .31.132.31.315s-.122.315-.31.315H21.2v.57c0 .232-.1.387-.387.387s-.387-.155-.387-.387"/></g><g fill-rule="evenodd" clip-rule="evenodd"><path fill="#4A7AAB" d="M8.205 455h13.59c1.114 0 1.519.116 1.926.334s.727.538.945.945.334.811.334 1.926v13.59c0 1.115-.116 1.519-.334 1.926a2.28 2.28 0 0 1-.945.945c-.407.218-.811.334-1.926.334H8.205c-1.115 0-1.519-.116-1.926-.334a2.28 2.28 0 0 1-.945-.945c-.218-.407-.334-.811-.334-1.926v-13.59c0-1.115.116-1.519.334-1.926s.538-.727.945-.945S7.09 455 8.205 455"/><path fill="#fff" d="M13.052 463.831h6.07c.153 0 .278.125.278.279v5.905a.28.28 0 0 1-.279.278H10.88a.28.28 0 0 1-.279-.278v-5.905c0-.154.125-.279.279-.279h1.116c-.005-2.001.006-2.141.01-2.186.058-.719.436-1.44 1.01-1.926a3 3 0 0 1 1.987-.719h.037q.126.001.256.012c1.427.115 2.616 1.291 2.705 2.678.008.121.006.221.001.419v.02c-.003.116-.007.271-.01.488a.528.528 0 1 1-1.056-.015l.009-.435.001-.082.002-.063c.003-.124.004-.19 0-.264-.057-.876-.82-1.62-1.737-1.693a2 2 0 0 0-.182-.009 1.95 1.95 0 0 0-1.33.469c-.365.309-.604.76-.64 1.206-.005.085-.01.686-.006 2.1m1.265 4.781h1.366l-.208-1.694a.77.77 0 0 0 .332-.628c0-.429-.362-.777-.807-.777s-.806.348-.806.777c0 .258.13.487.331.628z"/></g><g fill-rule="evenodd" clip-rule="evenodd"><path fill="#4A7AAB" d="M8.205 480h13.59c1.114 0 1.519.116 1.926.334s.727.538.945.945.334.811.334 1.926v13.59c0 1.115-.116 1.519-.334 1.926a2.28 2.28 0 0 1-.945.945c-.407.218-.811.334-1.926.334H8.205c-1.115 0-1.519-.116-1.926-.334a2.28 2.28 0 0 1-.945-.945c-.218-.407-.334-.811-.334-1.926v-13.59c0-1.115.116-1.519.334-1.926s.538-.727.945-.945S7.09 480 8.205 480"/><path fill="#fff" d="M15.138 483.501a.59.59 0 0 0-.476 0l-5.03 2.236a.58.58 0 0 0-.348.534v3.355c0 3.38 2.337 6.51 5.477 7.276a.6.6 0 0 0 .278 0c3.14-.766 5.477-3.896 5.477-7.276v-3.355a.58.58 0 0 0-.347-.534zm-4.684 3.151 4.446-1.976 4.446 1.976v2.974c0 2.801-1.91 5.409-4.446 6.104-2.536-.695-4.446-3.303-4.446-6.104z"/><path fill="#fff" d="M15.693 492.107h-1.805l.276-2.237a1.01 1.01 0 0 1-.439-.83c0-.567.477-1.026 1.066-1.026.588 0 1.065.459 1.065 1.026 0 .341-.172.643-.438.83z"/></g><path fill="#F5C5B3" fill-rule="evenodd" d="M17.61 116.2h5.98c.49 0 .668.051.847.147q.271.145.416.416c.096.179.147.357.147.847v5.98c0 .49-.051.668-.147.847a1 1 0 0 1-.416.416c-.179.096-.357.147-.847.147h-5.98c-.49 0-.668-.051-.847-.147a1 1 0 0 1-.416-.416c-.096-.179-.147-.357-.147-.847v-5.98c0-.49.051-.668.147-.847a1 1 0 0 1 .416-.416c.179-.096.357-.147.847-.147" clip-rule="evenodd"/><path fill="#EE6C4D" fill-rule="evenodd" d="M6.41 105h5.98c.49 0 .668.051.847.147q.271.145.416.416c.096.179.147.357.147.847v17.18c0 .49-.051.668-.147.847a1 1 0 0 1-.416.416c-.179.096-.357.147-.847.147H6.41c-.49 0-.668-.051-.847-.147a1 1 0 0 1-.416-.416c-.096-.179-.147-.357-.147-.847v-17.18c0-.49.051-.668.147-.847a1 1 0 0 1 .416-.416c.179-.096.357-.147.847-.147" clip-rule="evenodd"/><path fill="#F5C5B3" fill-rule="evenodd" d="M17.61 105h5.98c.49 0 .668.051.847.147q.271.145.416.416c.096.179.147.357.147.847v5.98c0 .49-.051.668-.147.847a1 1 0 0 1-.416.416c-.179.096-.357.147-.847.147h-5.98c-.49 0-.668-.051-.847-.147a1 1 0 0 1-.416-.416c-.096-.179-.147-.357-.147-.847v-5.98c0-.49.051-.668.147-.847a1 1 0 0 1 .416-.416c.179-.096.357-.147.847-.147" clip-rule="evenodd"/><path fill="#B63C23" fill-rule="evenodd" d="m19.079 110.549 1.045-2.708c.07-.178.197-.241.395-.241h.192c.182 0 .345.043.434.29l.976 2.659c.03.077.079.217.079.304 0 .193-.173.347-.38.347-.177 0-.305-.063-.364-.217l-.208-.579h-1.301l-.212.579c-.055.154-.168.217-.36.217-.222 0-.375-.135-.375-.347 0-.087.05-.227.079-.304m1.992-.695-.459-1.395h-.01l-.478 1.395zM19.2 121.747v-2.494c0-.344.177-.453.447-.453h1.014c.558 0 1.223.128 1.223.878a.73.73 0 0 1-.47.69v.009c.353.095.586.35.586.817 0 .713-.572 1.006-1.233 1.006h-1.12c-.27 0-.447-.109-.447-.453m.763-1.058v.916h.642c.297 0 .632-.061.632-.453 0-.411-.353-.463-.725-.463zm0-1.322v.831h.628c.358 0 .53-.147.53-.416 0-.326-.27-.415-.553-.415z" clip-rule="evenodd"/><path fill="#fff" d="m9.4 110.634 1.815 1.83a.34.34 0 0 0 .485 0 .35.35 0 0 0 0-.489l-2.058-2.074a.34.34 0 0 0-.484 0L7.1 111.975a.35.35 0 0 0 0 .489.34.34 0 0 0 .485 0zM9.4 119.334l1.815-1.83a.34.34 0 0 1 .485 0 .35.35 0 0 1 0 .489l-2.058 2.074a.34.34 0 0 1-.484 0L7.1 117.993a.35.35 0 0 1 0-.489.34.34 0 0 1 .485 0z"/><ellipse cx="9.4" cy="114.984" fill="#fff" rx="1.029" ry="1.037"/><path fill="#fff" fill-rule="evenodd" d="M64 267c-4.968 0-9 4.032-9 9s4.032 9 9 9 9-4.032 9-9-4.032-9-9-9m0 2.7c1.494 0 2.7 1.206 2.7 2.7s-1.206 2.7-2.7 2.7a2.696 2.696 0 0 1-2.7-2.7c0-1.494 1.206-2.7 2.7-2.7m0 12.6c-2.25 0-4.24-1.097-5.4-2.76.027-1.706 3.6-2.64 5.4-2.64 1.79 0 5.373.935 5.4 2.64-1.16 1.663-3.15 2.76-5.4 2.76" clip-rule="evenodd" opacity=".87"/><path fill="#AB0004" fill-rule="evenodd" d="M79.334 252.944a4.45 4.45 0 0 0-4.443 4.45 4.442 4.442 0 0 0 8.884 0 4.45 4.45 0 0 0-4.441-4.45m17.006-9.829a22.2 22.2 0 0 0-12.083-7.385q-.206 2.24-.489 4.47a17.78 17.78 0 0 1 9.172 5.78c.443.52 1.07.787 1.7.787.508 0 1.013-.165 1.434-.52a2.216 2.216 0 0 0 .266-3.132m-21.93-7.385a22.2 22.2 0 0 0-12.083 7.385 2.222 2.222 0 1 0 3.4 2.865 17.8 17.8 0 0 1 9.169-5.78 127 127 0 0 1-.486-4.47m1.057 8.923a13.33 13.33 0 0 0-6.34 4.176 2.217 2.217 0 0 0 .273 3.124c.413.356.919.522 1.426.522.637 0 1.265-.268 1.708-.789a8.85 8.85 0 0 1 3.546-2.55 708 708 0 0 1-.613-4.483m14.073 4.176a13.3 13.3 0 0 0-6.344-4.178 715 715 0 0 1-.61 4.483 8.85 8.85 0 0 1 3.547 2.552c.442.52 1.072.79 1.707.79.507 0 1.013-.167 1.426-.523a2.213 2.213 0 0 0 .274-3.124m13.607-11.422a31.08 31.08 0 0 0-18.62-10.643c-.017 1.326-.04 2.95-.078 4.483a26.67 26.67 0 0 1 15.298 9.017 2.19 2.19 0 0 0 1.7.794 2.224 2.224 0 0 0 1.7-3.652m-29.005-10.641a31.07 31.07 0 0 0-18.622 10.643 2.223 2.223 0 0 0 1.7 3.652c.637 0 1.267-.267 1.7-.787a26.65 26.65 0 0 1 15.302-9.026 401 401 0 0 1-.08-4.482m7.732 8.832c-.156 3.082-1.05 12.278-1.05 12.278-.135 1.524-.61 1.943-1.493 1.943-.88 0-1.353-.419-1.489-1.943 0 0-.9-9.196-1.05-12.278-.103-2.135-.135-8.556-.135-8.556 0-2.68.982-4.042 2.674-4.042s2.679 1.363 2.679 4.041c0 0-.028 6.42-.135 8.556" clip-rule="evenodd"/><path fill="#E1E1E1" fill-rule="evenodd" d="M41.61 312.025h6.31c.724 0 .986.075 1.25.216q.4.215.613.614c.142.264.217.526.217 1.249v8.817c0 .723-.075.985-.217 1.249a1.47 1.47 0 0 1-.613.613c-.264.142-.526.217-1.25.217h-8.816c-.723 0-.985-.075-1.25-.217a1.47 1.47 0 0 1-.612-.613c-.142-.264-.217-.526-.217-1.249v-4.063l4.584-1.576z" clip-rule="evenodd"/><path fill="#383E45" d="M47.63 319.837a.35.35 0 0 0-.355-.348.35.35 0 0 0-.355.348v1.542l-2.065-2.027a.36.36 0 0 0-.5 0 .343.343 0 0 0 0 .492l2.064 2.027h-1.57a.35.35 0 0 0-.355.348c0 .192.158.348.354.348h2.427a.35.35 0 0 0 .354-.348v-2.382"/><path fill="#626870" fill-rule="evenodd" d="m30.004 315.437-.004-.001v-7.752L36.952 305l3.854 1.298v10.382l-3.854 1.244-6.94-2.484 6.983.908v-9.095l-4.504 1.04v6.106z" clip-rule="evenodd"/><path fill="#AB6993" fill-rule="evenodd" d="m19.886 600-5.784-3.789H7.609c-.907 0-1.236-.094-1.568-.271a1.84 1.84 0 0 1-.77-.766c-.177-.33-.271-.657-.271-1.561v-11.015c0-.904.094-1.231.272-1.561.177-.331.438-.59.77-.766.331-.177.66-.271 1.567-.271h14.782c.907 0 1.236.094 1.568.271.331.176.592.435.77.766.177.33.271.657.271 1.561v11.015c0 .904-.095 1.231-.272 1.561-.177.331-.438.59-.77.766-.331.177-.66.271-1.567.271h-1.53zM8.704 584.444v-.74h12.592v.74zm0 1.852v.741h12.592v-.741zm0 3.334v-.741h12.592v.741zm0 1.851v.741h6.666v-.741z" clip-rule="evenodd"/><g fill-rule="evenodd" clip-rule="evenodd"><path fill="#4A7AAB" d="M17.596 625H7.404c-.836 0-1.14-.087-1.445-.25a1.7 1.7 0 0 1-.709-.709c-.163-.306-.25-.609-.25-1.445v-10.192c0-.836.087-1.139.25-1.445a1.7 1.7 0 0 1 .71-.709c.305-.163.608-.25 1.444-.25h10.192c.836 0 1.14.087 1.445.25.305.164.545.404.709.709.163.306.25.609.25 1.445v10.192c0 .836-.087 1.139-.25 1.445a1.7 1.7 0 0 1-.71.709c-.305.163-.608.25-1.444.25"/><path fill="#fff" d="m8.064 620.424 1.912-5.561c.048-.142.128-.363.44-.363.185 0 .417.168.417.451 0 .097-.032.194-.064.292l-1.913 5.561c-.048.142-.128.363-.44.363a.44.44 0 0 1-.416-.451c0-.098.032-.195.064-.292m3.204-.486 1.697-4.961c.112-.327.32-.442.64-.442h.312c.296 0 .56.08.704.531l1.584 4.872c.048.141.128.398.128.557 0 .353-.28.636-.616.636-.288 0-.496-.115-.592-.398l-.336-1.061h-2.112l-.345 1.061c-.088.283-.272.398-.584.398-.36 0-.608-.247-.608-.636 0-.159.08-.416.128-.557m3.233-1.274-.744-2.555h-.016l-.776 2.555z"/><path fill="#E7EDF4" d="M19.917 605A4.92 4.92 0 0 0 15 609.917a4.918 4.918 0 0 0 9.833 0A4.92 4.92 0 0 0 19.917 605"/><path fill="#1D4772" d="m19.175 611.958-1.854-1.853.523-.523 1.331 1.327 2.814-2.814.523.527z"/></g><path fill="#AB6993" d="M8.205 555h13.59c1.114 0 1.519.116 1.926.334s.727.538.945.945.334.811.334 1.926v13.59c0 1.115-.116 1.519-.334 1.926a2.28 2.28 0 0 1-.945.945c-.407.218-.811.334-1.926.334H8.205c-1.115 0-1.519-.116-1.926-.334a2.28 2.28 0 0 1-.945-.945c-.218-.407-.334-.811-.334-1.926v-13.59c0-1.115.116-1.519.334-1.926s.538-.727.945-.945S7.09 555 8.205 555"/><path fill="#4A7AAB" d="M8.205 555h13.59c1.114 0 1.519.116 1.926.334s.727.538.945.945.334.811.334 1.926v13.59c0 1.115-.116 1.519-.334 1.926a2.28 2.28 0 0 1-.945.945c-.407.218-.811.334-1.926.334H8.205c-1.115 0-1.519-.116-1.926-.334a2.28 2.28 0 0 1-.945-.945c-.218-.407-.334-.811-.334-1.926v-13.59c0-1.115.116-1.519.334-1.926s.538-.727.945-.945S7.09 555 8.205 555"/><g fill="#fff"><path d="m11.921 564.134-.164 5.855a.089.089 0 0 0 .165.047l1.871-3.242a1.066 1.066 0 0 1 1.265-1.698 1.065 1.065 0 0 1-.838 1.944l-1.866 3.232a.089.089 0 0 0 .123.12l4.982-3.061a.53.53 0 0 0 .25-.399l.364-3.603a.53.53 0 0 0-.263-.514l-2.158-1.246a.53.53 0 0 0-.577.03l-2.934 2.119a.53.53 0 0 0-.22.416M18.53 562.77l-3.185-1.838c-.17-.098-.208-.349-.086-.561l.741-1.283c.123-.212.36-.305.529-.207l3.184 1.839c.17.098.208.349.086.561l-.741 1.283c-.122.212-.359.304-.529.206"/></g><path fill="#AB6993" fill-rule="evenodd" d="M8.205 630h13.59c1.114 0 1.519.116 1.926.334s.727.538.945.945.334.811.334 1.926v13.59c0 1.115-.116 1.519-.334 1.926a2.28 2.28 0 0 1-.945.945c-.407.218-.811.334-1.926.334H8.205c-1.115 0-1.519-.116-1.926-.334a2.28 2.28 0 0 1-.945-.945c-.218-.407-.334-.811-.334-1.926v-13.59c0-1.115.116-1.519.334-1.926s.538-.727.945-.945S7.09 630 8.205 630" clip-rule="evenodd"/><g fill="#fff" fill-rule="evenodd" clip-rule="evenodd"><path d="M11.253 642.188a.175.175 0 0 1 .278-.082l1.874 1.522a.176.176 0 0 1-.031.294l-2.159 1.087a.5.5 0 0 1-.134.043l-.047.006a.5.5 0 0 1-.357-.107.47.47 0 0 1-.166-.463l.012-.046zM16.916 635a1.497 1.497 0 0 1 1.983-.224l.063.047.366.305a1.427 1.427 0 0 1 .23 1.963l-.05.064-5.155 6.082a.35.35 0 0 1-.493.043l-2.048-1.7a.35.35 0 0 1-.044-.497z"/></g><path fill="#4A7AAB" fill-rule="evenodd" d="M8.205 655h13.59c1.114 0 1.519.116 1.926.334s.727.538.945.945.334.811.334 1.926v13.59c0 1.115-.116 1.519-.334 1.926a2.28 2.28 0 0 1-.945.945c-.407.218-.811.334-1.926.334H8.205c-1.115 0-1.519-.116-1.926-.334a2.28 2.28 0 0 1-.945-.945c-.218-.407-.334-.811-.334-1.926v-13.59c0-1.115.116-1.519.334-1.926s.538-.727.945-.945S7.09 655 8.205 655" clip-rule="evenodd"/><g fill="#fff"><path fill-rule="evenodd" d="M14.17 659.053a.445.445 0 0 0-.602.181l-.512.917-1.036.181a.464.464 0 0 0-.375.509l.125 1.041-.717.747a.464.464 0 0 0-.012.622l.717.769-.147 1.052a.47.47 0 0 0 .295.476l-1.695 2.987c-.046.068-.034.158 0 .226a.23.23 0 0 0 .193.113h1.82l.832 1.437a.23.23 0 0 0 .193.113.22.22 0 0 0 .194-.113l1.627-2.761 1.627 2.795a.23.23 0 0 0 .193.113.22.22 0 0 0 .194-.113l.83-1.471h1.82a.22.22 0 0 0 .194-.113.186.186 0 0 0 .012-.226l-1.684-2.942a.47.47 0 0 0 .261-.464l-.125-1.041.717-.747c.16-.158.17-.43.011-.622l-.716-.769.148-1.053a.47.47 0 0 0-.365-.498l-1.035-.203-.5-.917c-.103-.215-.354-.305-.581-.215h-.011l-.956.442zm-.716 1.335.512-.916.933.452a.44.44 0 0 0 .41 0l.944-.43h.011l.501.939c.068.114.182.204.307.215l1.036.204-.148 1.041a.44.44 0 0 0 .114.373l.716.77-.728.747a.42.42 0 0 0-.125.373l.125 1.041-1.024.17a.46.46 0 0 0-.319.226l-.512.916-.933-.452a.44.44 0 0 0-.41 0l-.944.441h-.011l-.5-.939a.42.42 0 0 0-.32-.215l-1.046-.192.148-1.041a.44.44 0 0 0-.114-.374l-.706-.769.717-.747a.42.42 0 0 0 .126-.373l-.126-1.03s0-.011.012-.022l1.035-.182a.46.46 0 0 0 .319-.226" clip-rule="evenodd"/><path d="M14.973 664.792a1.84 1.84 0 0 1-1.834-1.834c0-1.008.825-1.833 1.834-1.833 1.008 0 1.833.825 1.833 1.833a1.84 1.84 0 0 1-1.833 1.834"/></g><path stroke="#707078" stroke-linecap="round" stroke-linejoin="round" stroke-width="1.6" d="M44.667 136.667H31.333m6 2.666H34m-2.667-3.866v5.066c0 .747 0 1.12.146 1.406.128.251.332.455.582.582.286.146.659.146 1.406.146h9.066c.747 0 1.12 0 1.406-.146.25-.127.455-.331.582-.582.146-.286.146-.659.146-1.406v-5.066c0-.747 0-1.12-.146-1.406a1.33 1.33 0 0 0-.582-.582c-.286-.146-.659-.146-1.406-.146h-9.066c-.747 0-1.12 0-1.406.146-.25.127-.454.331-.582.582-.146.286-.146.659-.146 1.406"/><g fill-rule="evenodd" clip-rule="evenodd"><path fill="#4D90FE" d="M40.249 31.415c-.897.432-1.57 1.16-2.062 1.985-.79-1.325-2.047-2.4-3.95-2.4S30 32.612 30 35.334c0 2.756 2.306 4.062 3.447 4.8 1.221.788 3.304 2.22 4.74 4.871 1.436-2.65 3.519-4.083 4.74-4.87.857-.555 2.373-1.431 3.073-3.003z"/><path fill="#fff" d="M40.18 37.288V32.11l5.193 5.18z"/></g><g fill-rule="evenodd" clip-rule="evenodd"><path fill="#E5322D" d="M40.249 6.415c-.897.432-1.57 1.16-2.062 1.985-.79-1.325-2.047-2.4-3.95-2.4S30 7.612 30 10.334c0 2.756 2.306 4.062 3.447 4.8 1.221.788 3.304 2.22 4.74 4.871 1.436-2.65 3.519-4.083 4.74-4.87.857-.556 2.373-1.431 3.073-3.003z"/><path fill="#fff" d="M40.18 12.288V7.11l5.193 5.18z"/></g><g clip-rule="evenodd"><path fill="#707078" fill-rule="evenodd" d="M39.855 209.152a.09.09 0 0 0-.155.064v3.318c0 .05.04.091.09.091h3.32a.09.09 0 0 0 .063-.155z"/><path stroke="#707078" stroke-width="1.6" d="M37.624 208.371A3.7 3.7 0 0 0 34.715 207a3.81 3.81 0 0 0-2.64 1.178A3.88 3.88 0 0 0 31 210.881c0 2.308 1.796 3.501 2.848 4.182l.175.115a12 12 0 0 1 3.908 3.934.28.28 0 0 0 .482 0 11.96 11.96 0 0 1 3.917-3.934l.175-.115a6.35 6.35 0 0 0 2.462-2.458.16.16 0 0 0 0-.194l-4.898-4.951a.17.17 0 0 0-.202 0 4 4 0 0 0-1.147.911 5.3 5.3 0 0 0-.544.778 5.4 5.4 0 0 0-.552-.778Z"/></g><path stroke="#707078" stroke-linecap="round" stroke-linejoin="round" stroke-width="1.6" d="m31.333 234.667 5.444 3.81c.44.309.66.463.9.523.212.052.434.052.645 0 .24-.06.46-.214.901-.523l5.444-3.81m-10.134 8.666h6.934c1.12 0 1.68 0 2.108-.218.376-.191.682-.497.874-.874.218-.428.218-.988.218-2.108v-4.266c0-1.12 0-1.68-.218-2.108a2 2 0 0 0-.874-.874c-.428-.218-.988-.218-2.108-.218h-6.934c-1.12 0-1.68 0-2.108.218a2 2 0 0 0-.874.874c-.218.428-.218.988-.218 2.108v4.266c0 1.12 0 1.68.218 2.108.192.377.498.683.874.874.428.218.988.218 2.108.218"/><path fill="#EE6C4D" d="M8.2 680h13.6c1.113 0 1.53.104 1.913.348q.625.314.94.939c.208.417.347.8.347 1.913v13.6c0 1.113-.104 1.53-.348 1.913a2.05 2.05 0 0 1-.939.939c-.417.209-.8.348-1.913.348H8.2c-1.113 0-1.53-.104-1.913-.348-.383-.243-.73-.522-.94-.939-.208-.417-.347-.8-.347-1.913v-13.6c0-1.113.104-1.53.348-1.913a2.05 2.05 0 0 1 .939-.939c.383-.244.8-.348 1.913-.348"/><mask id="a" fill="#fff"><path fill-rule="evenodd" d="M17.427 694.29h-4.853c-.366 0-.662-.317-.662-.709v-7.162c0-.392.296-.709.661-.709h3.177v1.507a1 1 0 0 0 1 1h1.338v5.364c0 .392-.296.709-.662.709m-4.853.71h4.853c.73 0 1.323-.635 1.323-1.419v-5.348c0-.376-.14-.737-.388-1.004l-1.667-1.813a1.28 1.28 0 0 0-.936-.416h-3.186c-.73 0-1.323.635-1.323 1.419v7.162c0 .784.593 1.419 1.323 1.419" clip-rule="evenodd"/></mask><path fill="#FBE8E2" fill-rule="evenodd" d="M17.427 694.29h-4.853c-.366 0-.662-.317-.662-.709v-7.162c0-.392.296-.709.661-.709h3.177v1.507a1 1 0 0 0 1 1h1.338v5.364c0 .392-.296.709-.662.709m-4.853.71h4.853c.73 0 1.323-.635 1.323-1.419v-5.348c0-.376-.14-.737-.388-1.004l-1.667-1.813a1.28 1.28 0 0 0-.936-.416h-3.186c-.73 0-1.323.635-1.323 1.419v7.162c0 .784.593 1.419 1.323 1.419" clip-rule="evenodd"/><path fill="#FBE8E2" d="M15.75 685.71h2v-2h-2zm2.338 2.507 2-.042-.041-1.958h-1.959zm.274-.988-1.472 1.354.01.01zm-1.667-1.813 1.472-1.354-.01-.01zm-4.122 10.874h4.854v-4h-4.853zm-2.661-2.709c0 1.362 1.062 2.709 2.661 2.709v-4c.869 0 1.339.712 1.339 1.291zm0-7.162v7.162h4v-7.162zm2.661-2.709c-1.599 0-2.661 1.347-2.661 2.709h4c0 .579-.47 1.291-1.339 1.291zm3.177 0h-3.177v4h3.177zm-2 2v1.507h4v-1.507zm0 1.507a3 3 0 0 0 3 3v-4a1 1 0 0 1 1 1zm3 3h1.338v-4H16.75zm3.338-1.984v-.058l-4 .084v-.026zm0 5.348v-5.348h-4v5.348zm-2.661 2.709c1.599 0 2.661-1.347 2.661-2.709h-4c0-.579.47-1.291 1.338-1.291zm0-3.29h-4.853v4h4.853zm-.677.581c0-.116.045-.248.15-.361a.72.72 0 0 1 .527-.22v4c1.964 0 3.323-1.665 3.323-3.419zm0-5.348v5.348h4v-5.348zm.15.36a.53.53 0 0 1-.15-.36h4c0-.864-.319-1.717-.925-2.368zm-1.678-1.823 1.668 1.813 2.944-2.707-1.667-1.814zm.537.23a.72.72 0 0 1-.527-.22l2.925-2.728A3.28 3.28 0 0 0 15.76 683zm-3.186 0h3.186v-4h-3.186zm.677-.581a.54.54 0 0 1-.15.361.72.72 0 0 1-.527.22v-4c-1.964 0-3.323 1.665-3.323 3.419zm0 7.162v-7.162h-4v7.162zm-.677-.581c.234 0 .42.105.527.22.105.113.15.245.15.361h-4c0 1.754 1.359 3.419 3.323 3.419z" mask="url(#a)"/><path fill="#fff" fill-rule="evenodd" d="M20.653 697H19.18a.503.503 0 1 1 0-1.009h1.474a.35.35 0 0 0 .338-.338v-1.474c0-.279.225-.504.505-.504s.504.225.504.504v1.474c0 .736-.61 1.347-1.347 1.347M9.347 683h1.474a.503.503 0 1 1 0 1.009H9.347a.35.35 0 0 0-.338.338v1.474a.503.503 0 1 1-1.009 0v-1.474c0-.736.61-1.347 1.347-1.347M8 695.653v-1.474a.503.503 0 1 1 1.009 0v1.474c0 .177.16.338.338.338h1.474a.503.503 0 1 1 0 1.009H9.347A1.357 1.357 0 0 1 8 695.653M22 684.347v1.474a.503.503 0 1 1-1.009 0v-1.474a.35.35 0 0 0-.338-.338H19.18a.503.503 0 1 1 0-1.009h1.474c.736 0 1.347.611 1.347 1.347" clip-rule="evenodd"/><path stroke="#707078" stroke-linecap="round" stroke-linejoin="round" stroke-width="1.6" d="m38 394-.067-.1c-.463-.695-.694-1.042-1-1.293a2.7 2.7 0 0 0-.919-.492c-.379-.115-.796-.115-1.63-.115h-.917c-.747 0-1.12 0-1.406-.145a1.33 1.33 0 0 1-.582-.583c-.146-.285-.146-.659-.146-1.405v-5.734c0-.746 0-1.12.146-1.405.128-.251.332-.455.582-.583.286-.145.659-.145 1.406-.145h.266c1.494 0 2.24 0 2.811.291.502.255.91.663 1.165 1.165.291.57.291 1.317.291 2.811M38 394v-7.733M38 394l.067-.1c.463-.695.694-1.042 1-1.293.271-.223.583-.39.919-.492.379-.115.796-.115 1.63-.115h.917c.747 0 1.12 0 1.406-.145.25-.128.455-.332.582-.583.146-.285.146-.659.146-1.405v-5.734c0-.746 0-1.12-.146-1.405a1.34 1.34 0 0 0-.582-.583c-.286-.145-.659-.145-1.406-.145h-.266c-1.494 0-2.24 0-2.811.291-.502.255-.91.663-1.165 1.165-.291.57-.291 1.317-.291 2.811"/><path stroke="#33333B" stroke-linecap="round" stroke-linejoin="round" stroke-width="2" d="M58 302h18m-18-6h18m-18 12h18"/><path fill="#E5322D" d="M58 334.2c0-1.12 0-1.68.218-2.108.192-.376.498-.682.874-.874.428-.218.988-.218 2.108-.218h11.6c1.12 0 1.68 0 2.108.218.376.192.682.498.874.874.218.428.218.988.218 2.108v8.8h-5.337c-.245 0-.367 0-.482.028q-.154.037-.29.119c-.1.062-.187.149-.36.322l-.062.062c-.173.173-.26.26-.36.322q-.136.082-.29.119c-.115.028-.237.028-.482.028h-2.674c-.245 0-.367 0-.482-.028a1 1 0 0 1-.29-.119c-.1-.062-.187-.149-.36-.322l-.062-.062c-.173-.173-.26-.26-.36-.322a1 1 0 0 0-.29-.119c-.115-.028-.237-.028-.482-.028H58z" opacity=".12"/><path stroke="#E5322D" stroke-linecap="round" stroke-linejoin="round" stroke-width="2" d="M58 343v-8.8c0-1.12 0-1.68.218-2.108.192-.376.498-.682.874-.874.428-.218.988-.218 2.108-.218h11.6c1.12 0 1.68 0 2.108.218.376.192.682.498.874.874.218.428.218.988.218 2.108v8.8h-5.337c-.245 0-.367 0-.482.028q-.154.037-.29.119c-.1.062-.187.149-.36.322l-.062.062c-.173.173-.26.26-.36.322q-.136.082-.29.119c-.115.028-.237.028-.482.028h-2.674c-.245 0-.367 0-.482-.028a1 1 0 0 1-.29-.119c-.1-.062-.187-.149-.36-.322l-.062-.062c-.173-.173-.26-.26-.36-.322a1 1 0 0 0-.29-.119c-.115-.028-.237-.028-.482-.028zm0 0a1 1 0 0 0-1 1v.333c0 .62 0 .93.068 1.185a2 2 0 0 0 1.414 1.414c.255.068.565.068 1.185.068h14.666c.62 0 .93 0 1.185-.068a2 2 0 0 0 1.414-1.414c.068-.255.068-.565.068-1.185 0-.31 0-.465-.034-.592a1 1 0 0 0-.707-.707c-.127-.034-.282-.034-.592-.034H75"/><g fill-rule="evenodd" clip-rule="evenodd"><path fill="#FFF3B6" d="M6.896 280.002 15.91 280c.724 0 .987.075 1.251.217.265.142.473.349.614.614s.217.528.217 1.252v8.834c0 .724-.075.987-.217 1.252-.141.265-.349.472-.614.614-.264.142-.527.217-1.25.217h-8.83c-.724 0-.986-.075-1.251-.217a1.48 1.48 0 0 1-.614-.614c-.129-.241-.203-.48-.215-1.066L5 282.083c0-.724.075-.987.217-1.252.141-.265.35-.472.614-.614.24-.129.48-.203 1.065-.215"/><path fill="#DAB400" d="m9.882 284.176.01-2.003a.56.56 0 0 1 .556-.556.546.546 0 0 1 .55.551l-.016 3.321a.56.56 0 0 1-.556.556l-3.32.017a.546.546 0 0 1-.55-.551.56.56 0 0 1 .556-.556l2.122-.011-3.09-3.092a.5.5 0 0 1 .003-.704.497.497 0 0 1 .704-.004z"/><path fill="#FFD400" d="m13.892 287.002 9.015-.002c.724 0 .987.075 1.252.217.264.142.472.349.614.614.141.265.216.528.216 1.252v8.834c0 .724-.075.987-.216 1.252s-.35.472-.614.614c-.265.142-.528.217-1.252.217h-8.829c-.724 0-.986-.075-1.25-.217a1.48 1.48 0 0 1-.615-.614c-.128-.241-.202-.48-.215-1.066l-.002-9.02c0-.724.076-.987.217-1.252s.35-.472.614-.614c.24-.129.48-.203 1.065-.215"/><path fill="#fff" d="M22.012 291.167a.917.917 0 0 1 0 1.833.918.918 0 0 1 0-1.833M17.014 297.125h-2.906a.11.11 0 0 1-.098-.057.11.11 0 0 1 0-.111l3.014-5.052c.04-.068.154-.068.194 0l1.755 2.944 1.177-1.203a.11.11 0 0 1 .082-.034h.003a.11.11 0 0 1 .083.039l2.79 3.27c.03.02.05.054.05.093 0 .061-.051.111-.114.111h-6.029999999999999"/></g><g fill-rule="evenodd" clip-rule="evenodd"><path fill="#FFD400" d="M22.917 200h-8.834c-.724 0-.987-.075-1.252-.217a1.5 1.5 0 0 1-.614-.614c-.142-.265-.217-.528-.217-1.252v-8.834c0-.724.075-.987.217-1.252s.35-.472.614-.614c.265-.142.528-.217 1.252-.217h8.834c.724 0 .987.075 1.252.217.264.142.472.349.614.614s.217.528.217 1.252v8.834c0 .724-.075.987-.217 1.252s-.35.472-.614.614c-.265.142-.528.217-1.252.217"/><path fill="#FFF3B6" d="m6.897 180.002 9.02-.002c.724 0 .987.075 1.252.217.264.142.472.349.614.614s.217.528.217 1.252v8.834c0 .724-.075.987-.217 1.252s-.35.472-.614.614c-.265.142-.528.217-1.252.217H7.083c-.724 0-.987-.075-1.252-.217a1.48 1.48 0 0 1-.614-.614c-.129-.241-.203-.48-.215-1.066L5 182.083c0-.724.075-.987.217-1.252s.35-.472.614-.614c.241-.129.48-.203 1.066-.215"/><path fill="#fff" d="m22.218 196.51.01-2.003a.56.56 0 0 1 .556-.557.547.547 0 0 1 .55.551l-.016 3.321a.56.56 0 0 1-.556.557l-3.321.016a.546.546 0 0 1-.551-.55.56.56 0 0 1 .556-.557l2.123-.01-3.092-3.093a.5.5 0 0 1 .004-.704.5.5 0 0 1 .704-.004z"/><path fill="#DAB400" d="M15.021 184.167a.917.917 0 0 1 0 1.833.918.918 0 0 1 0-1.833M10.02 190.125H7.113a.11.11 0 0 1-.098-.057.11.11 0 0 1 0-.111l3.015-5.052c.04-.068.154-.068.195 0l1.756 2.944 1.177-1.203a.11.11 0 0 1 .082-.034h.003a.11.11 0 0 1 .083.039l2.791 3.27c.03.02.05.054.05.093 0 .061-.05.111-.114.111H10.02"/></g><path fill="#FFD400" fill-rule="evenodd" d="M22.917 550h-8.834c-.724 0-.987-.075-1.252-.217a1.5 1.5 0 0 1-.614-.614c-.142-.265-.217-.528-.217-1.252v-8.834c0-.724.075-.987.217-1.252s.35-.472.614-.614c.265-.142.528-.217 1.252-.217h8.834c.724 0 .987.075 1.252.217.264.142.472.349.614.614s.217.528.217 1.252v8.834c0 .724-.075.987-.217 1.252s-.35.472-.614.614c-.265.142-.528.217-1.252.217" clip-rule="evenodd"/><path fill="#FFF3B6" fill-rule="evenodd" d="m6.897 530.002 9.02-.002c.724 0 .987.075 1.252.217.264.142.472.349.614.614s.217.528.217 1.252v8.834c0 .724-.075.987-.217 1.252s-.35.472-.614.614c-.265.142-.528.217-1.252.217H7.083c-.724 0-.987-.075-1.252-.217a1.48 1.48 0 0 1-.614-.614c-.129-.241-.203-.48-.215-1.066L5 532.083c0-.724.075-.987.217-1.252s.35-.472.614-.614c.241-.129.48-.203 1.066-.215" clip-rule="evenodd"/><path fill="#fff" fill-rule="evenodd" d="m22.218 546.51.01-2.003a.56.56 0 0 1 .556-.557.547.547 0 0 1 .551.551l-.017 3.321a.56.56 0 0 1-.556.557l-3.321.016a.546.546 0 0 1-.551-.55.56.56 0 0 1 .556-.557l2.124-.01-3.093-3.093a.5.5 0 0 1 .004-.704.5.5 0 0 1 .704-.004z" clip-rule="evenodd"/><path fill="#EF9E02" d="M11.5 532a4.5 4.5 0 1 1 0 9 4.5 4.5 0 0 1 0-9m1.085 5h-2.17c.098 1.872.728 3 1.085 3s.988-1.128 1.085-3m-3.172 0H8.04a3.5 3.5 0 0 0 1.915 2.635A7.8 7.8 0 0 1 9.413 537m5.547 0h-1.373a7.9 7.9 0 0 1-.541 2.635A3.5 3.5 0 0 0 14.96 537m-5.006-3.635A3.5 3.5 0 0 0 8.04 536h1.373c.027-.903.21-1.795.541-2.635M11.5 533c-.357 0-.988 1.128-1.085 3h2.17c-.098-1.872-.728-3-1.085-3m1.546.365c.33.84.514 1.732.541 2.635h1.373a3.5 3.5 0 0 0-1.915-2.635"/><g clip-path="url(#b)"><path fill="#EE6C4D" fill-rule="evenodd" d="M8.205 55h13.59c1.114 0 1.519.116 1.926.334s.727.537.945.945.334.811.334 1.926v13.59c0 1.114-.116 1.519-.334 1.926a2.27 2.27 0 0 1-.945.945c-.407.218-.811.334-1.926.334H8.205c-1.115 0-1.519-.116-1.926-.334a2.27 2.27 0 0 1-.945-.945C5.116 73.314 5 72.91 5 71.795v-13.59c0-1.114.116-1.519.334-1.926s.538-.727.945-.945S7.09 55 8.205 55" clip-rule="evenodd"/><path fill="#fff" d="M9.97 59.97a.75.75 0 0 1 .976-.073l.084.073 9 9a.75.75 0 0 1-.976 1.133l-.084-.073-9-9a.75.75 0 0 1 0-1.06"/><path fill="#fff" d="M20.03 59.97a.75.75 0 0 0-.976-.073l-.084.073-9 9a.75.75 0 0 0 .976 1.133l.084-.073 9-9a.75.75 0 0 0 0-1.06"/></g><g fill-rule="evenodd" clip-rule="evenodd"><path fill="#E8EDF3" d="m6.897 505.002 9.02-.002c.724 0 .987.075 1.252.217.264.142.472.349.614.614s.217.528.217 1.252v8.834c0 .724-.075.987-.217 1.252s-.35.472-.614.614c-.265.142-.528.217-1.252.217H7.083c-.724 0-.987-.075-1.252-.217a1.48 1.48 0 0 1-.614-.614c-.129-.241-.203-.48-.215-1.066L5 507.083c0-.724.075-.987.217-1.252s.35-.472.614-.614c.241-.129.48-.203 1.066-.215"/><path fill="#4A7AAB" d="M22.917 525h-8.834c-.724 0-.987-.075-1.252-.217a1.5 1.5 0 0 1-.614-.614c-.142-.265-.217-.528-.217-1.252v-8.834c0-.724.075-.987.217-1.252s.35-.472.614-.614c.241-.129.48-.203 1.066-.215l9.02-.002c.724 0 .987.075 1.252.217.264.142.472.349.614.614s.217.528.217 1.252v8.834c0 .724-.075.987-.217 1.252s-.35.472-.614.614c-.265.142-.528.217-1.252.217"/><path fill="#1D4772" d="m10.551 509.843.01-2.003a.56.56 0 0 1 .556-.556.546.546 0 0 1 .551.55l-.016 3.322a.56.56 0 0 1-.557.556l-3.321.017a.547.547 0 0 1-.55-.551.56.56 0 0 1 .555-.556l2.124-.011-3.093-3.092a.5.5 0 0 1 .004-.705.5.5 0 0 1 .705-.003z"/><path fill="#fff" d="m14.858 520.624 1.72-4.529c.044-.115.116-.295.396-.295.166 0 .375.137.375.367a.7.7 0 0 1-.058.238l-1.72 4.529c-.044.115-.116.295-.397.295-.165 0-.374-.137-.374-.367 0-.08.029-.159.058-.238m2.883-.396 1.526-4.039c.1-.267.288-.36.576-.36h.28c.267 0 .505.065.634.432l1.426 3.967c.043.115.115.324.115.454 0 .288-.252.518-.554.518-.26 0-.447-.094-.533-.324l-.302-.864h-1.901l-.31.864c-.079.23-.245.324-.525.324-.324 0-.547-.202-.547-.518 0-.13.072-.339.115-.454m2.909-1.037-.67-2.081h-.015l-.698 2.081z"/></g><path fill="#8FBC5D" d="M8.205 705h13.59c1.114 0 1.519.116 1.926.334s.727.538.945.945.334.811.334 1.926v13.59c0 1.115-.116 1.519-.334 1.926a2.28 2.28 0 0 1-.945.945c-.407.218-.811.334-1.926.334H8.205c-1.115 0-1.519-.116-1.926-.334a2.28 2.28 0 0 1-.945-.945c-.218-.407-.334-.811-.334-1.926v-13.59c0-1.115.116-1.519.334-1.926s.538-.727.945-.945S7.09 705 8.205 705"/><path fill="#E5F5D2" d="M19.509 716.24a.44.44 0 0 1-.439-.439v-3.323a.94.94 0 0 0-.257-.647l-2.609-2.314a.86.86 0 0 0-.62-.268h-3.828c-.485 0-.878.41-.878.915v.935a.44.44 0 0 1-.878 0v-.935c0-1.011.786-1.831 1.755-1.831h3.829c.465 0 .912.193 1.241.537l2.609 2.313c.329.344.514.81.514 1.295v3.323a.44.44 0 0 1-.439.439"/><path fill="#E5F5D2" d="m15.623 708.333 2.162 2.146 1.73 2.146h-2.852a1.04 1.04 0 0 1-1.04-1.04z"/><path fill="#fff" d="M8.333 715.939c0-.519.351-.939.785-.939h11.764c.433 0 .785.42.785.939v4.789c0 .518-.352.939-.785.939H9.118c-.434 0-.785-.421-.785-.939z"/><path fill="#8FBC5D" fill-rule="evenodd" d="M10.917 715.566c.606 0 1.059.158 1.342.478q.332.375.394 1.001l.011.161.003.145v1.912l-.004.158q-.034.732-.403 1.162c-.285.331-.738.493-1.343.493q-.461 0-.802-.126a1.3 1.3 0 0 1-.567-.392 1.6 1.6 0 0 1-.293-.576 2.3 2.3 0 0 1-.074-.415l-.011-.154-.003-.157v-1.909l.003-.144q.03-.741.403-1.162c.283-.319.735-.475 1.344-.475m4.228 0c.567 0 .99.143 1.253.436q.305.34.363.908l.011.146.004.146v.06c0 .292-.26.529-.578.529a.57.57 0 0 1-.559-.395l-.016-.071-.004-.062v-.159l-.008-.19-.008-.089-.005-.028-.034-.121-.016-.04-.006-.01a1 1 0 0 0-.068-.069.1.1 0 0 0-.044-.027.951.951 0 0 0-.278-.041 1 1 0 0 0-.231.025.3.3 0 0 0-.116.055.5.5 0 0 0-.09.105.5.5 0 0 0-.05.151l-.019.117-.011.11-.008.203v2.074c0 .341.046.574.126.684.065.09.19.138.399.138a.9.9 0 0 0 .214-.023.2.2 0 0 0 .097-.05.5.5 0 0 0 .085-.104.4.4 0 0 0 .043-.143l.018-.147.007-.127.003-.252c0-.292.26-.529.579-.529.263 0 .489.162.558.395l.016.071.004.063v.033q0 .303-.044.546-.045.252-.155.474a1.2 1.2 0 0 1-.31.392 1.4 1.4 0 0 1-.482.243q-.281.084-.64.083-.384 0-.685-.095a1.4 1.4 0 0 1-.508-.271 1.3 1.3 0 0 1-.322-.422 1.8 1.8 0 0 1-.165-.505 3 3 0 0 1-.032-.27l-.008-.147-.003-.15v-1.777q0-.333.045-.597.047-.273.164-.512a1.2 1.2 0 0 1 .327-.419 1.4 1.4 0 0 1 .508-.256q.296-.089.68-.089m5.202.406c-.31-.241-.774-.357-1.394-.357h-.795l-.07.004-.073.015c-.237.061-.402.254-.402.48v4.36l.004.066.015.068c.069.243.304.414.58.414l.07-.004.086-.015.076-.025.071-.033a.54.54 0 0 0 .295-.471v-1.813h.252l.596 1.89.028.073.044.078c.13.198.36.32.612.32.271 0 .491-.201.491-.45l-.004-.054-.006-.036-.66-2.064.099-.052c.373-.225.558-.643.558-1.231 0-.523-.155-.915-.473-1.163m-9.43.517a.9.9 0 0 0-.304.044.26.26 0 0 0-.132.106.6.6 0 0 0-.084.219 1 1 0 0 0-.02.153l-.004.089-.002.105v2.2l.002.107q.004.147.024.251a.7.7 0 0 0 .085.227.27.27 0 0 0 .134.114q.11.046.3.047a.8.8 0 0 0 .3-.047.28.28 0 0 0 .136-.114.7.7 0 0 0 .085-.227 2 2 0 0 0 .019-.157l.005-.092.002-.106v-2.2l-.002-.106a2 2 0 0 0-.024-.244.6.6 0 0 0-.084-.219.26.26 0 0 0-.132-.106.9.9 0 0 0-.304-.044m7.893.006h.14l.108.002.096.007c.183.017.305.059.365.117.084.082.134.254.134.514 0 .265-.056.435-.152.514l-.043.03c-.111.065-.297.102-.556.102h-.092z" clip-rule="evenodd"/><path stroke="#707078" stroke-linecap="round" stroke-linejoin="round" stroke-width="1.6" d="M31.333 416.333v-.1c0-.211 0-.316.017-.419q.021-.137.07-.267c.037-.097.09-.189.194-.372L34 411m-2.667 5.333a2.667 2.667 0 1 0 5.334 0m-5.334 0v-.133c0-.187 0-.28.037-.351a.33.33 0 0 1 .145-.146c.072-.036.165-.036.352-.036h4.266c.187 0 .28 0 .352.036a.33.33 0 0 1 .145.146c.037.071.037.164.037.351v.133M34 411l2.386 4.175c.104.183.157.275.194.372q.048.13.07.267c.017.103.017.208.017.419v.1M34 411l8-1.333M39.333 415v-.1c0-.211 0-.317.017-.419a1.3 1.3 0 0 1 .07-.268c.037-.097.09-.188.194-.372L42 409.667M39.333 415a2.667 2.667 0 1 0 5.334 0m-5.334 0v-.133c0-.187 0-.28.037-.352a.34.34 0 0 1 .145-.145c.072-.037.165-.037.352-.037h4.266c.187 0 .28 0 .352.037a.34.34 0 0 1 .145.145c.037.072.037.165.037.352V415M42 409.667l2.386 4.174c.104.184.157.275.194.372q.048.13.07.268c.017.102.017.208.017.419v.1M38 407v3.333"/><path fill="#4A7AAB" d="M8.205 730h13.59c1.114 0 1.519.116 1.926.334s.727.538.945.945.334.811.334 1.926v13.59c0 1.115-.116 1.519-.334 1.926a2.28 2.28 0 0 1-.945.945c-.407.218-.811.334-1.926.334H8.205c-1.115 0-1.519-.116-1.926-.334a2.28 2.28 0 0 1-.945-.945c-.218-.407-.334-.811-.334-1.926v-13.59c0-1.115.116-1.519.334-1.926s.538-.727.945-.945S7.09 730 8.205 730"/><path fill="#BCD1E6" d="M8.333 735.417c0-.461.373-.834.834-.834h4.166c.46 0 .834.373.834.834v9.166a.833.833 0 0 1-.834.834H9.167a.833.833 0 0 1-.834-.834z"/><path fill="#E8EDF3" d="M15.833 735.417c0-.461.373-.834.834-.834h4.166c.46 0 .834.373.834.834v9.166a.833.833 0 0 1-.834.834h-4.166a.833.833 0 0 1-.834-.834z"/><path fill="#4A7AAB" d="M9.167 737.5c0-.46.373-.833.833-.833h2.5c.46 0 .833.373.833.833v2.5c0 .46-.373.833-.833.833H10a.833.833 0 0 1-.833-.833zM16.667 740c0-.46.373-.833.833-.833H20c.46 0 .833.373.833.833v2.5c0 .46-.373.833-.833.833h-2.5a.833.833 0 0 1-.833-.833z"/><path fill="#4A7AAB" fill-rule="evenodd" d="M9.167 742.5c0-.345.28-.625.625-.625h2.916a.625.625 0 0 1 0 1.25H9.792a.625.625 0 0 1-.625-.625M16.667 737.5c0-.345.28-.625.625-.625h2.916a.625.625 0 0 1 0 1.25h-2.916a.625.625 0 0 1-.625-.625" clip-rule="evenodd"/><path fill="#4A7AAB" d="M8.205 755h13.59c1.114 0 1.519.116 1.926.334s.727.538.945.945.334.811.334 1.926v13.59c0 1.115-.116 1.519-.334 1.926a2.28 2.28 0 0 1-.945.945c-.407.218-.811.334-1.926.334H8.205c-1.115 0-1.519-.116-1.926-.334a2.28 2.28 0 0 1-.945-.945c-.218-.407-.334-.811-.334-1.926v-13.59c0-1.115.116-1.519.334-1.926s.538-.727.945-.945S7.09 755 8.205 755"/><path fill="#fff" d="M9.167 760.151c0-.544.435-.984.972-.984h9.722c.537 0 .972.44.972.984v3.746a.98.98 0 0 1-.972.984H10.14a.98.98 0 0 1-.972-.984z"/><g fill="#4A7AAB" fill-rule="evenodd" clip-rule="evenodd"><path d="M13.469 760.575c.18-.18.472-.18.652 0l2.307 2.305a.46.46 0 1 1-.652.652l-2.307-2.305a.46.46 0 0 1 0-.652"/><path d="M16.428 760.575a.46.46 0 0 0-.652 0l-2.307 2.305a.46.46 0 1 0 .652.652l2.307-2.305a.46.46 0 0 0 0-.652"/></g><path fill="#E8EDF3" fill-rule="evenodd" d="M9.167 767.262c0-.394.32-.714.714-.714h10a.714.714 0 0 1 0 1.428h-10a.714.714 0 0 1-.714-.714M9.167 770.357c0-.394.32-.714.714-.714h5.238a.714.714 0 0 1 0 1.428H9.881a.714.714 0 0 1-.714-.714" clip-rule="evenodd"/><path fill="#8FBC5D" fill-rule="evenodd" d="M8.205 780h13.59c1.114 0 1.519.116 1.926.334s.727.538.945.945.334.811.334 1.926v13.59c0 1.115-.116 1.519-.334 1.926a2.28 2.28 0 0 1-.945.945c-.407.218-.811.334-1.926.334H8.205c-1.115 0-1.519-.116-1.926-.334a2.28 2.28 0 0 1-.945-.945c-.218-.407-.334-.811-.334-1.926v-13.59c0-1.115.116-1.519.334-1.926s.538-.727.945-.945S7.09 780 8.205 780" clip-rule="evenodd"/><path fill="#fff" d="M21.584 786.566a4 4 0 0 0-.067-.242.23.23 0 0 0-.091-.132.4.4 0 0 0-.184-.073c-.079-.019-.195-.037-.341-.064-.043-.005-.068-.028-.068-.06 0-.031.025-.054.074-.059q.22-.033.341-.059a.4.4 0 0 0 .177-.069.3.3 0 0 0 .092-.132q.027-.088.073-.246c0-.037.03-.055.074-.055q.062 0 .079.055.037.151.073.242c.025.059.05.1.092.132a.4.4 0 0 0 .177.073q.12.026.342.059c.049.005.073.028.073.059 0 .032-.024.055-.073.06q-.222.033-.342.059a.5.5 0 0 0-.183.073.4.4 0 0 0-.092.137 3 3 0 0 0-.067.246c-.006.037-.037.055-.08.055-.042-.009-.073-.027-.079-.059M19.483 785.787a.2.2 0 0 1-.054-.101 7 7 0 0 0-.116-.665.7.7 0 0 0-.185-.355.84.84 0 0 0-.37-.194 9 9 0 0 0-.695-.147c-.1-.023-.146-.077-.146-.162 0-.047.015-.078.038-.108a.2.2 0 0 1 .108-.055q.44-.057.695-.116.255-.057.37-.185a.77.77 0 0 0 .185-.371c.039-.163.077-.387.116-.681.008-.101.062-.147.162-.147.093 0 .147.046.162.147.03.286.07.503.108.665.039.155.1.271.185.356a.9.9 0 0 0 .378.185c.17.047.402.093.687.155q.14.034.139.163 0 .138-.162.162c-.286.046-.51.093-.68.131a.76.76 0 0 0-.37.186.73.73 0 0 0-.185.364 6 6 0 0 0-.108.672c-.015.101-.07.147-.162.147-.03-.007-.07-.015-.1-.046"/><circle cx="9.167" cy="786.667" r=".833" fill="#fff"/><path fill="#fff" fill-rule="evenodd" d="M17.917 786.667c0 .345-.28.625-.625.625h-5.417a.625.625 0 0 1 0-1.25h5.417c.345 0 .625.279.625.625" clip-rule="evenodd"/><circle cx="9.167" cy="790.417" r=".833" fill="#fff"/><path fill="#fff" fill-rule="evenodd" d="M21.667 790.417c0 .345-.28.625-.625.625h-9.167a.625.625 0 0 1 0-1.25h9.167c.345 0 .625.279.625.625" clip-rule="evenodd"/><circle cx="9.167" cy="794.167" r=".833" fill="#fff"/><path fill="#fff" fill-rule="evenodd" d="M16.25 794.167c0 .345-.28.625-.625.625h-3.75a.625.625 0 0 1 0-1.25h3.75c.345 0 .625.279.625.625" clip-rule="evenodd"/><path fill="#AB6993" fill-rule="evenodd" d="M8.205 805h13.59c1.114 0 1.519.116 1.926.334s.727.538.945.945.334.811.334 1.926v13.59c0 1.115-.116 1.519-.334 1.926a2.28 2.28 0 0 1-.945.945c-.407.218-.811.334-1.926.334H8.205c-1.115 0-1.519-.116-1.926-.334a2.28 2.28 0 0 1-.945-.945c-.218-.407-.334-.811-.334-1.926v-13.59c0-1.115.116-1.519.334-1.926s.538-.727.945-.945S7.09 805 8.205 805" clip-rule="evenodd"/><rect width="13.333" height="6.667" x="8.333" y="811.667" fill="#fff" rx="1.5"/><path fill="#fff" fill-rule="evenodd" d="M18.333 820v-10h.834v10z" clip-rule="evenodd"/><path fill="#AB6993" fill-rule="evenodd" d="M18.333 818.333v-6.666h.834v6.666z" clip-rule="evenodd"/><path fill="#fff" fill-rule="evenodd" d="M17.083 820c0-.23.173-.417.385-.417h2.564c.212 0 .385.187.385.417s-.173.417-.385.417h-2.564c-.212 0-.385-.187-.385-.417M17.083 810c0-.23.173-.417.385-.417h2.564c.212 0 .385.187.385.417s-.173.417-.385.417h-2.564c-.212 0-.385-.187-.385-.417" clip-rule="evenodd"/><g clip-path="url(#c)"><path stroke="#707078" stroke-linecap="round" stroke-linejoin="round" stroke-width="1.6" d="M36.06 361a2 2 0 0 1 2.225-1.308 2 2 0 0 1 1.662 1.975c0 1.333-2 2-2 2m.053 2.666h.007m6.66-3.333a6.667 6.667 0 1 1-13.334 0 6.667 6.667 0 0 1 13.334 0"/></g><path stroke="#707078" stroke-linecap="round" stroke-linejoin="round" stroke-width="1.6" d="M41.333 586.667v-1.334a3.333 3.333 0 0 0-6.666 0v1.334m3.333 3V591m-2.133 3h4.266c1.12 0 1.68 0 2.108-.218.377-.192.683-.498.874-.874.218-.428.218-.988.218-2.108v-.933c0-1.12 0-1.68-.218-2.108a2 2 0 0 0-.874-.874c-.428-.218-.988-.218-2.108-.218h-4.266c-1.12 0-1.68 0-2.108.218a2 2 0 0 0-.874.874c-.218.428-.218.988-.218 2.108v.933c0 1.12 0 1.68.218 2.108.191.376.497.682.874.874.428.218.988.218 2.108.218"/><path stroke="#33333B" stroke-linecap="round" stroke-linejoin="round" stroke-width="1.6" d="m82 54 4-4-4-4"/><path stroke="#fff" stroke-linecap="round" stroke-linejoin="round" stroke-width="1.6" d="m82 117 4-4-4-4"/><path stroke="#E5322D" stroke-linecap="round" stroke-linejoin="round" stroke-width="1.6" d="m124 117 4-4-4-4"/><path stroke="#33333B" stroke-linecap="round" stroke-linejoin="round" stroke-width="1.6" d="M79.333 92h9.334m0 0L84 87.333M88.667 92 84 96.667M65 54l-4-4 4-4"/><path stroke="#fff" stroke-linecap="round" stroke-linejoin="round" stroke-width="1.6" d="m65 117-4-4 4-4"/><path stroke="#E5322D" stroke-linecap="round" stroke-linejoin="round" stroke-width="1.6" d="m107 117-4-4 4-4"/><path fill="#E5322D" d="M60 361.2c0-1.12 0-1.68.218-2.108.192-.376.498-.682.874-.874.428-.218.988-.218 2.108-.218h7.6c1.12 0 1.68 0 2.108.218.376.192.682.498.874.874.218.428.218.988.218 2.108v13.6c0 1.12 0 1.68-.218 2.108a2 2 0 0 1-.874.874c-.428.218-.988.218-2.108.218h-7.6c-1.12 0-1.68 0-2.108-.218a2 2 0 0 1-.874-.874C60 376.48 60 375.92 60 374.8z" opacity=".12"/><path stroke="#E5322D" stroke-linecap="round" stroke-linejoin="round" stroke-width="2" d="M67 373.5h.01M63.2 378h7.6c1.12 0 1.68 0 2.108-.218.376-.192.682-.498.874-.874.218-.428.218-.988.218-2.108v-13.6c0-1.12 0-1.68-.218-2.108a2 2 0 0 0-.874-.874C72.48 358 71.92 358 70.8 358h-7.6c-1.12 0-1.68 0-2.108.218a2 2 0 0 0-.874.874C60 359.52 60 360.08 60 361.2v13.6c0 1.12 0 1.68.218 2.108.192.376.498.682.874.874.428.218.988.218 2.108.218m4.3-4.5a.5.5 0 1 1-1 0 .5.5 0 0 1 1 0"/><g stroke="#707078" stroke-linecap="round" stroke-linejoin="round" stroke-width="1.6" clip-path="url(#d)"><path d="M36 440.667a4.667 4.667 0 1 0-.001-9.334 4.667 4.667 0 0 0 .001 9.334"/><path d="M40 444.667a4.667 4.667 0 1 0-.001-9.334 4.667 4.667 0 0 0 .001 9.334"/></g><path fill="#E5322D" d="M70.092 387.572c-1.234.595-2.159 1.599-2.835 2.736-1.086-1.826-2.814-3.308-5.43-3.308S56 389.222 56 392.973s3.17 5.6 4.74 6.617c1.68 1.086 4.543 3.06 6.517 6.713 1.976-3.654 4.84-5.628 6.517-6.713 1.18-.765 3.263-1.972 4.226-4.139zm-.094 8.095v-7.139l7.139 7.139z"/><path fill="#fff" d="M69.998 395.667v-7.139l7.139 7.139z"/><path fill="#4D90FE" d="M70.092 416.572c-1.234.595-2.159 1.599-2.835 2.736-1.086-1.826-2.814-3.308-5.43-3.308S56 418.222 56 421.973s3.17 5.6 4.74 6.617c1.68 1.086 4.543 3.06 6.517 6.713 1.976-3.654 4.84-5.628 6.517-6.713 1.18-.765 3.263-1.972 4.226-4.139zm-.094 8.095v-7.139l7.139 7.139z"/><path fill="#fff" d="M69.998 424.667v-7.139l7.139 7.139z"/><path fill="#0062C5" d="M70.092 445.572c-1.234.595-2.159 1.599-2.835 2.736-1.086-1.826-2.814-3.308-5.43-3.308S56 447.222 56 450.973s3.17 5.6 4.74 6.617c1.68 1.086 4.543 3.06 6.517 6.713 1.976-3.654 4.84-5.628 6.517-6.713 1.18-.765 3.263-1.972 4.226-4.139zm-.094 8.095v-7.139l7.139 7.139z"/><path fill="#fff" d="M69.998 453.667v-7.139l7.139 7.139z"/><path fill="#26AEBA" d="M70.092 474.572c-1.234.595-2.159 1.599-2.835 2.736-1.086-1.826-2.814-3.308-5.43-3.308S56 476.222 56 479.973s3.17 5.6 4.74 6.617c1.68 1.086 4.543 3.06 6.517 6.713 1.976-3.654 4.84-5.628 6.517-6.713 1.18-.765 3.263-1.972 4.226-4.139zm-.094 8.095v-7.139l7.139 7.139z"/><path fill="#fff" d="M69.998 482.667v-7.139l7.139 7.139z"/><path fill="#FFCFCE" d="M189 9.8a4.8 4.8 0 0 0-4.8-4.8h-15.6a4.8 4.8 0 0 0-4.8 4.8v52.8a2.4 2.4 0 0 0 2.4 2.4h20.4a2.4 2.4 0 0 0 2.4-2.4z" style="mix-blend-mode:multiply"/><path fill="#F94942" d="M171.6 20a4.8 4.8 0 0 0-4.8-4.8h-15.6a4.8 4.8 0 0 0-4.8 4.8v42.6a2.4 2.4 0 0 0 2.4 2.4h20.4a2.4 2.4 0 0 0 2.4-2.4z" style="mix-blend-mode:hard-light"/><path fill="#6D110D" d="M154.2 32a4.8 4.8 0 0 0-4.8-4.8h-15.6A4.8 4.8 0 0 0 129 32v30.6a2.4 2.4 0 0 0 2.4 2.4h20.4a2.4 2.4 0 0 0 2.4-2.4z" style="mix-blend-mode:hard-light"/><path fill="#292931" d="M38 296a8 8 0 1 0 0-16 8 8 0 0 0 0 16m0-15c.657 0 1.407.59 2.022 1.908.217.466.406 1.002.559 1.592h-5.162c.153-.59.342-1.126.56-1.592C36.592 281.59 37.342 281 38 281m-2.928 1.485a10.5 10.5 0 0 0-.683 2.015h-2.453a7.02 7.02 0 0 1 3.778-3.118c-.241.33-.456.704-.642 1.103m-.88 3.015A16 16 0 0 0 34 288c0 .871.067 1.712.193 2.5H31.46A7 7 0 0 1 31 288c0-.881.163-1.724.46-2.5zm.197 6c.176.743.407 1.422.683 2.015.186.399.401.773.642 1.103a7.02 7.02 0 0 1-3.777-3.118zm1.03 0h5.162a9.3 9.3 0 0 1-.56 1.592C39.408 294.41 38.658 295 38 295s-1.407-.59-2.022-1.908a9.3 9.3 0 0 1-.559-1.592m5.375-1h-5.588A15 15 0 0 1 35 288c0-.883.073-1.725.206-2.5h5.588c.133.775.206 1.617.206 2.5s-.073 1.725-.206 2.5m.817 1h2.453a7.02 7.02 0 0 1-3.778 3.118c.241-.33.456-.704.642-1.103.276-.593.507-1.272.683-2.015m2.93-1h-2.734c.126-.788.193-1.629.193-2.5s-.067-1.712-.193-2.5h2.733c.297.776.46 1.619.46 2.5s-.163 1.724-.46 2.5m-4.255-9.118a7.02 7.02 0 0 1 3.777 3.118h-2.452a10.5 10.5 0 0 0-.683-2.015 6.6 6.6 0 0 0-.642-1.103"/><path stroke="#33333B" stroke-linecap="round" stroke-linejoin="round" stroke-width="2.4" d="m79 189-16 16m0-16 16 16M117.333 197H98.667m0 0 9.333 9.333M98.667 197l9.333-9.333"/><path stroke="#707078" stroke-width="1.4" d="M31 563a7 7 0 0 1 8.64-6.807.519.519 0 0 1 .24.876 1.643 1.643 0 0 0 .784 2.78c.26.058.447.29.447.558a1.642 1.642 0 0 0 2.876 1.084.518.518 0 0 1 .9.249q.112.614.113 1.26a7 7 0 1 1-14 0Z" clip-rule="evenodd"/><circle cx="34.75" cy="560.95" r="1.25" fill="#707078"/><circle cx="35.25" cy="565.25" r="1.25" fill="#707078"/><circle cx="39.75" cy="566.25" r="1.25" fill="#707078"/><circle cx="38.25" cy="562.75" r="1.25" fill="#707078"/><g stroke="#707078" stroke-linecap="round" stroke-linejoin="round" stroke-width="1.6"><path d="M35.6 107h-2.533c-.374 0-.56 0-.703.073a.67.67 0 0 0-.291.291c-.073.143-.073.329-.073.703v2.533c0 .373 0 .56.073.703a.67.67 0 0 0 .291.291c.143.073.33.073.703.073H35.6c.373 0 .56 0 .703-.073a.67.67 0 0 0 .291-.291c.073-.143.073-.33.073-.703v-2.533c0-.374 0-.56-.073-.703a.67.67 0 0 0-.291-.291c-.143-.073-.33-.073-.703-.073M42.933 114.333H40.4c-.373 0-.56 0-.703.073a.67.67 0 0 0-.291.291c-.073.143-.073.33-.073.703v2.533c0 .374 0 .56.073.703a.67.67 0 0 0 .291.291c.143.073.33.073.703.073h2.533c.374 0 .56 0 .703-.073a.67.67 0 0 0 .291-.291c.073-.143.073-.329.073-.703V115.4c0-.373 0-.56-.073-.703a.67.67 0 0 0-.291-.291c-.143-.073-.33-.073-.703-.073M35.6 114.333h-2.533c-.374 0-.56 0-.703.073a.67.67 0 0 0-.291.291c-.073.143-.073.33-.073.703v2.533c0 .374 0 .56.073.703a.67.67 0 0 0 .291.291c.143.073.33.073.703.073H35.6c.373 0 .56 0 .703-.073a.67.67 0 0 0 .291-.291c.073-.143.073-.329.073-.703V115.4c0-.373 0-.56-.073-.703a.67.67 0 0 0-.291-.291c-.143-.073-.33-.073-.703-.073M41.667 111.667V107m-2.334 2.333H44"/></g><path fill="#AB6993" fill-rule="evenodd" d="M8.205 830h13.59c1.114 0 1.519.116 1.926.334s.727.538.945.945.334.811.334 1.926v13.59c0 1.115-.116 1.519-.334 1.926a2.28 2.28 0 0 1-.945.945c-.407.218-.811.334-1.926.334H8.205c-1.115 0-1.519-.116-1.926-.334a2.28 2.28 0 0 1-.945-.945c-.218-.407-.334-.811-.334-1.926v-13.59c0-1.115.116-1.519.334-1.926s.538-.727.945-.945S7.09 830 8.205 830" clip-rule="evenodd"/><path stroke="#fff" stroke-linecap="round" stroke-linejoin="round" stroke-width="1.5" d="M13.833 836.5h2.8c.654 0 .98 0 1.23.127.22.112.398.29.51.51.127.25.127.576.127 1.23v2.8M9.167 836.5H11.5m7 7v2.333m2.333-2.333h-7.466c-.654 0-.98 0-1.23-.127a1.17 1.17 0 0 1-.51-.51c-.127-.25-.127-.576-.127-1.23v-7.466"/><g stroke="#fff" stroke-linecap="round" stroke-linejoin="round" stroke-width="1.6" clip-path="url(#e)"><path d="M38 256.333A10.2 10.2 0 0 1 40.667 263c-.052 2.472-1 4.841-2.667 6.667A10.2 10.2 0 0 1 35.333 263c.052-2.472 1-4.841 2.667-6.667M31.333 263h13.334"/><path d="M38 269.667a6.667 6.667 0 1 0 0-13.334 6.667 6.667 0 0 0 0 13.334"/></g><path stroke="#33333B" stroke-linecap="round" stroke-linejoin="round" stroke-width="1.6" d="m80 69 4 4 4-4"/><path stroke="#fff" stroke-linecap="round" stroke-linejoin="round" stroke-width="1.6" d="m80 132 4 4 4-4"/><path stroke="#E5322D" stroke-linecap="round" stroke-linejoin="round" stroke-width="1.6" d="m122 132 4 4 4-4"/><path stroke="#33333B" stroke-linecap="round" stroke-linejoin="round" stroke-width="1.6" d="m67 73-4-4-4 4"/><path stroke="#fff" stroke-linecap="round" stroke-linejoin="round" stroke-width="1.6" d="m67 136-4-4-4 4"/><path stroke="#E5322D" stroke-linecap="round" stroke-linejoin="round" stroke-width="1.6" d="m109 136-4-4-4 4"/><g xmlns="http://www.w3.org/2000/svg" fill="#33333B" fill-rule="evenodd" clip-rule="evenodd"><path d="M68.333 11.667a2.667 2.667 0 1 1 5.334 0 2.667 2.667 0 0 1-5.334 0M68.333 21a2.667 2.667 0 1 1 5.334 0 2.667 2.667 0 0 1-5.334 0M68.333 30.333a2.667 2.667 0 1 1 5.334 0 2.667 2.667 0 0 1-5.334 0M77.667 11.667a2.667 2.667 0 1 1 5.333 0 2.667 2.667 0 0 1-5.333 0M77.667 21A2.667 2.667 0 1 1 83 21a2.667 2.667 0 0 1-5.333 0M77.667 30.333a2.667 2.667 0 1 1 5.333 0 2.667 2.667 0 0 1-5.333 0M59 11.667a2.667 2.667 0 1 1 5.333 0 2.667 2.667 0 0 1-5.333 0M59 21a2.667 2.667 0 1 1 5.333 0A2.667 2.667 0 0 1 59 21M59 30.333a2.667 2.667 0 1 1 5.333 0 2.667 2.667 0 0 1-5.333 0"/></g><defs><clipPath id="b"><path fill="#fff" d="M5 55h20v20H5z"/></clipPath><clipPath id="c"><path fill="#fff" d="M30 355h16v16H30z"/></clipPath><clipPath id="d"><path fill="#fff" d="M30 430h16v16H30z"/></clipPath><clipPath id="e"><path fill="#fff" d="M30 255h16v16H30z"/></clipPath></defs></svg>